<svg xmlns="http://www.w3.org/2000/svg" width="21" height="24" viewBox="0 0 21 24" fill="none">
  <path d="M20.1652 22.9686C17.6784 23.8001 15.224 24.0909 12.7434 23.2271C12.3888 23.1034 12.0652 22.9308 11.7227 22.7482C11.5535 22.658 11.3796 22.5653 11.1952 22.4748L11.1951 22.4748C10.5876 22.1771 9.97996 21.8807 9.37255 21.5845C8.05975 20.9443 6.74807 20.3046 5.44164 19.653L5.4416 19.653C4.14267 19.0054 3.11565 18.0163 2.2663 16.8333L2.26628 16.8333C-2.17586 10.647 1.09639 2.17288 8.42679 0.518155C11.2627 -0.121782 13.9224 0.393677 16.3858 1.95761L16.5198 1.74655M20.1652 22.9686L2.06322 16.9791C-2.48356 10.6471 0.867047 1.96836 8.37175 0.274291C11.2761 -0.381088 14.0035 0.148978 16.5198 1.74655M20.1652 22.9686V5.73423M20.1652 22.9686V5.73423M16.5198 1.74655C16.5383 1.75837 16.5573 1.76984 16.5763 1.78135C16.6371 1.81812 16.6984 1.85519 16.7469 1.9047C17.8311 3.00321 18.913 4.10387 20.0212 5.23112C20.1521 5.36433 20.2834 5.49792 20.4152 5.63192H20.1652V5.73423M16.5198 1.74655L16.3853 1.95732C16.42 1.97944 16.4475 1.9961 16.4701 2.00979C16.5175 2.03844 16.5433 2.05407 16.5683 2.07963L16.569 2.08031C17.6531 3.17876 18.735 4.27937 19.8433 5.40678C19.9503 5.51567 20.0576 5.62481 20.1652 5.73423M15.2586 2.41131V2.25703L15.1207 2.18785C11.3305 0.286529 6.27085 1.13393 3.34555 4.99717L3.34554 4.99718C0.480168 8.78165 0.873736 14.1004 4.25377 17.4626C7.61013 20.8017 12.393 20.7385 15.1188 19.2116L15.2466 19.14V18.9935V13.5916V12.8896L14.8029 13.4336C12.9688 15.6821 9.89479 15.7116 8.06234 13.9534L8.06231 13.9533C6.32493 12.2869 6.23459 9.49184 7.86012 7.66789C9.39915 5.94109 12.7489 5.4198 14.814 7.98081L15.2586 8.5322V7.82389V2.41131Z" fill="url(#paint0_linear_2_5393)" fill-opacity="0.92" stroke="url(#paint1_linear_2_5393)" stroke-width="0.5"/>
  <defs>
    <linearGradient id="paint0_linear_2_5393" x1="10.2079" y1="0" x2="10.2079" y2="36.3925" gradientUnits="userSpaceOnUse">
      <stop offset="0.313079" stop-color="white"/>
      <stop offset="1" stop-color="white" stop-opacity="0"/>
    </linearGradient>
    <linearGradient id="paint1_linear_2_5393" x1="46.2438" y1="-58.2509" x2="-21.2258" y2="-11.6905" gradientUnits="userSpaceOnUse">
      <stop stop-color="white"/>
      <stop offset="1" stop-color="white" stop-opacity="0.5"/>
    </linearGradient>
  </defs>
</svg>