<svg width="28" height="28" viewBox="0 0 28 28" fill="none" xmlns="http://www.w3.org/2000/svg">
<path d="M12.252 20.9993V20.0993C12.099 20.0993 11.9486 20.1383 11.8149 20.2126L12.252 20.9993ZM7.00195 20.9993H7.90195C7.90195 20.5023 7.49901 20.0993 7.00195 20.0993V20.9993ZM7.00195 23.916H6.10195C6.10195 24.2349 6.2707 24.53 6.54554 24.6917C6.82038 24.8534 7.16027 24.8576 7.43903 24.7028L7.00195 23.916ZM19.8327 15.4327C19.3357 15.4327 18.9327 15.8356 18.9327 16.3327C18.9327 16.8297 19.3357 17.2327 19.8327 17.2327V16.3327V15.4327ZM7.26862 9.33268C7.26862 9.82974 7.67156 10.2327 8.16862 10.2327C8.66568 10.2327 9.06862 9.82974 9.06862 9.33268H8.16862H7.26862ZM18.6686 9.33268V8.43268H4.66862V9.33268V10.2327H18.6686V9.33268ZM3.50195 10.4993H2.60195V19.8327H3.50195H4.40195V10.4993H3.50195ZM19.8353 19.8327H20.7353V10.4993H19.8353H18.9353V19.8327H19.8353ZM12.252 20.9993V21.8993H18.6686V20.9993V20.0993H12.252V20.9993ZM4.66862 20.9993V21.8993H7.00195V20.9993V20.0993H4.66862V20.9993ZM7.00195 23.916L7.43903 24.7028L12.689 21.7861L12.252 20.9993L11.8149 20.2126L6.56487 23.1293L7.00195 23.916ZM7.00195 20.9993H6.10195V23.916H7.00195H7.90195V20.9993H7.00195ZM19.8353 19.8327H18.9353C18.9353 19.98 18.8159 20.0993 18.6686 20.0993V20.9993V21.8993C19.81 21.8993 20.7353 20.9741 20.7353 19.8327H19.8353ZM3.50195 19.8327H2.60195C2.60195 20.9741 3.52723 21.8993 4.66862 21.8993V20.9993V20.0993C4.52134 20.0993 4.40195 19.98 4.40195 19.8327H3.50195ZM4.66862 9.33268V8.43268C3.52723 8.43268 2.60195 9.35796 2.60195 10.4993H3.50195H4.40195C4.40195 10.3521 4.52134 10.2327 4.66862 10.2327V9.33268ZM18.6686 9.33268V10.2327C18.8159 10.2327 18.9353 10.3521 18.9353 10.4993H19.8353H20.7353C20.7353 9.35796 19.81 8.43268 18.6686 8.43268V9.33268ZM23.3353 4.66602V3.76602H9.33529V4.66602V5.56602H23.3353V4.66602ZM24.502 15.166H25.402V5.83268H24.502H23.602V15.166H24.502ZM19.8327 16.3327V17.2327H23.3353V16.3327V15.4327H19.8327V16.3327ZM8.16862 5.83268H7.26862V9.33268H8.16862H9.06862V5.83268H8.16862ZM24.502 15.166H23.602C23.602 15.3133 23.4826 15.4327 23.3353 15.4327V16.3327V17.2327C24.4767 17.2327 25.402 16.3074 25.402 15.166H24.502ZM9.33529 4.66602V3.76602C8.1939 3.76602 7.26862 4.69129 7.26862 5.83268H8.16862H9.06862C9.06862 5.68541 9.18801 5.56602 9.33529 5.56602V4.66602ZM23.3353 4.66602V5.56602C23.4826 5.56602 23.602 5.68541 23.602 5.83268H24.502H25.402C25.402 4.69129 24.4767 3.76602 23.3353 3.76602V4.66602Z" fill="white"/>
</svg>
