<svg width="11" height="12" viewBox="0 0 11 12" fill="none" xmlns="http://www.w3.org/2000/svg">
<path d="M11 4.92805C9.87712 4.92805 8.83753 4.58878 7.98858 4.01219V8.20359C7.98858 10.3003 6.2003 12 3.99437 12C3.17131 12 2.4063 11.7635 1.77081 11.3579C0.703026 10.6764 0 9.5178 0 8.20354C0 6.10697 1.78833 4.40726 3.99443 4.4073C4.17777 4.40721 4.36088 4.41905 4.5425 4.44265V4.90802L4.54239 6.5424C4.36758 6.48967 4.18123 6.46106 3.98788 6.46106C2.97872 6.46106 2.1608 7.23861 2.1608 8.19762C2.1608 8.87569 2.56965 9.46285 3.16585 9.74886C3.41305 9.86738 3.69224 9.93414 3.98789 9.93414C4.99497 9.93414 5.8115 9.15977 5.81497 8.20354V0H7.98855V0.264174C7.99622 0.343151 8.00728 0.421829 8.02167 0.499991C8.17252 1.31782 8.687 2.01657 9.40113 2.44011C9.88066 2.72462 10.4348 2.87502 11 2.87421L11 4.92805Z" fill="#636366"/>
</svg>
