<svg width="11" height="11" viewBox="0 0 11 11" fill="none" xmlns="http://www.w3.org/2000/svg">
<path d="M5.125 1.02591C6.46 1.02591 6.61818 1.03091 7.14545 1.055C7.46243 1.05883 7.7764 1.1171 8.07364 1.22727C8.29085 1.30743 8.48734 1.43526 8.64864 1.60136C8.81474 1.76267 8.94257 1.95915 9.02273 2.17636C9.1329 2.4736 9.19117 2.78757 9.195 3.10455C9.21909 3.63182 9.22409 3.79 9.22409 5.125C9.22409 6.46 9.21909 6.61818 9.195 7.14545C9.19117 7.46243 9.1329 7.7764 9.02273 8.07364C8.93954 8.28932 8.81212 8.48519 8.64865 8.64865C8.48519 8.81212 8.28932 8.93954 8.07364 9.02273C7.7764 9.1329 7.46243 9.19117 7.14545 9.195C6.61818 9.21909 6.46 9.22409 5.125 9.22409C3.79 9.22409 3.63182 9.21909 3.10455 9.195C2.78741 9.19122 2.47329 9.13295 2.17591 9.02273C1.95886 8.94251 1.76253 8.81468 1.60136 8.64864C1.43526 8.48734 1.30743 8.29085 1.22727 8.07364C1.1171 7.7764 1.05883 7.46243 1.055 7.14545C1.03091 6.61818 1.02591 6.46 1.02591 5.125C1.02591 3.79 1.03091 3.63182 1.055 3.10455C1.05883 2.78757 1.1171 2.4736 1.22727 2.17636C1.30743 1.95915 1.43526 1.76267 1.60136 1.60136C1.76267 1.43526 1.95915 1.30743 2.17636 1.22727C2.4736 1.1171 2.78757 1.05883 3.10455 1.055C3.63182 1.03091 3.79 1.02591 5.125 1.02591ZM5.125 0.125C3.76727 0.125 3.59682 0.130909 3.06364 0.155C2.64887 0.163274 2.23851 0.241812 1.85 0.387273C1.51621 0.512945 1.21387 0.709953 0.964091 0.964545C0.709718 1.21424 0.51287 1.51642 0.387273 1.85C0.241967 2.23854 0.163583 2.6489 0.155455 3.06364C0.130455 3.59682 0.125 3.76727 0.125 5.125C0.125 6.48273 0.130909 6.65318 0.155 7.18636C0.163274 7.60113 0.241812 8.01149 0.387273 8.4C0.512945 8.73379 0.709953 9.03613 0.964545 9.28591C1.21424 9.54028 1.51642 9.73713 1.85 9.86273C2.23854 10.008 2.6489 10.0864 3.06364 10.0945C3.59682 10.1195 3.76727 10.125 5.125 10.125C6.48273 10.125 6.65318 10.1191 7.18636 10.095C7.60113 10.0867 8.01149 10.0082 8.4 9.86273C8.73226 9.73426 9.03401 9.53779 9.2859 9.2859C9.53779 9.03401 9.73426 8.73226 9.86273 8.4C10.008 8.01146 10.0864 7.6011 10.0945 7.18636C10.1195 6.65318 10.125 6.48273 10.125 5.125C10.125 3.76727 10.1191 3.59682 10.095 3.06364C10.0867 2.64887 10.0082 2.23851 9.86273 1.85C9.73706 1.51621 9.54005 1.21387 9.28545 0.964091C9.03576 0.709718 8.73359 0.51287 8.4 0.387273C8.01146 0.241967 7.6011 0.163583 7.18636 0.155455C6.65318 0.130455 6.48273 0.125 5.125 0.125ZM5.125 2.55727C4.61715 2.55727 4.12071 2.70787 3.69845 2.99001C3.27619 3.27216 2.94707 3.67318 2.75273 4.14237C2.55838 4.61156 2.50753 5.12785 2.60661 5.62594C2.70569 6.12403 2.95024 6.58155 3.30934 6.94066C3.66845 7.29976 4.12597 7.54431 4.62406 7.64339C5.12215 7.74247 5.63844 7.69162 6.10763 7.49727C6.57682 7.30293 6.97784 6.97381 7.25999 6.55155C7.54213 6.12929 7.69273 5.63285 7.69273 5.125C7.69273 4.444 7.4222 3.79089 6.94066 3.30934C6.45912 2.8278 5.806 2.55727 5.125 2.55727ZM5.125 6.79182C4.79533 6.79182 4.47307 6.69406 4.19897 6.51091C3.92486 6.32776 3.71122 6.06744 3.58506 5.76286C3.4589 5.45829 3.42589 5.12315 3.49021 4.79982C3.55452 4.47649 3.71327 4.17949 3.94638 3.94638C4.17949 3.71327 4.47649 3.55452 4.79982 3.49021C5.12315 3.42589 5.45829 3.4589 5.76286 3.58506C6.06744 3.71122 6.32776 3.92486 6.51091 4.19897C6.69406 4.47307 6.79182 4.79533 6.79182 5.125C6.79182 5.56707 6.61621 5.99103 6.30362 6.30362C5.99103 6.61621 5.56707 6.79182 5.125 6.79182ZM7.79409 1.85591C7.67542 1.85591 7.55942 1.8911 7.46075 1.95703C7.36208 2.02296 7.28518 2.11666 7.23976 2.2263C7.19435 2.33593 7.18247 2.45657 7.20562 2.57296C7.22877 2.68935 7.28592 2.79626 7.36983 2.88017C7.45374 2.96408 7.56065 3.02123 7.67704 3.04438C7.79343 3.06753 7.91407 3.05565 8.0237 3.01024C8.13334 2.96482 8.22704 2.88792 8.29297 2.78925C8.3589 2.69058 8.39409 2.57458 8.39409 2.45591C8.39409 2.29678 8.33088 2.14417 8.21836 2.03165C8.10583 1.91912 7.95322 1.85591 7.79409 1.85591Z" fill="#636366" stroke="#636366" stroke-width="0.25"/>
</svg>
