<svg width="20" height="16" viewBox="0 0 20 16" fill="none" xmlns="http://www.w3.org/2000/svg">
<path d="M6.08163 14.5C6.4737 12.7827 7.95894 11.5 10 11.5C12.0411 11.5 13.5263 12.7827 13.9184 14.5M16 4.25004C16 4.38811 15.8881 4.50004 15.75 4.50004M16 4.25004C16 4.11197 15.8881 4.00004 15.75 4.00004M16 4.25004H15.5M15.75 4.50004C15.6119 4.50004 15.5 4.38811 15.5 4.25004M15.75 4.50004V4.00004M15.5 4.25004C15.5 4.11197 15.6119 4.00004 15.75 4.00004M15.9665 4.12504C16.0356 4.24461 15.9946 4.39751 15.875 4.46655M15.9665 4.12504C15.8975 4.00547 15.7446 3.9645 15.625 4.03354M15.9665 4.12504L15.5335 4.37504M15.875 4.46655C15.7555 4.53558 15.6026 4.49462 15.5335 4.37504M15.875 4.46655L15.625 4.03354M15.5335 4.37504C15.4645 4.25547 15.5055 4.10257 15.625 4.03354M15.8751 4.03355C15.9947 4.10259 16.0356 4.25548 15.9666 4.37506M15.8751 4.03355C15.7555 3.96451 15.6026 4.00548 15.5336 4.12506M15.8751 4.03355L15.6251 4.46656M15.9666 4.37506C15.8976 4.49463 15.7447 4.5356 15.6251 4.46656M15.9666 4.37506L15.5336 4.12506M15.6251 4.46656C15.5055 4.39753 15.4645 4.24463 15.5336 4.12506M12.25 6.75C12.25 7.99264 11.2426 9 10 9C8.75736 9 7.75 7.99264 7.75 6.75C7.75 5.50736 8.75736 4.5 10 4.5C11.2426 4.5 12.25 5.50736 12.25 6.75ZM2 15H18C18.5523 15 19 14.5523 19 14V2C19 1.44772 18.5523 1 18 1H2C1.44772 1 1 1.44772 1 2V14C1 14.5523 1.44772 15 2 15Z" stroke="#8E8E93" stroke-width="1.8" stroke-linecap="round" stroke-linejoin="round"/>
</svg>
