<svg width="24" height="24" viewBox="0 0 24 24" fill="none" xmlns="http://www.w3.org/2000/svg">
<path d="M10.5022 18V17.1C10.3492 17.1 10.1988 17.139 10.0651 17.2133L10.5022 18ZM6.0022 18H6.9022C6.9022 17.5029 6.49925 17.1 6.0022 17.1V18ZM6.0022 20.5H5.1022C5.1022 20.8189 5.27094 21.114 5.54578 21.2757C5.82062 21.4374 6.16052 21.4416 6.43928 21.2867L6.0022 20.5ZM17 13.1C16.5029 13.1 16.1 13.5029 16.1 14C16.1 14.4971 16.5029 14.9 17 14.9V13.1ZM6.1022 8C6.1022 8.49706 6.50514 8.9 7.0022 8.9C7.49925 8.9 7.9022 8.49706 7.9022 8H6.1022ZM16.0022 7.1H4.0022V8.9H16.0022V7.1ZM2.1022 9V17H3.9022V9H2.1022ZM17.9022 17V9H16.1022V17H17.9022ZM10.5022 18.9H16.0022V17.1H10.5022V18.9ZM4.0022 18.9H6.0022V17.1H4.0022V18.9ZM6.43928 21.2867L10.9393 18.7867L10.0651 17.2133L5.56512 19.7133L6.43928 21.2867ZM5.1022 18V20.5H6.9022V18H5.1022ZM16.1022 17C16.1022 17.0552 16.0574 17.1 16.0022 17.1V18.9C17.0515 18.9 17.9022 18.0493 17.9022 17H16.1022ZM2.1022 17C2.1022 18.0493 2.95286 18.9 4.0022 18.9V17.1C3.94697 17.1 3.9022 17.0552 3.9022 17H2.1022ZM4.0022 7.1C2.95286 7.1 2.1022 7.95066 2.1022 9H3.9022C3.9022 8.94477 3.94697 8.9 4.0022 8.9V7.1ZM16.0022 8.9C16.0574 8.9 16.1022 8.94477 16.1022 9H17.9022C17.9022 7.95066 17.0515 7.1 16.0022 7.1V8.9ZM20.0022 3.1H8.0022V4.9H20.0022V3.1ZM21.9022 13V5H20.1022V13H21.9022ZM17 14.9H20.0022V13.1H17V14.9ZM6.1022 5V8H7.9022V5H6.1022ZM20.1022 13C20.1022 13.0552 20.0574 13.1 20.0022 13.1V14.9C21.0515 14.9 21.9022 14.0493 21.9022 13H20.1022ZM8.0022 3.1C6.95286 3.1 6.1022 3.95066 6.1022 5H7.9022C7.9022 4.94477 7.94697 4.9 8.0022 4.9V3.1ZM20.0022 4.9C20.0574 4.9 20.1022 4.94477 20.1022 5H21.9022C21.9022 3.95066 21.0515 3.1 20.0022 3.1V4.9Z" fill="#8E8E93"/>
</svg>
