<svg width="22" height="18" viewBox="0 0 22 18" fill="none" xmlns="http://www.w3.org/2000/svg">
<path d="M21.4062 13.0898L21.4016 13.0852C20.368 10.8984 18.7672 9.77344 16.6367 9.77344C14.5062 9.77344 12.9055 10.9008 11.8695 13.0852V13.0875C11.743 13.357 11.743 13.6711 11.8695 13.9406C12.9055 16.125 14.5062 17.25 16.6367 17.25C18.7672 17.25 20.368 16.1227 21.4039 13.9383C21.5305 13.6688 21.5305 13.357 21.4062 13.0898ZM16.6367 15.75C15.1812 15.75 14.1195 15.0469 13.3297 13.5117C14.1172 11.9766 15.1812 11.2734 16.6367 11.2734C18.0922 11.2734 19.1539 11.9766 19.9437 13.5117C19.1562 15.0469 18.0922 15.75 16.6367 15.75Z" fill="#1340FF"/>
<path d="M15.3359 13.5234C15.3359 13.8715 15.4742 14.2054 15.7204 14.4515C15.9665 14.6977 16.3003 14.8359 16.6484 14.8359C16.9965 14.8359 17.3304 14.6977 17.5765 14.4515C17.8227 14.2054 17.9609 13.8715 17.9609 13.5234C17.9609 13.1753 17.8227 12.8415 17.5765 12.5954C17.3304 12.3492 16.9965 12.2109 16.6484 12.2109C16.3003 12.2109 15.9665 12.3492 15.7204 12.5954C15.4742 12.8415 15.3359 13.1753 15.3359 13.5234Z" fill="#1340FF"/>
<path d="M2.1875 2.4375H18.6875V8.36719H20.375V1.5C20.375 1.08516 20.0398 0.75 19.625 0.75H1.25C0.835156 0.75 0.5 1.08516 0.5 1.5V13.6875C0.5 14.1023 0.835156 14.4375 1.25 14.4375H9.5V12.75H2.1875V2.4375Z" fill="#1340FF"/>
<path d="M15.989 4.92335L15.1265 4.06085C15.0538 3.9882 14.9343 3.9882 14.8616 4.06085L10.5538 8.37335L8.53586 6.35304C8.4632 6.28039 8.34367 6.28039 8.27102 6.35304L4.88898 9.73507C4.81633 9.80773 4.81633 9.92726 4.88898 9.99992L5.75148 10.8624C5.82414 10.9351 5.94367 10.9351 6.01633 10.8624L8.40227 8.47648L10.4202 10.4968C10.4929 10.5695 10.6124 10.5695 10.6851 10.4968L15.989 5.1882C16.064 5.11554 16.064 4.99601 15.989 4.92335Z" fill="#1340FF"/>
</svg>
