<svg width="24" height="24" viewBox="0 0 24 24" fill="none" xmlns="http://www.w3.org/2000/svg">
<path d="M8.08163 18.5C8.4737 16.7827 9.95894 15.5 12 15.5C14.0411 15.5 15.5263 16.7827 15.9184 18.5M18 8.25004C18 8.38811 17.8881 8.50004 17.75 8.50004M18 8.25004C18 8.11197 17.8881 8.00004 17.75 8.00004M18 8.25004H17.5M17.75 8.50004C17.6119 8.50004 17.5 8.38811 17.5 8.25004M17.75 8.50004V8.00004M17.5 8.25004C17.5 8.11197 17.6119 8.00004 17.75 8.00004M17.9665 8.12504C18.0356 8.24461 17.9946 8.39751 17.875 8.46655M17.9665 8.12504C17.8975 8.00547 17.7446 7.9645 17.625 8.03354M17.9665 8.12504L17.5335 8.37504M17.875 8.46655C17.7555 8.53558 17.6026 8.49462 17.5335 8.37504M17.875 8.46655L17.625 8.03354M17.5335 8.37504C17.4645 8.25547 17.5055 8.10257 17.625 8.03354M17.8751 8.03355C17.9947 8.10259 18.0356 8.25548 17.9666 8.37506M17.8751 8.03355C17.7555 7.96451 17.6026 8.00548 17.5336 8.12506M17.8751 8.03355L17.6251 8.46656M17.9666 8.37506C17.8976 8.49463 17.7447 8.5356 17.6251 8.46656M17.9666 8.37506L17.5336 8.12506M17.6251 8.46656C17.5055 8.39753 17.4645 8.24463 17.5336 8.12506M14.25 10.75C14.25 11.9926 13.2426 13 12 13C10.7574 13 9.75 11.9926 9.75 10.75C9.75 9.50736 10.7574 8.5 12 8.5C13.2426 8.5 14.25 9.50736 14.25 10.75ZM4 19H20C20.5523 19 21 18.5523 21 18V6C21 5.44772 20.5523 5 20 5H4C3.44772 5 3 5.44772 3 6V18C3 18.5523 3.44772 19 4 19Z" stroke="#8E8E93" stroke-width="1.8" stroke-linecap="round" stroke-linejoin="round"/>
</svg>
