<svg width="24" height="24" viewBox="0 0 24 24" fill="none" xmlns="http://www.w3.org/2000/svg">
<path d="M17.9978 14.0002C19.6547 14.0002 20.9978 12.657 20.9978 11.0002C20.9978 9.34332 19.6547 8.00017 17.9978 8.00017M12.8271 18.0002C12.4153 19.1654 11.304 20.0002 9.9978 20.0002C8.34095 20.0002 6.9978 18.657 6.9978 17.0002V15.5002M7 6.50017V15.5002M17.9978 4.36888V17.6315C17.9978 18.3086 17.3389 18.79 16.6939 18.5841L3.69385 14.4365C3.27925 14.3043 2.9978 13.919 2.9978 13.4838V8.5165C2.9978 8.08131 3.27925 7.69609 3.69385 7.56382L16.6939 3.4162C17.3389 3.21038 17.9978 3.69175 17.9978 4.36888Z" stroke="#8E8E93" stroke-width="1.8" stroke-linecap="round" stroke-linejoin="round"/>
</svg>
