<svg width="36" height="36" viewBox="0 0 36 36" fill="none" xmlns="http://www.w3.org/2000/svg">
<path d="M33.2998 24.0043L27.4793 29.8262L27.4793 25.8475L15.347 25.8475C16.697 24.9453 17.7384 23.6745 18.34 22.1607L27.4793 22.1607L27.4793 18.1809L33.2998 24.0043Z" fill="#636366"/>
<path d="M12.9942 13.8398L2.7 13.8398L2.7 10.1531L16.0542 10.1531C14.7063 11.0681 13.6453 12.3464 12.9942 13.8398Z" fill="#636366"/>
<path d="M33.2998 11.9967L27.4793 17.8186L27.4793 13.8395L22.9437 13.8395C22.0707 13.8395 21.1192 13.738 20.2538 13.8924C18.7252 14.1657 17.5444 15.4941 17.4526 17.0439C17.3943 18.0285 17.5174 19.0203 17.3849 20.0016C17.1482 21.7449 16.2292 23.3229 14.8296 24.3889C13.529 25.3753 11.923 25.8379 10.3023 25.848C9.70361 25.8516 9.10493 25.848 8.50625 25.848L2.69981 25.848L2.69981 22.1613L7.62857 22.1613C9.35621 22.1613 11.5662 22.4971 12.9134 21.168C13.836 20.2579 13.7597 19.0653 13.7597 17.8773C13.7597 16.3098 13.9912 14.8313 14.8491 13.4799C15.8136 11.9597 17.3129 10.8562 19.051 10.3871C20.0896 10.1092 21.1563 10.1524 22.2194 10.1524L27.479 10.1524L27.479 6.17293L33.2998 11.9967Z" fill="#1C1C1E"/>
</svg>
