<svg width="40" height="40" viewBox="0 0 40 40" fill="none" xmlns="http://www.w3.org/2000/svg">
<g clip-path="url(#clip0_1706_41246)">
<path d="M40 0H0V40H40V0Z" fill="#1340FF"/>
<path d="M29.4159 31.1476C26.8419 32.0328 24.2707 32.3719 21.6612 31.4632C21.1137 31.2722 20.6098 30.9566 20.0851 30.6993C18.1665 29.7591 16.2419 28.8303 14.3301 27.8767C12.9858 27.2066 11.9297 26.186 11.0632 24.9791C6.51644 18.6471 9.86705 9.96836 17.3717 8.27429C20.2761 7.61891 23.0035 8.14898 25.5198 9.74655C25.5975 9.79614 25.6833 9.8397 25.7469 9.9047C26.9592 11.133 28.1688 12.364 29.4152 13.6319V31.1476H29.4159ZM24.0086 10.4113C20.3203 8.5611 15.3935 9.38602 12.5449 13.1481C9.75581 16.8318 10.1378 22.0105 13.4301 25.2853C16.6989 28.5374 21.3576 28.4718 23.9966 26.9935V21.5916C22.0686 23.9552 18.8252 23.9913 16.8893 22.1338C15.0525 20.372 14.9606 17.4235 16.6735 15.5016C18.2992 13.6775 21.8321 13.1246 24.0086 15.8239V10.4113Z" fill="white"/>
</g>
<defs>
<clipPath id="clip0_1706_41246">
<rect width="40" height="40" rx="6" fill="white"/>
</clipPath>
</defs>
</svg>
