<svg width="24" height="24" viewBox="0 0 24 24" fill="none" xmlns="http://www.w3.org/2000/svg">
<path d="M6.11594 18.8103L5.52724 19.4911L6.11594 18.8103ZM17.8841 18.8103L17.2954 18.1296L17.8841 18.8103ZM5.83565 17.7469C5.50033 18.1138 5.52593 18.6831 5.89285 19.0184C6.25976 19.3538 6.82903 19.3281 7.16435 18.9612L5.83565 17.7469ZM16.8356 18.9612L17.4428 19.6256L18.7715 18.4113L18.1644 17.7469L16.8356 18.9612ZM3.9 12C3.9 7.52649 7.52649 3.9 12 3.9V2.1C6.53238 2.1 2.1 6.53238 2.1 12H3.9ZM12 3.9C16.4735 3.9 20.1 7.52649 20.1 12H21.9C21.9 6.53238 17.4676 2.1 12 2.1V3.9ZM14.1 10C14.1 11.1598 13.1598 12.1 12 12.1V13.9C14.1539 13.9 15.9 12.1539 15.9 10H14.1ZM12 12.1C10.8402 12.1 9.9 11.1598 9.9 10H8.1C8.1 12.1539 9.84609 13.9 12 13.9V12.1ZM9.9 10C9.9 8.8402 10.8402 7.9 12 7.9V6.1C9.84609 6.1 8.1 7.84609 8.1 10H9.9ZM12 7.9C13.1598 7.9 14.1 8.8402 14.1 10H15.9C15.9 7.84609 14.1539 6.1 12 6.1V7.9ZM12 20.1C9.97474 20.1 8.12506 19.3579 6.70463 18.1296L5.52724 19.4911C7.26229 20.9915 9.52618 21.9 12 21.9V20.1ZM6.70463 18.1296C4.98549 16.6429 3.9 14.4487 3.9 12H2.1C2.1 14.9933 3.42956 17.6771 5.52724 19.4911L6.70463 18.1296ZM20.1 12C20.1 14.4487 19.0145 16.6429 17.2954 18.1296L18.4728 19.4911C20.5704 17.6771 21.9 14.9933 21.9 12H20.1ZM17.2954 18.1296C15.8749 19.3579 14.0253 20.1 12 20.1V21.9C14.4738 21.9 16.7377 20.9915 18.4728 19.4911L17.2954 18.1296ZM7.16435 18.9612C8.31959 17.6972 9.98161 16.9 12 16.9V15.1C9.47809 15.1 7.33323 16.1083 5.83565 17.7469L7.16435 18.9612ZM12 16.9C14.0184 16.9 15.6804 17.6972 16.8356 18.9612L18.1644 17.7469C16.6668 16.1083 14.5219 15.1 12 15.1V16.9Z" fill="#8E8E93"/>
</svg>
