<?xml version="1.0" encoding="UTF-8"?>
<svg xmlns="http://www.w3.org/2000/svg" viewBox="0 0 392 160" width="392" height="160" shape-rendering="crispEdges">
<path fill="#ffffff" d="M31 4h5v1h-5zM26 5h15v1h-15zM23 6h21v1h-21zM58 6h12v1h-12zM90 6h13v1h-13zM117 6h13v1h-13zM149 6h36v1h-36zM21 7h25v1h-25zM57 7h13v1h-13zM90 7h13v1h-13zM117 7h13v1h-13zM149 7h36v1h-36zM19 8h27v1h-27zM57 8h13v1h-13zM90 8h13v1h-13zM117 8h13v1h-13zM149 8h36v1h-36zM18 9h28v1h-28zM57 9h13v1h-13zM90 9h13v1h-13zM117 9h13v1h-13zM149 9h36v1h-36zM16 10h30v1h-30zM57 10h13v1h-13zM90 10h13v1h-13zM117 10h13v1h-13zM149 10h36v1h-36zM15 11h31v1h-31zM57 11h13v1h-13zM90 11h13v1h-13zM117 11h13v1h-13zM149 11h36v1h-36zM14 12h32v1h-32zM57 12h13v1h-13zM90 12h13v1h-13zM117 12h13v1h-13zM149 12h36v1h-36zM13 13h33v1h-33zM57 13h13v1h-13zM90 13h13v1h-13zM117 13h13v1h-13zM149 13h36v1h-36zM12 14h34v1h-34zM57 14h13v1h-13zM90 14h13v1h-13zM117 14h13v1h-13zM149 14h36v1h-36zM11 15h35v1h-35zM57 15h13v1h-13zM90 15h13v1h-13zM117 15h13v1h-13zM149 15h36v1h-36zM11 16h35v1h-35zM57 16h13v1h-13zM90 16h13v1h-13zM117 16h13v1h-13zM149 16h36v1h-36zM10 17h21v1h-21zM38 17h8v1h-8zM57 17h13v1h-13zM90 17h13v1h-13zM117 17h13v1h-13zM160 17h13v1h-13zM9 18h19v1h-19zM41 18h5v1h-5zM57 18h13v1h-13zM90 18h13v1h-13zM117 18h13v1h-13zM160 18h13v1h-13zM9 19h17v1h-17zM43 19h3v1h-3zM57 19h13v1h-13zM90 19h13v1h-13zM117 19h13v1h-13zM160 19h13v1h-13zM8 20h17v1h-17zM44 20h2v1h-2zM57 20h13v1h-13zM90 20h13v1h-13zM117 20h13v1h-13zM160 20h13v1h-13zM8 21h15v1h-15zM45 21h1v1h-1zM57 21h13v1h-13zM90 21h13v1h-13zM117 21h13v1h-13zM160 21h13v1h-13zM7 22h16v1h-16zM57 22h13v1h-13zM90 22h13v1h-13zM117 22h13v1h-13zM160 22h13v1h-13zM7 23h15v1h-15zM57 23h13v1h-13zM90 23h13v1h-13zM117 23h13v1h-13zM160 23h13v1h-13zM7 24h14v1h-14zM57 24h13v1h-13zM90 24h13v1h-13zM117 24h13v1h-13zM160 24h13v1h-13zM7 25h14v1h-14zM57 25h13v1h-13zM90 25h13v1h-13zM117 25h13v1h-13zM160 25h13v1h-13zM6 26h14v1h-14zM57 26h13v1h-13zM90 26h13v1h-13zM117 26h13v1h-13zM160 26h13v1h-13zM6 27h14v1h-14zM57 27h13v1h-13zM90 27h13v1h-13zM117 27h13v1h-13zM160 27h13v1h-13zM6 28h14v1h-14zM57 28h13v1h-13zM90 28h13v1h-13zM117 28h13v1h-13zM160 28h13v1h-13zM6 29h14v1h-14zM57 29h13v1h-13zM90 29h13v1h-13zM117 29h13v1h-13zM160 29h13v1h-13zM6 30h13v1h-13zM57 30h13v1h-13zM90 30h13v1h-13zM117 30h13v1h-13zM160 30h13v1h-13zM6 31h13v1h-13zM57 31h13v1h-13zM90 31h13v1h-13zM117 31h13v1h-13zM160 31h13v1h-13zM6 32h13v1h-13zM57 32h13v1h-13zM90 32h13v1h-13zM117 32h13v1h-13zM160 32h13v1h-13zM6 33h13v1h-13zM57 33h13v1h-13zM90 33h13v1h-13zM117 33h13v1h-13zM160 33h13v1h-13zM6 34h13v1h-13zM57 34h13v1h-13zM90 34h13v1h-13zM117 34h13v1h-13zM160 34h13v1h-13zM6 35h14v1h-14zM57 35h13v1h-13zM90 35h13v1h-13zM117 35h13v1h-13zM160 35h13v1h-13zM6 36h14v1h-14zM57 36h13v1h-13zM90 36h13v1h-13zM117 36h13v1h-13zM160 36h13v1h-13zM6 37h14v1h-14zM57 37h13v1h-13zM90 37h13v1h-13zM117 37h13v1h-13zM160 37h13v1h-13zM6 38h14v1h-14zM58 38h12v1h-12zM90 38h13v1h-13zM117 38h13v1h-13zM160 38h13v1h-13zM7 39h14v1h-14zM58 39h13v1h-13zM90 39h13v1h-13zM117 39h13v1h-13zM160 39h13v1h-13zM7 40h14v1h-14zM58 40h13v1h-13zM90 40h13v1h-13zM117 40h13v1h-13zM160 40h13v1h-13zM7 41h15v1h-15zM58 41h13v1h-13zM90 41h13v1h-13zM117 41h13v1h-13zM160 41h13v1h-13zM8 42h15v1h-15zM58 42h13v1h-13zM90 42h13v1h-13zM117 42h13v1h-13zM160 42h13v1h-13zM8 43h16v1h-16zM45 43h1v1h-1zM58 43h14v1h-14zM89 43h14v1h-14zM117 43h13v1h-13zM160 43h13v1h-13zM9 44h16v1h-16zM44 44h2v1h-2zM58 44h14v1h-14zM89 44h14v1h-14zM117 44h13v1h-13zM160 44h13v1h-13zM9 45h17v1h-17zM43 45h3v1h-3zM58 45h14v1h-14zM88 45h14v1h-14zM117 45h13v1h-13zM160 45h13v1h-13zM10 46h18v1h-18zM41 46h5v1h-5zM59 46h14v1h-14zM88 46h14v1h-14zM117 46h13v1h-13zM160 46h13v1h-13zM10 47h21v1h-21zM38 47h8v1h-8zM59 47h15v1h-15zM87 47h15v1h-15zM117 47h13v1h-13zM160 47h13v1h-13zM11 48h35v1h-35zM59 48h17v1h-17zM85 48h16v1h-16zM117 48h30v1h-30zM160 48h13v1h-13zM12 49h34v1h-34zM60 49h41v1h-41zM117 49h30v1h-30zM160 49h13v1h-13zM12 50h34v1h-34zM60 50h41v1h-41zM117 50h30v1h-30zM160 50h13v1h-13zM13 51h33v1h-33zM61 51h39v1h-39zM117 51h30v1h-30zM160 51h13v1h-13zM14 52h32v1h-32zM61 52h38v1h-38zM117 52h30v1h-30zM160 52h13v1h-13zM15 53h31v1h-31zM62 53h37v1h-37zM117 53h30v1h-30zM160 53h13v1h-13zM16 54h30v1h-30zM63 54h35v1h-35zM117 54h30v1h-30zM160 54h13v1h-13zM18 55h28v1h-28zM64 55h33v1h-33zM117 55h30v1h-30zM160 55h13v1h-13zM19 56h27v1h-27zM65 56h31v1h-31zM117 56h30v1h-30zM160 56h13v1h-13zM21 57h25v1h-25zM66 57h28v1h-28zM117 57h30v1h-30zM160 57h13v1h-13zM23 58h21v1h-21zM68 58h24v1h-24zM117 58h30v1h-30zM160 58h13v1h-13zM26 59h15v1h-15zM71 59h18v1h-18zM31 60h5v1h-5zM77 60h6v1h-6zM27 75h13v1h-13zM24 76h19v1h-19zM58 76h25v1h-25zM110 76h29v1h-29zM167 76h15v1h-15zM203 76h36v1h-36zM248 76h13v1h-13zM270 76h14v1h-14zM310 76h14v1h-14zM333 76h29v1h-29zM22 77h24v1h-24zM58 77h29v1h-29zM110 77h29v1h-29zM167 77h15v1h-15zM203 77h36v1h-36zM248 77h13v1h-13zM270 77h14v1h-14zM310 77h14v1h-14zM333 77h29v1h-29zM20 78h26v1h-26zM58 78h31v1h-31zM110 78h29v1h-29zM166 78h16v1h-16zM203 78h36v1h-36zM248 78h13v1h-13zM271 78h14v1h-14zM309 78h14v1h-14zM333 78h29v1h-29zM18 79h28v1h-28zM58 79h32v1h-32zM110 79h29v1h-29zM166 79h17v1h-17zM203 79h36v1h-36zM248 79h13v1h-13zM271 79h14v1h-14zM309 79h14v1h-14zM333 79h29v1h-29zM17 80h29v1h-29zM58 80h33v1h-33zM110 80h29v1h-29zM165 80h18v1h-18zM203 80h36v1h-36zM248 80h13v1h-13zM271 80h14v1h-14zM309 80h14v1h-14zM333 80h29v1h-29zM15 81h31v1h-31zM58 81h34v1h-34zM110 81h29v1h-29zM165 81h18v1h-18zM203 81h36v1h-36zM248 81h13v1h-13zM272 81h14v1h-14zM308 81h14v1h-14zM333 81h29v1h-29zM14 82h32v1h-32zM58 82h35v1h-35zM110 82h29v1h-29zM165 82h19v1h-19zM203 82h36v1h-36zM248 82h13v1h-13zM272 82h14v1h-14zM308 82h14v1h-14zM333 82h29v1h-29zM13 83h33v1h-33zM58 83h35v1h-35zM110 83h29v1h-29zM164 83h20v1h-20zM203 83h36v1h-36zM248 83h13v1h-13zM273 83h14v1h-14zM308 83h13v1h-13zM333 83h29v1h-29zM12 84h34v1h-34zM58 84h36v1h-36zM110 84h29v1h-29zM164 84h21v1h-21zM203 84h36v1h-36zM248 84h13v1h-13zM273 84h14v1h-14zM307 84h14v1h-14zM333 84h29v1h-29zM12 85h34v1h-34zM58 85h36v1h-36zM110 85h29v1h-29zM164 85h21v1h-21zM203 85h36v1h-36zM248 85h13v1h-13zM274 85h13v1h-13zM307 85h14v1h-14zM333 85h29v1h-29zM11 86h35v1h-35zM58 86h12v1h-12zM77 86h18v1h-18zM110 86h29v1h-29zM163 86h22v1h-22zM203 86h36v1h-36zM248 86h13v1h-13zM274 86h14v1h-14zM306 86h14v1h-14zM333 86h29v1h-29zM10 87h24v1h-24zM35 87h11v1h-11zM58 87h12v1h-12zM79 87h16v1h-16zM110 87h13v1h-13zM163 87h23v1h-23zM214 87h14v1h-14zM248 87h13v1h-13zM274 87h14v1h-14zM306 87h14v1h-14zM333 87h13v1h-13zM9 88h19v1h-19zM40 88h6v1h-6zM58 88h12v1h-12zM81 88h14v1h-14zM110 88h13v1h-13zM162 88h24v1h-24zM215 88h13v1h-13zM248 88h13v1h-13zM275 88h13v1h-13zM306 88h13v1h-13zM333 88h13v1h-13zM9 89h17v1h-17zM42 89h4v1h-4zM58 89h12v1h-12zM81 89h15v1h-15zM110 89h13v1h-13zM162 89h24v1h-24zM215 89h13v1h-13zM248 89h13v1h-13zM275 89h14v1h-14zM305 89h14v1h-14zM333 89h13v1h-13zM8 90h17v1h-17zM44 90h2v1h-2zM58 90h12v1h-12zM82 90h14v1h-14zM110 90h13v1h-13zM162 90h25v1h-25zM215 90h13v1h-13zM248 90h13v1h-13zM276 90h13v1h-13zM305 90h13v1h-13zM333 90h13v1h-13zM8 91h16v1h-16zM45 91h1v1h-1zM58 91h12v1h-12zM82 91h14v1h-14zM110 91h13v1h-13zM161 91h26v1h-26zM215 91h13v1h-13zM248 91h13v1h-13zM276 91h14v1h-14zM304 91h14v1h-14zM333 91h13v1h-13zM8 92h15v1h-15zM58 92h12v1h-12zM83 92h13v1h-13zM110 92h13v1h-13zM161 92h12v1h-12zM175 92h13v1h-13zM215 92h13v1h-13zM248 92h13v1h-13zM276 92h14v1h-14zM304 92h14v1h-14zM333 92h13v1h-13zM7 93h15v1h-15zM58 93h12v1h-12zM83 93h13v1h-13zM110 93h13v1h-13zM161 93h12v1h-12zM175 93h13v1h-13zM215 93h13v1h-13zM248 93h13v1h-13zM277 93h13v1h-13zM304 93h13v1h-13zM333 93h13v1h-13zM7 94h15v1h-15zM58 94h12v1h-12zM83 94h13v1h-13zM110 94h13v1h-13zM160 94h13v1h-13zM176 94h12v1h-12zM215 94h13v1h-13zM248 94h13v1h-13zM277 94h14v1h-14zM303 94h14v1h-14zM333 94h13v1h-13zM7 95h14v1h-14zM58 95h12v1h-12zM82 95h14v1h-14zM110 95h13v1h-13zM160 95h12v1h-12zM176 95h13v1h-13zM215 95h13v1h-13zM248 95h13v1h-13zM278 95h13v1h-13zM303 95h13v1h-13zM333 95h13v1h-13zM6 96h15v1h-15zM58 96h12v1h-12zM82 96h14v1h-14zM110 96h13v1h-13zM159 96h13v1h-13zM176 96h13v1h-13zM215 96h13v1h-13zM248 96h13v1h-13zM278 96h14v1h-14zM302 96h14v1h-14zM333 96h13v1h-13zM6 97h14v1h-14zM58 97h12v1h-12zM81 97h14v1h-14zM110 97h28v1h-28zM159 97h13v1h-13zM177 97h12v1h-12zM215 97h13v1h-13zM248 97h13v1h-13zM279 97h13v1h-13zM302 97h14v1h-14zM333 97h29v1h-29zM6 98h14v1h-14zM58 98h12v1h-12zM80 98h15v1h-15zM110 98h28v1h-28zM159 98h12v1h-12zM177 98h13v1h-13zM215 98h13v1h-13zM248 98h13v1h-13zM279 98h13v1h-13zM302 98h13v1h-13zM333 98h29v1h-29zM6 99h14v1h-14zM58 99h12v1h-12zM79 99h16v1h-16zM110 99h28v1h-28zM158 99h13v1h-13zM178 99h12v1h-12zM215 99h13v1h-13zM248 99h13v1h-13zM279 99h14v1h-14zM301 99h14v1h-14zM333 99h29v1h-29zM6 100h13v1h-13zM58 100h36v1h-36zM110 100h28v1h-28zM158 100h13v1h-13zM178 100h13v1h-13zM215 100h13v1h-13zM248 100h13v1h-13zM280 100h13v1h-13zM301 100h13v1h-13zM333 100h29v1h-29zM6 101h13v1h-13zM58 101h35v1h-35zM110 101h28v1h-28zM158 101h12v1h-12zM178 101h13v1h-13zM215 101h13v1h-13zM248 101h13v1h-13zM280 101h14v1h-14zM300 101h14v1h-14zM333 101h29v1h-29zM6 102h13v1h-13zM58 102h34v1h-34zM110 102h28v1h-28zM157 102h13v1h-13zM179 102h12v1h-12zM215 102h13v1h-13zM248 102h13v1h-13zM281 102h13v1h-13zM300 102h13v1h-13zM333 102h29v1h-29zM6 103h13v1h-13zM58 103h33v1h-33zM110 103h28v1h-28zM157 103h13v1h-13zM179 103h13v1h-13zM215 103h13v1h-13zM248 103h13v1h-13zM281 103h13v1h-13zM300 103h13v1h-13zM333 103h29v1h-29zM6 104h13v1h-13zM58 104h32v1h-32zM110 104h28v1h-28zM156 104h13v1h-13zM179 104h13v1h-13zM215 104h13v1h-13zM248 104h13v1h-13zM281 104h14v1h-14zM299 104h14v1h-14zM333 104h29v1h-29zM6 105h14v1h-14zM58 105h31v1h-31zM110 105h28v1h-28zM156 105h13v1h-13zM180 105h13v1h-13zM215 105h13v1h-13zM248 105h13v1h-13zM282 105h13v1h-13zM299 105h13v1h-13zM333 105h29v1h-29zM6 106h14v1h-14zM58 106h29v1h-29zM110 106h28v1h-28zM156 106h13v1h-13zM180 106h13v1h-13zM215 106h13v1h-13zM248 106h13v1h-13zM282 106h14v1h-14zM298 106h14v1h-14zM333 106h29v1h-29zM6 107h14v1h-14zM58 107h27v1h-27zM110 107h28v1h-28zM155 107h13v1h-13zM180 107h13v1h-13zM215 107h13v1h-13zM248 107h13v1h-13zM283 107h13v1h-13zM298 107h13v1h-13zM333 107h29v1h-29zM6 108h14v1h-14zM58 108h27v1h-27zM110 108h13v1h-13zM155 108h13v1h-13zM181 108h13v1h-13zM215 108h13v1h-13zM248 108h13v1h-13zM283 108h14v1h-14zM298 108h13v1h-13zM333 108h13v1h-13zM7 109h14v1h-14zM58 109h13v1h-13zM72 109h13v1h-13zM110 109h13v1h-13zM154 109h14v1h-14zM181 109h13v1h-13zM215 109h13v1h-13zM248 109h13v1h-13zM284 109h27v1h-27zM333 109h13v1h-13zM7 110h14v1h-14zM58 110h12v1h-12zM72 110h14v1h-14zM110 110h13v1h-13zM154 110h40v1h-40zM215 110h13v1h-13zM248 110h13v1h-13zM284 110h26v1h-26zM333 110h13v1h-13zM7 111h15v1h-15zM58 111h12v1h-12zM73 111h14v1h-14zM110 111h13v1h-13zM154 111h41v1h-41zM215 111h13v1h-13zM248 111h13v1h-13zM284 111h26v1h-26zM333 111h13v1h-13zM8 112h14v1h-14zM58 112h12v1h-12zM74 112h14v1h-14zM110 112h13v1h-13zM153 112h42v1h-42zM215 112h13v1h-13zM248 112h13v1h-13zM285 112h24v1h-24zM333 112h13v1h-13zM8 113h15v1h-15zM58 113h12v1h-12zM74 113h14v1h-14zM110 113h13v1h-13zM153 113h43v1h-43zM215 113h13v1h-13zM248 113h13v1h-13zM285 113h24v1h-24zM333 113h13v1h-13zM8 114h16v1h-16zM44 114h2v1h-2zM58 114h12v1h-12zM75 114h14v1h-14zM110 114h13v1h-13zM153 114h43v1h-43zM215 114h13v1h-13zM248 114h13v1h-13zM286 114h22v1h-22zM333 114h13v1h-13zM9 115h16v1h-16zM43 115h3v1h-3zM58 115h12v1h-12zM76 115h14v1h-14zM110 115h13v1h-13zM152 115h44v1h-44zM215 115h13v1h-13zM248 115h13v1h-13zM286 115h22v1h-22zM333 115h13v1h-13zM379 115h5v1h-5zM9 116h18v1h-18zM40 116h6v1h-6zM58 116h12v1h-12zM76 116h15v1h-15zM110 116h13v1h-13zM152 116h45v1h-45zM215 116h13v1h-13zM248 116h13v1h-13zM286 116h22v1h-22zM333 116h13v1h-13zM377 116h9v1h-9zM10 117h19v1h-19zM38 117h8v1h-8zM58 117h12v1h-12zM77 117h14v1h-14zM110 117h13v1h-13zM151 117h46v1h-46zM215 117h13v1h-13zM248 117h13v1h-13zM287 117h20v1h-20zM333 117h13v1h-13zM376 117h11v1h-11zM11 118h35v1h-35zM58 118h12v1h-12zM78 118h14v1h-14zM110 118h29v1h-29zM151 118h46v1h-46zM215 118h13v1h-13zM248 118h13v1h-13zM287 118h20v1h-20zM333 118h29v1h-29zM375 118h13v1h-13zM11 119h35v1h-35zM58 119h12v1h-12zM78 119h15v1h-15zM110 119h29v1h-29zM151 119h47v1h-47zM215 119h13v1h-13zM248 119h13v1h-13zM288 119h18v1h-18zM333 119h29v1h-29zM374 119h14v1h-14zM12 120h34v1h-34zM58 120h12v1h-12zM79 120h15v1h-15zM110 120h29v1h-29zM150 120h14v1h-14zM185 120h13v1h-13zM215 120h13v1h-13zM248 120h13v1h-13zM288 120h18v1h-18zM333 120h29v1h-29zM374 120h15v1h-15zM13 121h33v1h-33zM58 121h12v1h-12zM79 121h15v1h-15zM110 121h29v1h-29zM150 121h14v1h-14zM185 121h14v1h-14zM215 121h13v1h-13zM248 121h13v1h-13zM289 121h17v1h-17zM333 121h29v1h-29zM374 121h15v1h-15zM14 122h32v1h-32zM58 122h12v1h-12zM80 122h15v1h-15zM110 122h29v1h-29zM150 122h13v1h-13zM186 122h13v1h-13zM215 122h13v1h-13zM248 122h13v1h-13zM289 122h16v1h-16zM333 122h29v1h-29zM373 122h16v1h-16zM15 123h31v1h-31zM58 123h12v1h-12zM81 123h15v1h-15zM110 123h29v1h-29zM149 123h14v1h-14zM186 123h13v1h-13zM215 123h13v1h-13zM248 123h13v1h-13zM289 123h16v1h-16zM333 123h29v1h-29zM373 123h16v1h-16zM16 124h30v1h-30zM58 124h12v1h-12zM81 124h16v1h-16zM110 124h29v1h-29zM149 124h13v1h-13zM186 124h14v1h-14zM215 124h13v1h-13zM248 124h13v1h-13zM290 124h14v1h-14zM333 124h29v1h-29zM374 124h15v1h-15zM17 125h29v1h-29zM58 125h12v1h-12zM82 125h15v1h-15zM110 125h29v1h-29zM148 125h14v1h-14zM187 125h13v1h-13zM215 125h13v1h-13zM248 125h13v1h-13zM290 125h14v1h-14zM333 125h29v1h-29zM374 125h15v1h-15zM19 126h27v1h-27zM58 126h12v1h-12zM83 126h15v1h-15zM110 126h29v1h-29zM148 126h14v1h-14zM187 126h13v1h-13zM215 126h13v1h-13zM248 126h13v1h-13zM291 126h12v1h-12zM333 126h29v1h-29zM374 126h14v1h-14zM20 127h26v1h-26zM58 127h12v1h-12zM83 127h16v1h-16zM110 127h29v1h-29zM148 127h13v1h-13zM187 127h14v1h-14zM215 127h13v1h-13zM248 127h13v1h-13zM291 127h12v1h-12zM333 127h29v1h-29zM375 127h13v1h-13zM22 128h23v1h-23zM58 128h12v1h-12zM84 128h16v1h-16zM110 128h29v1h-29zM147 128h14v1h-14zM188 128h13v1h-13zM215 128h13v1h-13zM248 128h13v1h-13zM291 128h12v1h-12zM333 128h29v1h-29zM376 128h11v1h-11zM25 129h17v1h-17zM377 129h9v1h-9zM29 130h9v1h-9zM379 130h5v1h-5zM225 146h1v1h-1z"></path>
<path fill="#231f20" d="M24 0h13v1h-13zM21 1h20v1h-20zM19 2h25v1h-25zM53 2h19v1h-19zM85 2h20v1h-20zM112 2h21v1h-21zM144 2h42v1h-42zM17 3h29v1h-29zM52 3h21v1h-21zM85 3h21v1h-21zM112 3h22v1h-22zM143 3h44v1h-44zM15 4h14v1h-14zM39 4h8v1h-8zM52 4h22v1h-22zM85 4h22v1h-22zM112 4h23v1h-23zM143 4h45v1h-45zM13 5h12v1h-12zM42 5h6v1h-6zM52 5h23v1h-23zM85 5h23v1h-23zM112 5h24v1h-24zM143 5h46v1h-46zM12 6h10v1h-10zM45 6h4v1h-4zM52 6h5v1h-5zM71 6h5v1h-5zM85 6h5v1h-5zM103 6h6v1h-6zM112 6h5v1h-5zM130 6h7v1h-7zM143 6h6v1h-6zM185 6h5v1h-5zM11 7h9v1h-9zM46 7h4v1h-4zM52 7h5v1h-5zM71 7h6v1h-6zM85 7h5v1h-5zM103 7h7v1h-7zM112 7h5v1h-5zM130 7h8v1h-8zM143 7h6v1h-6zM185 7h6v1h-6zM10 8h8v1h-8zM46 8h5v1h-5zM52 8h5v1h-5zM71 8h7v1h-7zM85 8h5v1h-5zM103 8h8v1h-8zM112 8h5v1h-5zM130 8h9v1h-9zM143 8h6v1h-6zM185 8h7v1h-7zM9 9h8v1h-8zM46 9h11v1h-11zM71 9h8v1h-8zM85 9h5v1h-5zM103 9h14v1h-14zM130 9h10v1h-10zM143 9h6v1h-6zM185 9h8v1h-8zM8 10h8v1h-8zM46 10h11v1h-11zM71 10h9v1h-9zM85 10h5v1h-5zM103 10h14v1h-14zM130 10h11v1h-11zM143 10h6v1h-6zM185 10h9v1h-9zM7 11h7v1h-7zM46 11h11v1h-11zM71 11h10v1h-10zM85 11h5v1h-5zM103 11h14v1h-14zM130 11h12v1h-12zM143 11h6v1h-6zM185 11h10v1h-10zM6 12h7v1h-7zM46 12h11v1h-11zM71 12h11v1h-11zM85 12h5v1h-5zM103 12h14v1h-14zM130 12h19v1h-19zM185 12h11v1h-11zM5 13h7v1h-7zM46 13h11v1h-11zM71 13h13v1h-13zM85 13h5v1h-5zM103 13h14v1h-14zM130 13h19v1h-19zM185 13h12v1h-12zM4 14h8v1h-8zM46 14h11v1h-11zM71 14h19v1h-19zM103 14h14v1h-14zM130 14h19v1h-19zM185 14h13v1h-13zM4 15h7v1h-7zM46 15h11v1h-11zM71 15h19v1h-19zM103 15h14v1h-14zM130 15h19v1h-19zM185 15h14v1h-14zM3 16h7v1h-7zM46 16h11v1h-11zM71 16h19v1h-19zM103 16h14v1h-14zM130 16h19v1h-19zM185 16h15v1h-15zM3 17h7v1h-7zM32 17h4v1h-4zM46 17h11v1h-11zM71 17h19v1h-19zM103 17h14v1h-14zM130 17h30v1h-30zM174 17h27v1h-27zM2 18h7v1h-7zM29 18h11v1h-11zM46 18h11v1h-11zM71 18h19v1h-19zM103 18h14v1h-14zM130 18h30v1h-30zM173 18h29v1h-29zM2 19h6v1h-6zM27 19h15v1h-15zM46 19h11v1h-11zM71 19h19v1h-19zM103 19h14v1h-14zM130 19h30v1h-30zM173 19h30v1h-30zM2 20h6v1h-6zM25 20h18v1h-18zM46 20h11v1h-11zM71 20h19v1h-19zM103 20h14v1h-14zM130 20h30v1h-30zM173 20h31v1h-31zM1 21h7v1h-7zM24 21h21v1h-21zM46 21h11v1h-11zM71 21h19v1h-19zM103 21h14v1h-14zM130 21h30v1h-30zM173 21h32v1h-32zM1 22h6v1h-6zM23 22h34v1h-34zM71 22h19v1h-19zM103 22h14v1h-14zM130 22h30v1h-30zM173 22h33v1h-33zM1 23h6v1h-6zM22 23h35v1h-35zM71 23h19v1h-19zM103 23h14v1h-14zM130 23h30v1h-30zM173 23h34v1h-34zM1 24h5v1h-5zM22 24h35v1h-35zM71 24h19v1h-19zM103 24h14v1h-14zM130 24h30v1h-30zM173 24h35v1h-35zM1 25h5v1h-5zM21 25h36v1h-36zM71 25h19v1h-19zM103 25h14v1h-14zM130 25h30v1h-30zM173 25h36v1h-36zM1 26h5v1h-5zM21 26h36v1h-36zM71 26h19v1h-19zM103 26h14v1h-14zM130 26h30v1h-30zM173 26h37v1h-37zM1 27h5v1h-5zM20 27h37v1h-37zM71 27h19v1h-19zM103 27h14v1h-14zM130 27h30v1h-30zM173 27h38v1h-38zM0 28h6v1h-6zM20 28h37v1h-37zM71 28h19v1h-19zM103 28h14v1h-14zM130 28h30v1h-30zM173 28h39v1h-39zM0 29h5v1h-5zM20 29h37v1h-37zM71 29h19v1h-19zM103 29h14v1h-14zM130 29h30v1h-30zM173 29h39v1h-39zM0 30h5v1h-5zM20 30h37v1h-37zM71 30h19v1h-19zM103 30h14v1h-14zM130 30h30v1h-30zM173 30h39v1h-39zM0 31h5v1h-5zM20 31h37v1h-37zM71 31h19v1h-19zM103 31h14v1h-14zM130 31h30v1h-30zM173 31h39v1h-39zM0 32h5v1h-5zM20 32h37v1h-37zM71 32h19v1h-19zM103 32h14v1h-14zM130 32h30v1h-30zM173 32h39v1h-39zM0 33h5v1h-5zM20 33h37v1h-37zM71 33h19v1h-19zM103 33h14v1h-14zM130 33h30v1h-30zM173 33h39v1h-39zM1 34h4v1h-4zM20 34h37v1h-37zM71 34h19v1h-19zM103 34h14v1h-14zM130 34h30v1h-30zM173 34h39v1h-39zM1 35h5v1h-5zM20 35h37v1h-37zM71 35h19v1h-19zM103 35h14v1h-14zM130 35h30v1h-30zM173 35h39v1h-39zM1 36h5v1h-5zM20 36h37v1h-37zM71 36h19v1h-19zM103 36h14v1h-14zM130 36h30v1h-30zM173 36h39v1h-39zM1 37h5v1h-5zM20 37h37v1h-37zM71 37h19v1h-19zM103 37h14v1h-14zM130 37h30v1h-30zM173 37h39v1h-39zM1 38h5v1h-5zM21 38h36v1h-36zM71 38h19v1h-19zM103 38h14v1h-14zM130 38h30v1h-30zM173 38h39v1h-39zM1 39h5v1h-5zM21 39h36v1h-36zM71 39h19v1h-19zM103 39h14v1h-14zM130 39h30v1h-30zM173 39h39v1h-39zM2 40h5v1h-5zM22 40h35v1h-35zM71 40h19v1h-19zM103 40h14v1h-14zM130 40h30v1h-30zM173 40h39v1h-39zM2 41h5v1h-5zM22 41h35v1h-35zM71 41h18v1h-18zM103 41h14v1h-14zM130 41h30v1h-30zM173 41h39v1h-39zM2 42h5v1h-5zM23 42h35v1h-35zM72 42h17v1h-17zM103 42h14v1h-14zM130 42h30v1h-30zM173 42h39v1h-39zM3 43h5v1h-5zM24 43h21v1h-21zM46 43h12v1h-12zM72 43h17v1h-17zM103 43h14v1h-14zM130 43h30v1h-30zM173 43h39v1h-39zM3 44h5v1h-5zM25 44h18v1h-18zM46 44h12v1h-12zM72 44h17v1h-17zM103 44h14v1h-14zM130 44h30v1h-30zM173 44h39v1h-39zM3 45h6v1h-6zM27 45h15v1h-15zM46 45h12v1h-12zM73 45h15v1h-15zM103 45h14v1h-14zM130 45h30v1h-30zM173 45h38v1h-38zM4 46h5v1h-5zM29 46h11v1h-11zM46 46h12v1h-12zM73 46h14v1h-14zM102 46h15v1h-15zM130 46h30v1h-30zM173 46h28v1h-28zM4 47h6v1h-6zM33 47h3v1h-3zM46 47h13v1h-13zM74 47h12v1h-12zM102 47h15v1h-15zM131 47h29v1h-29zM173 47h28v1h-28zM5 48h5v1h-5zM46 48h13v1h-13zM77 48h6v1h-6zM102 48h15v1h-15zM147 48h13v1h-13zM173 48h28v1h-28zM6 49h5v1h-5zM46 49h13v1h-13zM101 49h16v1h-16zM147 49h13v1h-13zM173 49h28v1h-28zM6 50h6v1h-6zM46 50h14v1h-14zM101 50h16v1h-16zM147 50h13v1h-13zM173 50h28v1h-28zM7 51h6v1h-6zM46 51h14v1h-14zM100 51h17v1h-17zM147 51h13v1h-13zM173 51h28v1h-28zM8 52h6v1h-6zM46 52h15v1h-15zM100 52h17v1h-17zM147 52h13v1h-13zM173 52h28v1h-28zM8 53h7v1h-7zM46 53h15v1h-15zM99 53h18v1h-18zM147 53h13v1h-13zM173 53h28v1h-28zM9 54h7v1h-7zM46 54h16v1h-16zM98 54h19v1h-19zM147 54h13v1h-13zM173 54h28v1h-28zM10 55h7v1h-7zM46 55h17v1h-17zM97 55h20v1h-20zM147 55h13v1h-13zM173 55h28v1h-28zM11 56h8v1h-8zM46 56h18v1h-18zM96 56h21v1h-21zM147 56h13v1h-13zM173 56h28v1h-28zM12 57h8v1h-8zM46 57h20v1h-20zM95 57h22v1h-22zM147 57h13v1h-13zM173 57h28v1h-28zM13 58h9v1h-9zM45 58h23v1h-23zM93 58h24v1h-24zM147 58h13v1h-13zM173 58h28v1h-28zM14 59h11v1h-11zM42 59h28v1h-28zM91 59h110v1h-110zM15 60h13v1h-13zM38 60h36v1h-36zM86 60h115v1h-115zM17 61h184v1h-184zM18 62h183v1h-183zM19 63h182v1h-182zM20 64h181v1h-181zM21 65h180v1h-180zM22 66h179v1h-179zM23 67h178v1h-178zM24 68h177v1h-177zM25 69h176v1h-176zM26 70h175v1h-175zM23 71h178v1h-178zM19 72h206v1h-206zM265 72h19v1h-19zM306 72h18v1h-18zM17 73h223v1h-223zM243 73h19v1h-19zM265 73h20v1h-20zM305 73h21v1h-21zM328 73h38v1h-38zM15 74h227v1h-227zM243 74h20v1h-20zM265 74h21v1h-21zM305 74h22v1h-22zM328 74h39v1h-39zM13 75h13v1h-13zM41 75h223v1h-223zM266 75h21v1h-21zM304 75h64v1h-64zM12 76h11v1h-11zM44 76h13v1h-13zM85 76h24v1h-24zM139 76h28v1h-28zM182 76h21v1h-21zM239 76h9v1h-9zM261 76h4v1h-4zM266 76h3v1h-3zM284 76h4v1h-4zM304 76h6v1h-6zM325 76h8v1h-8zM363 76h6v1h-6zM11 77h10v1h-10zM46 77h11v1h-11zM87 77h22v1h-22zM139 77h27v1h-27zM182 77h21v1h-21zM239 77h9v1h-9zM261 77h9v1h-9zM285 77h4v1h-4zM303 77h7v1h-7zM324 77h9v1h-9zM363 77h7v1h-7zM10 78h9v1h-9zM46 78h11v1h-11zM89 78h20v1h-20zM139 78h27v1h-27zM183 78h20v1h-20zM239 78h9v1h-9zM261 78h9v1h-9zM285 78h5v1h-5zM303 78h6v1h-6zM324 78h9v1h-9zM363 78h8v1h-8zM9 79h8v1h-8zM46 79h11v1h-11zM91 79h18v1h-18zM139 79h26v1h-26zM183 79h20v1h-20zM239 79h9v1h-9zM261 79h10v1h-10zM285 79h6v1h-6zM303 79h6v1h-6zM323 79h10v1h-10zM363 79h9v1h-9zM8 80h8v1h-8zM46 80h11v1h-11zM92 80h17v1h-17zM139 80h26v1h-26zM183 80h20v1h-20zM239 80h9v1h-9zM261 80h10v1h-10zM286 80h6v1h-6zM302 80h6v1h-6zM323 80h10v1h-10zM363 80h10v1h-10zM7 81h8v1h-8zM46 81h11v1h-11zM93 81h16v1h-16zM139 81h26v1h-26zM184 81h19v1h-19zM239 81h9v1h-9zM261 81h10v1h-10zM286 81h7v1h-7zM302 81h6v1h-6zM323 81h10v1h-10zM363 81h11v1h-11zM6 82h8v1h-8zM46 82h11v1h-11zM93 82h16v1h-16zM139 82h25v1h-25zM184 82h19v1h-19zM239 82h9v1h-9zM261 82h11v1h-11zM287 82h7v1h-7zM301 82h7v1h-7zM322 82h11v1h-11zM363 82h11v1h-11zM5 83h8v1h-8zM46 83h11v1h-11zM94 83h15v1h-15zM139 83h25v1h-25zM185 83h18v1h-18zM239 83h9v1h-9zM261 83h11v1h-11zM287 83h8v1h-8zM301 83h6v1h-6zM322 83h11v1h-11zM363 83h12v1h-12zM5 84h7v1h-7zM46 84h11v1h-11zM94 84h15v1h-15zM139 84h25v1h-25zM185 84h18v1h-18zM239 84h9v1h-9zM261 84h12v1h-12zM287 84h9v1h-9zM301 84h6v1h-6zM321 84h12v1h-12zM363 84h13v1h-13zM4 85h7v1h-7zM46 85h11v1h-11zM95 85h14v1h-14zM139 85h24v1h-24zM185 85h18v1h-18zM239 85h9v1h-9zM261 85h12v1h-12zM288 85h9v1h-9zM300 85h6v1h-6zM321 85h12v1h-12zM363 85h14v1h-14zM4 86h6v1h-6zM46 86h11v1h-11zM71 86h4v1h-4zM95 86h14v1h-14zM139 86h24v1h-24zM186 86h17v1h-17zM239 86h9v1h-9zM261 86h13v1h-13zM288 86h10v1h-10zM300 86h6v1h-6zM320 86h13v1h-13zM363 86h15v1h-15zM3 87h7v1h-7zM46 87h11v1h-11zM71 87h8v1h-8zM95 87h14v1h-14zM139 87h23v1h-23zM186 87h17v1h-17zM239 87h9v1h-9zM261 87h13v1h-13zM288 87h18v1h-18zM320 87h13v1h-13zM362 87h17v1h-17zM3 88h6v1h-6zM30 88h9v1h-9zM46 88h11v1h-11zM71 88h9v1h-9zM96 88h13v1h-13zM123 88h39v1h-39zM187 88h27v1h-27zM228 88h20v1h-20zM261 88h13v1h-13zM289 88h16v1h-16zM320 88h13v1h-13zM346 88h34v1h-34zM2 89h7v1h-7zM27 89h14v1h-14zM46 89h11v1h-11zM71 89h10v1h-10zM96 89h13v1h-13zM123 89h39v1h-39zM187 89h27v1h-27zM228 89h20v1h-20zM261 89h14v1h-14zM289 89h16v1h-16zM319 89h14v1h-14zM346 89h35v1h-35zM2 90h6v1h-6zM26 90h17v1h-17zM46 90h11v1h-11zM71 90h11v1h-11zM96 90h13v1h-13zM123 90h38v1h-38zM187 90h27v1h-27zM228 90h20v1h-20zM261 90h14v1h-14zM290 90h14v1h-14zM319 90h14v1h-14zM346 90h36v1h-36zM2 91h6v1h-6zM24 91h20v1h-20zM46 91h11v1h-11zM71 91h11v1h-11zM96 91h13v1h-13zM123 91h38v1h-38zM188 91h26v1h-26zM228 91h20v1h-20zM261 91h15v1h-15zM290 91h14v1h-14zM318 91h15v1h-15zM346 91h37v1h-37zM1 92h6v1h-6zM23 92h22v1h-22zM46 92h11v1h-11zM71 92h11v1h-11zM96 92h13v1h-13zM123 92h38v1h-38zM174 92h1v1h-1zM188 92h26v1h-26zM228 92h20v1h-20zM261 92h15v1h-15zM290 92h14v1h-14zM318 92h15v1h-15zM346 92h38v1h-38zM1 93h6v1h-6zM23 93h34v1h-34zM71 93h11v1h-11zM96 93h13v1h-13zM123 93h37v1h-37zM173 93h2v1h-2zM188 93h26v1h-26zM228 93h20v1h-20zM261 93h15v1h-15zM291 93h12v1h-12zM318 93h15v1h-15zM346 93h39v1h-39zM1 94h6v1h-6zM22 94h35v1h-35zM71 94h11v1h-11zM96 94h13v1h-13zM123 94h37v1h-37zM173 94h2v1h-2zM189 94h25v1h-25zM228 94h20v1h-20zM261 94h16v1h-16zM291 94h12v1h-12zM317 94h16v1h-16zM346 94h40v1h-40zM1 95h5v1h-5zM21 95h36v1h-36zM71 95h11v1h-11zM96 95h13v1h-13zM123 95h36v1h-36zM173 95h3v1h-3zM189 95h25v1h-25zM228 95h20v1h-20zM261 95h16v1h-16zM292 95h10v1h-10zM317 95h16v1h-16zM346 95h41v1h-41zM1 96h5v1h-5zM21 96h36v1h-36zM71 96h11v1h-11zM96 96h13v1h-13zM123 96h36v1h-36zM172 96h4v1h-4zM190 96h24v1h-24zM228 96h20v1h-20zM261 96h17v1h-17zM292 96h10v1h-10zM316 96h17v1h-17zM347 96h41v1h-41zM0 97h6v1h-6zM21 97h36v1h-36zM71 97h10v1h-10zM96 97h13v1h-13zM138 97h21v1h-21zM172 97h4v1h-4zM190 97h24v1h-24zM228 97h20v1h-20zM261 97h17v1h-17zM292 97h10v1h-10zM316 97h17v1h-17zM362 97h27v1h-27zM0 98h6v1h-6zM20 98h37v1h-37zM71 98h9v1h-9zM95 98h14v1h-14zM138 98h20v1h-20zM172 98h5v1h-5zM190 98h24v1h-24zM228 98h20v1h-20zM261 98h18v1h-18zM293 98h8v1h-8zM315 98h18v1h-18zM362 98h28v1h-28zM0 99h6v1h-6zM20 99h37v1h-37zM71 99h7v1h-7zM95 99h14v1h-14zM138 99h20v1h-20zM171 99h6v1h-6zM191 99h23v1h-23zM228 99h20v1h-20zM261 99h18v1h-18zM293 99h8v1h-8zM315 99h18v1h-18zM362 99h29v1h-29zM0 100h5v1h-5zM20 100h37v1h-37zM94 100h15v1h-15zM138 100h20v1h-20zM171 100h6v1h-6zM191 100h23v1h-23zM228 100h20v1h-20zM261 100h18v1h-18zM294 100h6v1h-6zM315 100h18v1h-18zM362 100h30v1h-30zM0 101h5v1h-5zM20 101h37v1h-37zM94 101h15v1h-15zM138 101h19v1h-19zM171 101h7v1h-7zM191 101h23v1h-23zM228 101h20v1h-20zM261 101h19v1h-19zM294 101h6v1h-6zM314 101h19v1h-19zM362 101h30v1h-30zM0 102h5v1h-5zM20 102h37v1h-37zM93 102h16v1h-16zM138 102h19v1h-19zM170 102h8v1h-8zM192 102h22v1h-22zM228 102h20v1h-20zM261 102h19v1h-19zM294 102h6v1h-6zM314 102h19v1h-19zM362 102h30v1h-30zM0 103h5v1h-5zM20 103h37v1h-37zM92 103h17v1h-17zM138 103h18v1h-18zM170 103h9v1h-9zM192 103h22v1h-22zM228 103h20v1h-20zM261 103h20v1h-20zM295 103h4v1h-4zM313 103h20v1h-20zM362 103h30v1h-30zM0 104h5v1h-5zM20 104h37v1h-37zM91 104h18v1h-18zM138 104h18v1h-18zM170 104h9v1h-9zM193 104h21v1h-21zM228 104h20v1h-20zM261 104h20v1h-20zM295 104h4v1h-4zM313 104h20v1h-20zM362 104h30v1h-30zM0 105h6v1h-6zM20 105h37v1h-37zM89 105h20v1h-20zM138 105h18v1h-18zM169 105h10v1h-10zM193 105h21v1h-21zM228 105h20v1h-20zM261 105h20v1h-20zM296 105h2v1h-2zM313 105h20v1h-20zM362 105h30v1h-30zM0 106h6v1h-6zM20 106h37v1h-37zM88 106h21v1h-21zM138 106h17v1h-17zM169 106h11v1h-11zM193 106h21v1h-21zM228 106h20v1h-20zM261 106h21v1h-21zM296 106h2v1h-2zM312 106h21v1h-21zM362 106h30v1h-30zM0 107h6v1h-6zM20 107h37v1h-37zM86 107h23v1h-23zM138 107h17v1h-17zM169 107h11v1h-11zM194 107h20v1h-20zM228 107h20v1h-20zM261 107h21v1h-21zM296 107h2v1h-2zM312 107h21v1h-21zM362 107h30v1h-30zM0 108h6v1h-6zM21 108h36v1h-36zM85 108h24v1h-24zM123 108h32v1h-32zM168 108h12v1h-12zM194 108h20v1h-20zM228 108h20v1h-20zM261 108h22v1h-22zM311 108h22v1h-22zM347 108h45v1h-45zM0 109h6v1h-6zM21 109h36v1h-36zM86 109h23v1h-23zM123 109h31v1h-31zM168 109h12v1h-12zM194 109h20v1h-20zM228 109h20v1h-20zM261 109h22v1h-22zM311 109h22v1h-22zM346 109h46v1h-46zM0 110h6v1h-6zM22 110h35v1h-35zM71 110h1v1h-1zM87 110h22v1h-22zM123 110h31v1h-31zM195 110h19v1h-19zM228 110h20v1h-20zM261 110h23v1h-23zM310 110h23v1h-23zM346 110h46v1h-46zM1 111h6v1h-6zM22 111h35v1h-35zM71 111h2v1h-2zM87 111h22v1h-22zM123 111h30v1h-30zM195 111h19v1h-19zM228 111h20v1h-20zM261 111h23v1h-23zM310 111h23v1h-23zM346 111h46v1h-46zM1 112h6v1h-6zM23 112h34v1h-34zM71 112h2v1h-2zM88 112h21v1h-21zM123 112h30v1h-30zM196 112h18v1h-18zM228 112h20v1h-20zM261 112h23v1h-23zM310 112h23v1h-23zM346 112h46v1h-46zM1 113h6v1h-6zM24 113h21v1h-21zM46 113h11v1h-11zM71 113h3v1h-3zM89 113h20v1h-20zM123 113h30v1h-30zM196 113h18v1h-18zM228 113h20v1h-20zM261 113h24v1h-24zM309 113h24v1h-24zM346 113h46v1h-46zM2 114h6v1h-6zM25 114h18v1h-18zM46 114h11v1h-11zM71 114h3v1h-3zM90 114h19v1h-19zM123 114h29v1h-29zM196 114h18v1h-18zM228 114h20v1h-20zM261 114h24v1h-24zM309 114h24v1h-24zM346 114h46v1h-46zM2 115h6v1h-6zM26 115h16v1h-16zM46 115h11v1h-11zM71 115h4v1h-4zM90 115h19v1h-19zM123 115h29v1h-29zM197 115h17v1h-17zM228 115h20v1h-20zM261 115h25v1h-25zM308 115h25v1h-25zM346 115h32v1h-32zM385 115h7v1h-7zM3 116h6v1h-6zM28 116h11v1h-11zM46 116h11v1h-11zM71 116h5v1h-5zM91 116h18v1h-18zM123 116h29v1h-29zM197 116h17v1h-17zM228 116h20v1h-20zM261 116h25v1h-25zM308 116h25v1h-25zM346 116h30v1h-30zM386 116h6v1h-6zM4 117h5v1h-5zM31 117h5v1h-5zM46 117h11v1h-11zM71 117h5v1h-5zM92 117h17v1h-17zM123 117h28v1h-28zM197 117h17v1h-17zM228 117h20v1h-20zM261 117h25v1h-25zM308 117h25v1h-25zM346 117h29v1h-29zM387 117h5v1h-5zM4 118h6v1h-6zM46 118h11v1h-11zM71 118h6v1h-6zM93 118h16v1h-16zM139 118h12v1h-12zM198 118h16v1h-16zM228 118h20v1h-20zM261 118h26v1h-26zM307 118h26v1h-26zM363 118h12v1h-12zM388 118h4v1h-4zM5 119h6v1h-6zM46 119h11v1h-11zM71 119h7v1h-7zM93 119h16v1h-16zM139 119h11v1h-11zM198 119h16v1h-16zM228 119h20v1h-20zM261 119h26v1h-26zM307 119h26v1h-26zM363 119h11v1h-11zM389 119h3v1h-3zM6 120h6v1h-6zM46 120h11v1h-11zM71 120h7v1h-7zM94 120h15v1h-15zM139 120h11v1h-11zM199 120h15v1h-15zM228 120h20v1h-20zM261 120h27v1h-27zM306 120h27v1h-27zM363 120h11v1h-11zM389 120h3v1h-3zM7 121h5v1h-5zM46 121h11v1h-11zM71 121h8v1h-8zM95 121h14v1h-14zM139 121h11v1h-11zM164 121h21v1h-21zM199 121h15v1h-15zM228 121h20v1h-20zM261 121h27v1h-27zM306 121h27v1h-27zM363 121h10v1h-10zM389 121h3v1h-3zM7 122h6v1h-6zM46 122h11v1h-11zM71 122h9v1h-9zM96 122h13v1h-13zM139 122h10v1h-10zM164 122h21v1h-21zM199 122h15v1h-15zM228 122h20v1h-20zM261 122h28v1h-28zM305 122h28v1h-28zM363 122h10v1h-10zM389 122h3v1h-3zM8 123h6v1h-6zM46 123h11v1h-11zM71 123h9v1h-9zM96 123h13v1h-13zM139 123h10v1h-10zM163 123h22v1h-22zM200 123h14v1h-14zM228 123h20v1h-20zM261 123h28v1h-28zM305 123h28v1h-28zM363 123h10v1h-10zM389 123h3v1h-3zM9 124h6v1h-6zM46 124h11v1h-11zM71 124h10v1h-10zM97 124h12v1h-12zM139 124h10v1h-10zM163 124h23v1h-23zM200 124h14v1h-14zM228 124h20v1h-20zM261 124h28v1h-28zM305 124h28v1h-28zM363 124h10v1h-10zM389 124h3v1h-3zM10 125h7v1h-7zM46 125h11v1h-11zM71 125h11v1h-11zM98 125h11v1h-11zM139 125h9v1h-9zM162 125h24v1h-24zM200 125h14v1h-14zM228 125h20v1h-20zM261 125h29v1h-29zM304 125h29v1h-29zM363 125h11v1h-11zM389 125h3v1h-3zM11 126h7v1h-7zM46 126h11v1h-11zM71 126h11v1h-11zM99 126h10v1h-10zM139 126h9v1h-9zM162 126h24v1h-24zM201 126h13v1h-13zM228 126h20v1h-20zM261 126h29v1h-29zM304 126h29v1h-29zM363 126h11v1h-11zM389 126h3v1h-3zM12 127h8v1h-8zM46 127h11v1h-11zM71 127h12v1h-12zM99 127h10v1h-10zM139 127h8v1h-8zM162 127h25v1h-25zM201 127h13v1h-13zM228 127h20v1h-20zM261 127h30v1h-30zM303 127h30v1h-30zM363 127h11v1h-11zM388 127h4v1h-4zM13 128h9v1h-9zM46 128h11v1h-11zM71 128h12v1h-12zM100 128h9v1h-9zM139 128h8v1h-8zM161 128h26v1h-26zM202 128h12v1h-12zM228 128h20v1h-20zM261 128h30v1h-30zM303 128h30v1h-30zM363 128h12v1h-12zM387 128h5v1h-5zM14 129h10v1h-10zM43 129h15v1h-15zM70 129h14v1h-14zM101 129h9v1h-9zM139 129h8v1h-8zM161 129h27v1h-27zM202 129h13v1h-13zM228 129h20v1h-20zM261 129h30v1h-30zM302 129h31v1h-31zM363 129h13v1h-13zM386 129h6v1h-6zM15 130h12v1h-12zM40 130h338v1h-338zM385 130h7v1h-7zM16 131h376v1h-376zM17 132h272v1h-272zM290 132h102v1h-102zM18 133h271v1h-271zM291 133h101v1h-101zM19 134h270v1h-270zM292 134h100v1h-100zM21 135h268v1h-268zM293 135h99v1h-99zM22 136h267v1h-267zM294 136h98v1h-98zM23 137h266v1h-266zM295 137h97v1h-97zM25 138h264v1h-264zM296 138h96v1h-96zM26 139h263v1h-263zM297 139h41v1h-41zM339 139h53v1h-53zM27 140h262v1h-262zM298 140h39v1h-39zM340 140h52v1h-52zM28 141h261v1h-261zM299 141h38v1h-38zM341 141h51v1h-51zM29 142h226v1h-226zM257 142h32v1h-32zM300 142h36v1h-36zM342 142h50v1h-50zM31 143h224v1h-224zM257 143h32v1h-32zM301 143h35v1h-35zM343 143h49v1h-49zM32 144h192v1h-192zM225 144h30v1h-30zM258 144h31v1h-31zM302 144h33v1h-33zM344 144h48v1h-48zM33 145h191v1h-191zM226 145h29v1h-29zM259 145h30v1h-30zM303 145h32v1h-32zM345 145h47v1h-47zM34 146h191v1h-191zM227 146h28v1h-28zM260 146h29v1h-29zM304 146h31v1h-31zM345 146h47v1h-47zM35 147h190v1h-190zM228 147h27v1h-27zM261 147h28v1h-28zM305 147h29v1h-29zM346 147h46v1h-46zM36 148h62v1h-62zM99 148h127v1h-127zM229 148h26v1h-26zM262 148h27v1h-27zM306 148h28v1h-28zM347 148h45v1h-45zM38 149h60v1h-60zM100 149h126v1h-126zM230 149h25v1h-25zM263 149h26v1h-26zM307 149h26v1h-26zM348 149h44v1h-44zM39 150h34v1h-34zM74 150h24v1h-24zM101 150h90v1h-90zM200 150h26v1h-26zM230 150h25v1h-25zM264 150h25v1h-25zM308 150h25v1h-25zM349 150h43v1h-43zM40 151h33v1h-33zM75 151h23v1h-23zM102 151h89v1h-89zM201 151h26v1h-26zM231 151h24v1h-24zM265 151h24v1h-24zM309 151h23v1h-23zM350 151h42v1h-42zM41 152h32v1h-32zM76 152h22v1h-22zM103 152h87v1h-87zM202 152h25v1h-25zM232 152h23v1h-23zM266 152h23v1h-23zM310 152h22v1h-22zM351 152h41v1h-41zM42 153h31v1h-31zM77 153h21v1h-21zM104 153h86v1h-86zM203 153h25v1h-25zM233 153h22v1h-22zM267 153h22v1h-22zM311 153h21v1h-21zM352 153h40v1h-40zM43 154h30v1h-30zM78 154h20v1h-20zM105 154h62v1h-62zM168 154h22v1h-22zM204 154h24v1h-24zM234 154h21v1h-21zM268 154h21v1h-21zM312 154h19v1h-19zM353 154h39v1h-39zM45 155h28v1h-28zM78 155h20v1h-20zM106 155h61v1h-61zM168 155h22v1h-22zM205 155h23v1h-23zM235 155h20v1h-20zM269 155h20v1h-20zM313 155h18v1h-18zM354 155h38v1h-38zM46 156h27v1h-27zM79 156h19v1h-19zM107 156h60v1h-60zM169 156h20v1h-20zM206 156h23v1h-23zM236 156h19v1h-19zM270 156h19v1h-19zM314 156h16v1h-16zM355 156h37v1h-37zM48 157h24v1h-24zM80 157h18v1h-18zM108 157h59v1h-59zM170 157h19v1h-19zM207 157h22v1h-22zM237 157h18v1h-18zM271 157h18v1h-18zM315 157h15v1h-15zM356 157h36v1h-36zM51 158h19v1h-19zM82 158h15v1h-15zM171 158h17v1h-17zM208 158h21v1h-21zM273 158h15v1h-15zM316 158h13v1h-13zM358 158h34v1h-34zM55 159h12v1h-12z"></path>
</svg>