<svg width="20" height="20" viewBox="0 0 20 20" fill="none" xmlns="http://www.w3.org/2000/svg">
<path d="M1.66663 13.3335C1.20639 13.3335 0.833293 13.7066 0.833293 14.1668C0.833293 14.6271 1.20639 15.0002 1.66663 15.0002V13.3335ZM18.3333 15.0002C18.7935 15.0002 19.1666 14.6271 19.1666 14.1668C19.1666 13.7066 18.7935 13.3335 18.3333 13.3335V15.0002ZM2.25588 8.57757C1.93044 8.25214 1.40281 8.25214 1.07737 8.57757C0.751933 8.90301 0.751933 9.43065 1.07737 9.75608L2.25588 8.57757ZM3.57737 12.2561C3.90281 12.5815 4.43044 12.5815 4.75588 12.2561C5.08132 11.9306 5.08132 11.403 4.75588 11.0776L3.57737 12.2561ZM4.75588 9.75608C5.08132 9.43065 5.08132 8.90301 4.75588 8.57757C4.43044 8.25214 3.90281 8.25214 3.57737 8.57757L4.75588 9.75608ZM1.07737 11.0776C0.751933 11.403 0.751933 11.9306 1.07737 12.2561C1.40281 12.5815 1.93044 12.5815 2.25588 12.2561L1.07737 11.0776ZM14.0541 11.6098L14.8264 11.2966L14.8264 11.2966L14.0541 11.6098ZM16.3888 9.52987L15.9957 10.2647L15.9957 10.2647L16.3888 9.52987ZM17.167 11.6668L17.167 10.8335L17.167 10.8335L17.167 11.6668ZM18.3333 12.5002C18.7935 12.5002 19.1666 12.1271 19.1666 11.6668C19.1666 11.2066 18.7935 10.8335 18.3333 10.8335V12.5002ZM11.3304 6.61799L12.1426 6.4314L12.1426 6.4314L11.3304 6.61799ZM8.60667 16.6016L8.44212 15.7846L8.44212 15.7846L8.60667 16.6016ZM8.92423 12.3049C9.30812 12.5587 9.82512 12.4533 10.079 12.0694C10.3329 11.6856 10.2275 11.1686 9.84357 10.9147L8.92423 12.3049ZM7.05025 3.70612L6.58153 3.0171L7.05025 3.70612ZM7.82846 11.6098L8.478 12.1318L8.478 12.1318L7.82846 11.6098ZM1.66663 15.0002H18.3333V13.3335H1.66663V15.0002ZM1.07737 9.75608L2.32737 11.0061L3.50588 9.82757L2.25588 8.57757L1.07737 9.75608ZM2.32737 11.0061L3.57737 12.2561L4.75588 11.0776L3.50588 9.82757L2.32737 11.0061ZM3.57737 8.57757L2.32737 9.82757L3.50588 11.0061L4.75588 9.75608L3.57737 8.57757ZM2.32737 9.82757L1.07737 11.0776L2.25588 12.2561L3.50588 11.0061L2.32737 9.82757ZM13.2819 11.923C13.3799 12.1645 13.5626 12.5309 13.9352 12.7227C14.4317 12.9783 14.8805 12.7648 15.1101 12.5841C15.3207 12.4184 15.4791 12.1934 15.5888 12.0202C15.7079 11.8321 15.8216 11.6194 15.9241 11.4204C16.1474 10.987 16.3166 10.6292 16.4857 10.374C16.5724 10.2431 16.6043 10.2271 16.5747 10.2481C16.511 10.2932 16.2659 10.4092 15.9957 10.2647L16.7818 8.79505C16.3172 8.54654 15.8745 8.70157 15.6111 8.88823C15.3819 9.05067 15.2121 9.27863 15.0963 9.45344C14.8603 9.80957 14.6212 10.3102 14.4425 10.6571C14.344 10.8482 14.2583 11.0061 14.1808 11.1284C14.0939 11.2656 14.0586 11.2908 14.0793 11.2744C14.1191 11.2431 14.3821 11.0782 14.698 11.2408C14.89 11.3397 14.8974 11.4717 14.8264 11.2966L13.2819 11.923ZM15.9957 10.2647C15.8455 10.1843 15.8501 10.0553 15.8676 10.1629C15.8876 10.2853 15.8821 10.4421 15.8753 10.7253C15.8704 10.9337 15.857 11.3228 15.9739 11.6606C16.041 11.8543 16.1669 12.0847 16.4039 12.2604C16.6443 12.4387 16.9172 12.5002 17.167 12.5002L17.167 10.8335C17.1875 10.8335 17.287 10.8404 17.3967 10.9217C17.5028 11.0005 17.5406 11.0914 17.5489 11.1154C17.5548 11.1325 17.547 11.1175 17.5425 11.0434C17.5382 10.9724 17.5387 10.8849 17.5415 10.765C17.5463 10.5629 17.5639 10.2099 17.5126 9.89495C17.4589 9.56518 17.298 9.07115 16.7818 8.79505L15.9957 10.2647ZM17.167 12.5002H18.3333V10.8335H17.167V12.5002ZM10.5182 6.80459C10.6553 7.40119 10.7555 8.21317 10.7844 9.12216L12.4502 9.06926C12.4188 8.08148 12.3095 7.15816 12.1426 6.4314L10.5182 6.80459ZM10.7844 9.12216C10.8315 10.6063 10.6857 12.2574 10.2626 13.5656C9.82607 14.9149 9.19182 15.6336 8.44212 15.7846L8.77121 17.4185C10.4395 17.0825 11.3595 15.5897 11.8483 14.0786C12.3504 12.5263 12.501 10.668 12.4502 9.06926L10.7844 9.12216ZM9.84357 10.9147C9.61119 10.761 9.33631 10.54 9.043 10.261L7.89436 11.4687C8.24071 11.7981 8.59191 12.0851 8.92423 12.3049L9.84357 10.9147ZM9.043 10.261C8.15766 9.41897 7.24576 8.18574 6.85757 7.01397C6.66556 6.4344 6.61967 5.92471 6.71414 5.50455C6.80341 5.10754 7.03081 4.72722 7.51897 4.39514L6.58153 3.0171C5.76139 3.57501 5.27471 4.30887 5.08807 5.13894C4.90664 5.94586 5.02303 6.77613 5.27546 7.5381C5.77614 9.04941 6.88175 10.5056 7.89436 11.4687L9.043 10.261ZM7.51897 4.39514C7.81708 4.19234 8.08325 4.14526 8.32584 4.17493C8.5847 4.20659 8.87684 4.3345 9.18026 4.57849C9.7997 5.0766 10.3207 5.94482 10.5182 6.80459L12.1426 6.4314C11.8714 5.25111 11.1695 4.03945 10.2247 3.27966C9.74595 2.8947 9.17059 2.59916 8.52817 2.52059C7.86949 2.44003 7.20062 2.59595 6.58153 3.0171L7.51897 4.39514ZM8.44212 15.7846C7.80475 15.913 7.62949 15.7564 7.59106 15.7165C7.5133 15.6357 7.40642 15.4116 7.42868 14.9291C7.44975 14.4723 7.5829 13.9256 7.78887 13.3968C7.99536 12.8665 8.25202 12.413 8.478 12.1318L7.17891 11.0877C6.81873 11.5359 6.48569 12.1503 6.23581 12.7919C5.98541 13.4349 5.79552 14.1641 5.76378 14.8523C5.73322 15.5147 5.84375 16.3047 6.39051 16.8725C6.97659 17.4811 7.83296 17.6075 8.77121 17.4185L8.44212 15.7846ZM8.478 12.1318C8.68459 11.8748 8.88539 11.6414 9.08022 11.431L7.85715 10.2988C7.63317 10.5407 7.40709 10.8038 7.17891 11.0877L8.478 12.1318ZM9.08022 11.431C10.2239 10.1955 11.0368 9.87926 11.5411 9.92555L11.6935 8.26587C10.3737 8.14472 9.07846 8.97943 7.85715 10.2988L9.08022 11.431ZM11.5411 9.92555C12.0304 9.97047 12.6723 10.42 13.2819 11.923L14.8264 11.2966C14.164 9.66349 13.1699 8.4014 11.6935 8.26587L11.5411 9.92555Z" fill="#8A5AFE"/>
</svg>
