<svg width="20" height="20" viewBox="0 0 20 20" fill="none" xmlns="http://www.w3.org/2000/svg">
<path d="M5.49224 10.8333C5.88412 12.9668 7.75328 14.5833 10 14.5833C12.2467 14.5833 14.1159 12.9668 14.5078 10.8333M7.83333 7.5H8M12 7.5H12.1667M17.5 10C17.5 14.1421 14.1421 17.5 10 17.5C5.85786 17.5 2.5 14.1421 2.5 10C2.5 5.85786 5.85786 2.5 10 2.5C14.1421 2.5 17.5 5.85786 17.5 10ZM8.33333 7.5C8.33333 7.73012 8.14679 7.91667 7.91667 7.91667C7.68655 7.91667 7.5 7.73012 7.5 7.5C7.5 7.26988 7.68655 7.08333 7.91667 7.08333C8.14679 7.08333 8.33333 7.26988 8.33333 7.5ZM12.5 7.5C12.5 7.73012 12.3135 7.91667 12.0833 7.91667C11.8532 7.91667 11.6667 7.73012 11.6667 7.5C11.6667 7.26988 11.8532 7.08333 12.0833 7.08333C12.3135 7.08333 12.5 7.26988 12.5 7.5Z" stroke="#1340FF" stroke-width="1.66667" stroke-linecap="round" stroke-linejoin="round"/>
</svg>
