<?xml version="1.0" encoding="UTF-8"?>
<svg version="1.1" xmlns="http://www.w3.org/2000/svg" width="512" height="512">
<path d="M0 0 C1.23416159 -0.00445784 2.46832318 -0.00891569 3.7398836 -0.01350862 C5.11685353 -0.01341932 6.49382344 -0.01322946 7.87079334 -0.01294994 C9.32786129 -0.01624858 10.78492833 -0.01997414 12.2419942 -0.02409142 C16.25592976 -0.03411963 20.26985036 -0.03782953 24.28379667 -0.04048073 C28.6090972 -0.04438135 32.93438587 -0.05395985 37.25967884 -0.0626936 C47.7101678 -0.08246479 58.16065774 -0.09252501 68.61116073 -0.10142139 C73.53084372 -0.10580318 78.45052564 -0.11117027 83.37020779 -0.11641026 C99.72152165 -0.13342313 116.07283483 -0.14791774 132.42415619 -0.155159 C136.66831621 -0.15706893 140.91247623 -0.15898926 145.15663624 -0.16094494 C146.7389602 -0.16167055 146.7389602 -0.16167055 148.3532503 -0.16241082 C165.4451845 -0.17071275 182.53704876 -0.19605217 199.62895241 -0.22852562 C217.17139993 -0.26158371 234.71381189 -0.27960662 252.25629073 -0.28280324 C262.10795542 -0.28496948 271.9595181 -0.29373491 281.81115246 -0.31926441 C290.20056511 -0.34095432 298.58985097 -0.34903025 306.97928848 -0.33929763 C311.25978778 -0.33474797 315.5400254 -0.3366777 319.82048893 -0.35605907 C323.74074993 -0.37365621 327.66055769 -0.37272134 331.58082328 -0.35716178 C332.99742658 -0.35478044 334.41406097 -0.35913661 335.83061668 -0.37099043 C343.69489716 -0.43271178 349.44059212 -0.20485871 356.12465382 4.13422108 C358.18324757 6.16937733 358.18324757 6.16937733 359.56215382 8.19672108 C360.03523975 8.86832264 360.50832569 9.5399242 360.99574757 10.23187733 C363.028916 13.65801236 363.25148342 16.4594501 363.25887489 20.3536377 C363.26333274 21.44149667 363.26779058 22.52935564 363.27238351 23.65018004 C363.27210697 25.44985062 363.27210697 25.44985062 363.27182484 27.28587818 C363.27550152 28.55686527 363.27917821 29.82785235 363.28296632 31.1373542 C363.29299002 34.67242384 363.2967037 38.20747651 363.29935563 41.74255836 C363.30325759 45.55251753 363.312836 49.36246324 363.32156849 53.17241383 C363.34133604 62.37706252 363.35139951 71.58171231 363.36029628 80.78637692 C363.36467873 85.1202956 363.37004566 89.45421305 363.37528515 93.78813076 C363.39229778 108.19387241 363.40679213 122.59961331 363.41403389 137.00536346 C363.41594381 140.74419817 363.41786413 144.48303288 363.41981983 148.22186756 C363.42030357 149.15114438 363.42078731 150.0804212 363.42128571 151.03785793 C363.4295867 166.09284084 363.45492462 181.14774431 363.48740051 196.20269253 C363.52046601 211.65687733 363.53848219 227.11102175 363.54167813 242.56524211 C363.54384371 251.24319433 363.55259932 259.92103072 363.57813931 268.59894848 C363.59983936 275.98924573 363.60790017 283.37939901 363.59817252 290.76972451 C363.59362576 294.5398701 363.59553557 298.30971859 363.61493397 302.07982349 C363.63579377 306.1693069 363.62558706 310.25813058 363.61240101 314.34764576 C363.62885488 316.13058593 363.62885488 316.13058593 363.64564115 317.94954509 C363.58562965 325.64880433 362.65841988 331.28865213 357.26527882 337.15765858 C356.64137257 337.6036742 356.01746632 338.04968983 355.37465382 338.50922108 C354.45426319 339.20144764 354.45426319 339.20144764 353.51527882 339.90765858 C346.97013069 343.26579013 340.34792261 343.39676523 333.16713428 343.26263905 C331.17086822 343.2435215 329.1746015 343.22447146 327.17833424 343.20547962 C326.13012375 343.19182236 325.08191326 343.17816509 324.00193882 343.16409397 C318.40239471 343.09936553 312.80263628 343.09502004 307.20277882 343.07953358 C300.09891044 343.0560075 292.99640468 343.01511566 285.8932085 342.91156483 C280.13214154 342.8291611 274.3734125 342.80614004 268.61180973 342.8213892 C266.42942941 342.81645323 264.24697999 342.79023821 262.06514072 342.741395 C246.79695927 342.40047979 246.79695927 342.40047979 234.0235796 349.93158436 C232.471099 351.47076301 230.97813223 353.04074181 229.51229191 354.66242313 C227.38897902 356.91451434 224.99078143 358.78632715 222.56215382 360.69672108 C218.51755007 363.97998765 214.52944154 367.321092 210.56215382 370.69672108 C205.16337321 375.28123093 199.69382601 379.75725191 194.12465382 384.13422108 C193.02563481 385.01565585 191.92668024 385.89717096 190.82777882 386.77875233 C189.6771862 387.68947619 188.52614869 388.59963827 187.37465382 389.50922108 C186.84356007 389.93855946 186.31246632 390.36789783 185.76527882 390.81024647 C180.03517374 395.29315836 174.37364809 397.00973668 167.12465382 396.13422108 C161.06195933 394.5847025 156.86502901 391.6888236 152.31215382 387.50922108 C151.08782327 386.42223531 149.86255353 385.33630654 148.63637257 384.25140858 C148.04002003 383.7187035 147.44366749 383.18599842 146.82924366 382.63715076 C144.48204945 380.56763951 142.06021987 378.5985033 139.62465382 376.63422108 C135.39672135 373.20213472 131.24953121 369.68853594 127.12465382 366.13422108 C121.20337224 361.03643432 115.2307307 356.01054261 109.12465382 351.13422108 C108.64739857 350.56627323 108.17014332 349.99832539 107.67842579 349.413167 C102.40256521 343.98020543 97.20066077 343.45833518 89.99013233 343.29535389 C85.82660938 343.25013667 81.66690692 343.29058013 77.50356007 343.33734608 C75.2759291 343.33557668 73.04829842 343.3302912 70.82068348 343.32166004 C64.97006325 343.30643569 59.12030897 343.33019715 53.26979542 343.36487293 C43.91100215 343.41541533 34.55224762 343.41365237 25.19336224 343.39846516 C21.93726366 343.39982162 18.68180915 343.42211357 15.42581654 343.44702625 C13.41340193 343.45047297 11.40098621 343.45333152 9.38856983 343.45551014 C8.4942374 343.46794254 7.59990498 343.48037495 6.67847157 343.49318409 C-0.60621009 343.4724407 -8.26032798 342.41633041 -14.25034618 337.94672108 C-21.07732485 330.63210108 -21.45558281 323.98508585 -21.38328075 314.38129139 C-21.38952072 313.10603218 -21.39576068 311.83077297 -21.40218973 310.51686954 C-21.41883304 306.99295357 -21.41065984 303.46947288 -21.39824486 299.94555569 C-21.38917603 296.13907062 -21.40317315 292.33265918 -21.41416454 288.52618885 C-21.43193486 281.07556896 -21.42811645 273.62511042 -21.41651398 266.17448425 C-21.40747406 260.11828445 -21.40625807 254.0621298 -21.41060925 248.00592518 C-21.41122218 247.14340617 -21.41183511 246.28088717 -21.41246662 245.39223123 C-21.41374554 243.63994533 -21.41504239 241.88765946 -21.41635698 240.13537359 C-21.42775842 223.71086611 -21.41465592 207.28644799 -21.39315552 190.86195517 C-21.37528492 176.77428031 -21.37838915 162.6867373 -21.39683056 148.59906483 C-21.41824498 132.23263726 -21.42665982 115.86628798 -21.4143815 99.49984837 C-21.41310733 97.75407125 -21.41184985 96.00829412 -21.41060925 94.26251698 C-21.40999214 93.40360017 -21.40937504 92.54468337 -21.40873924 91.65973878 C-21.40528805 85.61202917 -21.41110969 79.56436928 -21.42052746 73.51666737 C-21.43175517 66.14476553 -21.4286912 58.77303402 -21.40740448 51.40115166 C-21.39690438 47.6411149 -21.39275425 43.88136195 -21.40600109 40.1213274 C-21.42015174 36.04302229 -21.40323616 31.96543148 -21.38328075 27.88715076 C-21.39220364 26.70193459 -21.40112653 25.51671841 -21.41031981 24.29558659 C-21.33731209 16.61185605 -20.46848858 10.76874323 -14.84018993 5.07562733 C-14.1711665 4.62058826 -13.50214306 4.1655492 -12.81284618 3.69672108 C-12.14124462 3.22363514 -11.46964306 2.7505492 -10.77768993 2.26312733 C-7.14120206 0.10512939 -4.13661217 0.0069153 0 0 Z M22.12465382 43.13422108 C22.12465382 127.61422108 22.12465382 212.09422108 22.12465382 299.13422108 C66.67465382 299.62922108 66.67465382 299.62922108 112.12465382 300.13422108 C118.94372788 303.16492066 123.15992418 305.3868529 128.37465382 310.19672108 C129.67609494 311.36020025 130.97819014 312.52294817 132.28090382 313.68500233 C132.924146 314.26459705 133.56738819 314.84419178 134.23012257 315.44134998 C137.06667623 317.97597152 139.964869 320.43438269 142.87465382 322.88422108 C143.67141529 323.55687 143.67141529 323.55687 144.48427296 324.2431078 C152.91738641 331.34728023 161.49830793 338.26682641 170.12465382 345.13422108 C175.20343903 343.60574858 178.45859251 340.48319828 182.31215382 337.00922108 C183.6559329 335.82028074 185.00098473 334.63277734 186.34731007 333.44672108 C186.9971587 332.87308826 187.64700733 332.29945545 188.31654835 331.70843983 C191.33105261 329.08387549 194.46812945 326.62383047 197.60902882 324.15375233 C200.05953078 322.18650153 202.45099305 320.16502279 204.83705616 318.12079334 C241.65369595 286.58607089 247.1420137 299.9451393 320.12465382 299.13422108 C320.12465382 214.65422108 320.12465382 130.17422108 320.12465382 43.13422108 C221.78465382 43.13422108 123.44465382 43.13422108 22.12465382 43.13422108 Z " fill="#FF3500" transform="translate(84.87534618377686,63.86577892303467)"/>
<path d="M0 0 C3.76317821 1.05803643 5.98992775 -0.15846148 9.5703125 -1.58984375 C23.1455178 -6.92922946 39.94539144 -7.70172901 53.76171875 -2.52734375 C54.68855469 -2.11484375 55.61539063 -1.70234375 56.5703125 -1.27734375 C57.50746094 -0.86484375 58.44460938 -0.45234375 59.41015625 -0.02734375 C75.27680625 7.8058411 84.97539432 21.26580899 90.5703125 37.72265625 C96.84706984 58.16623137 94.55484868 79.16006306 84.83911133 97.99609375 C69.87006824 125.55792519 41.54273057 148.53675206 12.47265625 159.9375 C-0.68739678 163.49762202 -11.23068572 158.87348587 -22.48681641 152.57080078 C-51.87523425 135.59098111 -76.43887737 112.07934858 -87.2421875 79.25390625 C-91.98171029 60.5591219 -87.98247164 39.34657787 -78.796875 22.77734375 C-70.66162324 9.38883525 -58.93848495 0.15864673 -43.8203125 -4.4296875 C-29.79864065 -7.58029277 -12.84775641 -6.75436712 0 0 Z M-40.1796875 43.53515625 C-44.87118811 50.18144878 -45.86125241 58.0164091 -45.25390625 66.046875 C-42.19230157 83.27226701 -26.82408918 96.79086787 -13.4296875 106.72265625 C-5.47971926 112.80040782 -5.47971926 112.80040782 3.5703125 115.72265625 C6.05053122 114.57747628 8.20791769 113.41225592 10.5078125 111.97265625 C11.166604 111.56797119 11.82539551 111.16328613 12.50415039 110.74633789 C19.42708458 106.37330267 25.53447757 101.23292188 31.5703125 95.72265625 C32.34246094 95.03300781 33.11460937 94.34335937 33.91015625 93.6328125 C42.70549299 85.37768839 49.68018827 74.54196339 50.5703125 62.33984375 C50.5703125 54.96035116 48.79144118 48.75284008 44.5703125 42.72265625 C40.96281924 39.37912591 38.40079972 37.86909523 33.4453125 37.47265625 C25.65344398 37.97535745 20.50355433 40.57371291 14.4609375 45.35546875 C9.34733453 49.05332214 3.99489352 49.03870078 -2.0078125 48.265625 C-6.88227616 47.1728017 -10.42021969 44.4231033 -14.4921875 41.59765625 C-23.3983048 35.91290053 -32.59489015 35.77797714 -40.1796875 43.53515625 Z " fill="#FF3500" transform="translate(253.4296875,165.27734375)"/>
</svg>
