<svg width="20" height="20" viewBox="0 0 20 20" fill="none" xmlns="http://www.w3.org/2000/svg">
<g clip-path="url(#clip0_1345_74665)">
<path opacity="0.12" d="M14.9175 4.16526C15.0891 4.58028 15.4185 4.91017 15.8332 5.0824L17.2875 5.68482C17.7026 5.85674 18.0323 6.1865 18.2042 6.60155C18.3762 7.01661 18.3762 7.48296 18.2042 7.89801L17.6023 9.35134C17.4303 9.76658 17.43 10.2334 17.6028 10.6484L18.2037 12.1013C18.289 12.3069 18.3328 12.5273 18.3329 12.7498C18.3329 12.9723 18.2891 13.1927 18.2039 13.3983C18.1188 13.6039 17.9939 13.7907 17.8366 13.948C17.6792 14.1054 17.4924 14.2301 17.2867 14.3152L15.8335 14.9172C15.4185 15.0888 15.0886 15.4182 14.9164 15.833L14.314 17.2874C14.142 17.7024 13.8123 18.0322 13.3973 18.2041C12.9822 18.376 12.5159 18.376 12.1008 18.2041L10.6476 17.6021C10.2325 17.4306 9.76636 17.431 9.35157 17.6031L7.89725 18.2046C7.48244 18.3762 7.01651 18.376 6.60181 18.2042C6.18711 18.0324 5.85755 17.7031 5.68551 17.2885L5.08294 15.8337C4.91134 15.4186 4.58196 15.0888 4.16721 14.9165L2.71289 14.3141C2.29803 14.1423 1.96838 13.8127 1.79641 13.3979C1.62443 12.9831 1.62419 12.5169 1.79576 12.102L2.39772 10.6486C2.56922 10.2336 2.56887 9.76738 2.39675 9.35257L1.79565 7.89716C1.71042 7.69159 1.66654 7.47124 1.6665 7.2487C1.66647 7.02616 1.71028 6.8058 1.79544 6.6002C1.8806 6.3946 2.00543 6.2078 2.16281 6.05046C2.32019 5.89313 2.50702 5.76835 2.71264 5.68326L4.16592 5.08127C4.58056 4.90981 4.91024 4.58084 5.08259 4.16655L5.68499 2.71218C5.8569 2.29712 6.18665 1.96737 6.60169 1.79544C7.01673 1.62352 7.48306 1.62352 7.8981 1.79544L9.35138 2.39743C9.76643 2.56893 10.2326 2.56858 10.6474 2.39646L12.1023 1.79638C12.5173 1.62455 12.9835 1.62459 13.3985 1.79648C13.8134 1.96836 14.1431 2.29803 14.3151 2.71297L14.9177 4.16778L14.9175 4.16526Z" fill="#1340FF"/>
<path d="M14.9175 4.16526C15.0891 4.58028 15.4185 4.91017 15.8332 5.0824L17.2875 5.68482C17.7026 5.85674 18.0323 6.1865 18.2042 6.60155C18.3762 7.01661 18.3762 7.48296 18.2042 7.89801L17.6023 9.35134C17.4303 9.76658 17.43 10.2334 17.6028 10.6484L18.2037 12.1013C18.289 12.3069 18.3328 12.5273 18.3329 12.7498C18.3329 12.9723 18.2891 13.1927 18.2039 13.3983C18.1188 13.6039 17.9939 13.7907 17.8366 13.948C17.6792 14.1054 17.4924 14.2301 17.2867 14.3152L15.8335 14.9172C15.4185 15.0888 15.0886 15.4182 14.9164 15.833L14.314 17.2874C14.142 17.7024 13.8123 18.0322 13.3973 18.2041C12.9822 18.376 12.5159 18.376 12.1008 18.2041L10.6476 17.6021C10.2325 17.4306 9.76636 17.431 9.35157 17.6031L7.89725 18.2046C7.48244 18.3762 7.01651 18.376 6.60181 18.2042C6.18711 18.0324 5.85755 17.7031 5.68551 17.2885L5.08294 15.8337C4.91134 15.4186 4.58196 15.0888 4.16721 14.9165L2.71289 14.3141C2.29803 14.1423 1.96838 13.8127 1.79641 13.3979C1.62443 12.9831 1.62419 12.5169 1.79576 12.102L2.39772 10.6486C2.56922 10.2336 2.56887 9.76738 2.39675 9.35257L1.79565 7.89716C1.71042 7.69159 1.66654 7.47124 1.6665 7.2487C1.66647 7.02616 1.71028 6.8058 1.79544 6.6002C1.8806 6.3946 2.00543 6.2078 2.16281 6.05046C2.32019 5.89313 2.50702 5.76835 2.71264 5.68326L4.16592 5.08127C4.58056 4.90981 4.91024 4.58084 5.08259 4.16655L5.68499 2.71218C5.8569 2.29712 6.18665 1.96737 6.60169 1.79544C7.01673 1.62352 7.48306 1.62352 7.8981 1.79544L9.35138 2.39743C9.76643 2.56893 10.2326 2.56858 10.6474 2.39646L12.1023 1.79638C12.5173 1.62455 12.9835 1.62459 13.3985 1.79648C13.8134 1.96836 14.1431 2.29803 14.3151 2.71297L14.9177 4.16778L14.9175 4.16526Z" fill="#1340FF"/>
<path d="M7.49984 9.99984L9.1665 11.6665L12.9165 7.9165M14.9175 4.16526C15.0891 4.58028 15.4185 4.91017 15.8332 5.0824L17.2875 5.68482C17.7026 5.85674 18.0323 6.1865 18.2042 6.60155C18.3761 7.01661 18.3761 7.48296 18.2042 7.89801L17.6023 9.35134C17.4303 9.76658 17.43 10.2334 17.6028 10.6484L18.2037 12.1013C18.289 12.3069 18.3328 12.5273 18.3329 12.7498C18.3329 12.9723 18.2891 13.1927 18.2039 13.3983C18.1188 13.6039 17.9939 13.7907 17.8366 13.948C17.6792 14.1054 17.4924 14.2301 17.2867 14.3152L15.8335 14.9172C15.4185 15.0888 15.0886 15.4182 14.9164 15.833L14.314 17.2874C14.142 17.7024 13.8123 18.0322 13.3973 18.2041C12.9822 18.376 12.5159 18.376 12.1008 18.2041L10.6476 17.6021C10.2325 17.4306 9.76636 17.431 9.35157 17.6031L7.89725 18.2046C7.48244 18.3762 7.01651 18.376 6.60181 18.2042C6.18711 18.0324 5.85755 17.7031 5.68551 17.2885L5.08294 15.8337C4.91134 15.4186 4.58196 15.0888 4.16721 14.9165L2.71289 14.3141C2.29803 14.1423 1.96838 13.8127 1.79641 13.3979C1.62443 12.9831 1.62419 12.5169 1.79576 12.102L2.39772 10.6486C2.56922 10.2336 2.56887 9.76738 2.39675 9.35257L1.79565 7.89716C1.71042 7.69159 1.66654 7.47124 1.6665 7.2487C1.66647 7.02616 1.71028 6.8058 1.79544 6.6002C1.8806 6.3946 2.00543 6.2078 2.16281 6.05046C2.32019 5.89313 2.50702 5.76835 2.71264 5.68326L4.16592 5.08127C4.58056 4.90981 4.91024 4.58084 5.08259 4.16655L5.68499 2.71218C5.8569 2.29712 6.18665 1.96737 6.60169 1.79544C7.01673 1.62352 7.48306 1.62352 7.8981 1.79544L9.35138 2.39743C9.76643 2.56893 10.2326 2.56858 10.6474 2.39646L12.1023 1.79638C12.5173 1.62455 12.9835 1.62459 13.3985 1.79648C13.8134 1.96836 14.1431 2.29803 14.3151 2.71297L14.9177 4.16778L14.9175 4.16526Z" stroke="#1340FF" stroke-width="1.66667" stroke-linecap="round" stroke-linejoin="round"/>
<path fill-rule="evenodd" clip-rule="evenodd" d="M13.5058 7.32757C13.8312 7.65301 13.8312 8.18065 13.5058 8.50609L9.75576 12.2561C9.43032 12.5815 8.90269 12.5815 8.57725 12.2561L6.91058 10.5894C6.58514 10.264 6.58514 9.73634 6.91058 9.41091C7.23602 9.08547 7.76366 9.08547 8.08909 9.41091L9.1665 10.4883L12.3272 7.32757C12.6527 7.00214 13.1803 7.00214 13.5058 7.32757Z" fill="white"/>
</g>
<defs>
<clipPath id="clip0_1345_74665">
<rect width="20" height="20" fill="white"/>
</clipPath>
</defs>
</svg>
