<svg width="24" height="25" viewBox="0 0 24 25" fill="none" xmlns="http://www.w3.org/2000/svg">
<path d="M11 5.49994C11.5523 5.49994 12 5.05223 12 4.49994C12 3.94766 11.5523 3.49994 11 3.49994V5.49994ZM21 13.4999C21 12.9477 20.5523 12.4999 20 12.4999C19.4477 12.4999 19 12.9477 19 13.4999H21ZM5.09202 20.282L5.54601 19.3909H5.54601L5.09202 20.282ZM4.21799 19.4079L5.10899 18.9539L5.10899 18.9539L4.21799 19.4079ZM18.908 20.282L18.454 19.3909H18.454L18.908 20.282ZM19.782 19.4079L18.891 18.9539V18.9539L19.782 19.4079ZM4.21799 5.59196L3.32698 5.13797L3.32698 5.13797L4.21799 5.59196ZM5.09202 4.71793L4.63803 3.82692L4.63803 3.82692L5.09202 4.71793ZM9 15.4999H8C8 16.0522 8.44772 16.4999 9 16.4999V15.4999ZM9.29289 12.207L10 12.9142L9.29289 12.207ZM17.3358 4.16416L16.6287 3.45705V3.45705L17.3358 4.16416ZM20.1642 4.16416L20.8713 3.45705V3.45705L20.1642 4.16416ZM20.3358 4.33573L19.6287 5.04283L19.6287 5.04283L20.3358 4.33573ZM20.3358 7.16416L21.0429 7.87126L20.3358 7.16416ZM12.2929 15.207L13 15.9142V15.9142L12.2929 15.207ZM16.8 19.4999H7.2V21.4999H16.8V19.4999ZM5 17.2999V7.69994H3V17.2999H5ZM7.2 5.49994H11V3.49994H7.2V5.49994ZM19 13.4999V17.2999H21V13.4999H19ZM7.2 19.4999C6.62345 19.4999 6.25117 19.4992 5.96784 19.476C5.69617 19.4538 5.59545 19.4161 5.54601 19.3909L4.63803 21.173C5.01641 21.3658 5.40963 21.4371 5.80497 21.4694C6.18864 21.5007 6.65645 21.4999 7.2 21.4999V19.4999ZM3 17.2999C3 17.8435 2.99922 18.3113 3.03057 18.695C3.06287 19.0903 3.13419 19.4835 3.32698 19.8619L5.10899 18.9539C5.0838 18.9045 5.04612 18.8038 5.02393 18.5321C5.00078 18.2488 5 17.8765 5 17.2999H3ZM5.54601 19.3909C5.35785 19.2951 5.20487 19.1421 5.10899 18.9539L3.32698 19.8619C3.6146 20.4264 4.07354 20.8853 4.63803 21.173L5.54601 19.3909ZM16.8 21.4999C17.3436 21.4999 17.8114 21.5007 18.195 21.4694C18.5904 21.4371 18.9836 21.3658 19.362 21.173L18.454 19.3909C18.4045 19.4161 18.3038 19.4538 18.0322 19.476C17.7488 19.4992 17.3766 19.4999 16.8 19.4999V21.4999ZM19 17.2999C19 17.8765 18.9992 18.2488 18.9761 18.5321C18.9539 18.8038 18.9162 18.9045 18.891 18.9539L20.673 19.8619C20.8658 19.4835 20.9371 19.0903 20.9694 18.695C21.0008 18.3113 21 17.8435 21 17.2999H19ZM19.362 21.173C19.9265 20.8853 20.3854 20.4264 20.673 19.8619L18.891 18.9539C18.7951 19.1421 18.6422 19.2951 18.454 19.3909L19.362 21.173ZM5 7.69994C5 7.12339 5.00078 6.75111 5.02393 6.46778C5.04612 6.19611 5.0838 6.0954 5.10899 6.04595L3.32698 5.13797C3.13419 5.51635 3.06287 5.90957 3.03057 6.30491C2.99922 6.68858 3 7.15639 3 7.69994H5ZM7.2 3.49994C6.65645 3.49994 6.18864 3.49916 5.80497 3.53051C5.40963 3.56281 5.01641 3.63413 4.63803 3.82692L5.54601 5.60894C5.59545 5.58374 5.69617 5.54606 5.96784 5.52387C6.25117 5.50072 6.62345 5.49994 7.2 5.49994V3.49994ZM5.10899 6.04595C5.20487 5.85779 5.35785 5.70481 5.54601 5.60894L4.63803 3.82692C4.07354 4.11454 3.6146 4.57348 3.32698 5.13797L5.10899 6.04595ZM8 12.9142V15.4999H10V12.9142H8ZM9 16.4999H11.5858V14.4999H9V16.4999ZM10 12.9142L18.0429 4.87126L16.6287 3.45705L8.58579 11.4999L10 12.9142ZM19.4571 4.87126L19.6287 5.04283L21.0429 3.62862L20.8713 3.45705L19.4571 4.87126ZM19.6287 6.45705L11.5858 14.4999L13 15.9142L21.0429 7.87126L19.6287 6.45705ZM19.6287 5.04283C20.0192 5.43336 20.0192 6.06653 19.6287 6.45705L21.0429 7.87126C22.2145 6.69969 22.2145 4.80019 21.0429 3.62862L19.6287 5.04283ZM18.0429 4.87126C18.4334 4.48074 19.0666 4.48074 19.4571 4.87126L20.8713 3.45705C19.6997 2.28548 17.8003 2.28548 16.6287 3.45705L18.0429 4.87126ZM11.5858 16.4999C12.1162 16.4999 12.6249 16.2892 13 15.9142L11.5858 14.4999L11.5858 14.4999V16.4999ZM10 12.9142L8.58579 11.4999C8.21071 11.875 8 12.3837 8 12.9142H10Z" fill="#231F20"/>
</svg>
