<svg width="21" height="20" viewBox="0 0 21 20" fill="none" xmlns="http://www.w3.org/2000/svg">
<path d="M7.99709 16.6666V12.4999H4.38875C3.92852 12.4999 3.55542 12.873 3.55542 13.3333V15.8333C3.55542 16.2935 3.92852 16.6666 4.38875 16.6666H7.99709ZM7.99709 16.6666H12.4388M7.99709 16.6666L7.9971 8.74992C7.9971 8.28968 8.3702 7.91659 8.83043 7.91659H12.4388V16.6666M12.4388 16.6666L12.4387 4.16659C12.4387 3.70635 12.8118 3.33325 13.2721 3.33325H16.0471C16.5073 3.33325 16.8804 3.70635 16.8804 4.16659V15.8333C16.8804 16.2935 16.5073 16.6666 16.0471 16.6666H12.4388Z" stroke="#026D54" stroke-width="1.66667" stroke-linecap="square" stroke-linejoin="round"/>
</svg>
