<svg width="20" height="20" viewBox="0 0 20 20" fill="none" xmlns="http://www.w3.org/2000/svg">
<path d="M15 15.8333H18.4547C18.1872 12.039 15.5999 10.4042 13.3334 10.9289M9.16669 5.83325C9.16669 7.21396 8.0474 8.33325 6.66669 8.33325C5.28597 8.33325 4.16669 7.21396 4.16669 5.83325C4.16669 4.45254 5.28597 3.33325 6.66669 3.33325C8.0474 3.33325 9.16669 4.45254 9.16669 5.83325ZM16.25 6.24992C16.25 7.40051 15.3173 8.33325 14.1667 8.33325C13.0161 8.33325 12.0834 7.40051 12.0834 6.24992C12.0834 5.09933 13.0161 4.16659 14.1667 4.16659C15.3173 4.16659 16.25 5.09933 16.25 6.24992ZM1.66669 16.6666H11.6667C11.1184 8.88881 2.21495 8.88881 1.66669 16.6666Z" stroke="#1340FF" stroke-width="1.66667" stroke-linecap="round" stroke-linejoin="round"/>
</svg>
