<svg width="20" height="20" viewBox="0 0 20 20" fill="none" xmlns="http://www.w3.org/2000/svg">
<path d="M6.16667 6.25H6.33333M2.5 4.16667V9.30964C2.5 9.75167 2.67559 10.1756 2.98816 10.4882L9.44649 16.9465C10.0974 17.5974 11.1526 17.5974 11.8035 16.9465L16.9465 11.8035C17.5974 11.1526 17.5974 10.0974 16.9465 9.44649L10.4882 2.98816C10.1756 2.6756 9.75167 2.5 9.30964 2.5H4.16667C3.24619 2.5 2.5 3.24619 2.5 4.16667ZM6.66667 6.25C6.66667 6.48012 6.48012 6.66667 6.25 6.66667C6.01988 6.66667 5.83333 6.48012 5.83333 6.25C5.83333 6.01988 6.01988 5.83333 6.25 5.83333C6.48012 5.83333 6.66667 6.01988 6.66667 6.25Z" stroke="#8E8E93" stroke-width="1.66667" stroke-linecap="square"/>
</svg>
