<svg width="29" height="28" viewBox="0 0 29 28" fill="none" xmlns="http://www.w3.org/2000/svg">
<path fill-rule="evenodd" clip-rule="evenodd" d="M4 5.83333C4 4.54467 5.04467 3.5 6.33333 3.5H22.6667C23.9553 3.5 25 4.54467 25 5.83333V22.1667C25 23.4553 23.9553 24.5 22.6667 24.5H6.33333C5.04467 24.5 4 23.4553 4 22.1667V5.83333ZM13.7295 9.74428C14.1161 9.22882 14.0116 8.49755 13.4962 8.11095C12.9807 7.72435 12.2494 7.82882 11.8628 8.34428L10.3415 10.3728L9.94726 10.11C9.41115 9.75258 8.6868 9.89744 8.32939 10.4336C7.97198 10.9697 8.11685 11.694 8.65296 12.0514L9.96546 12.9264C10.4807 13.2699 11.1744 13.1511 11.5459 12.6557L13.7295 9.74428ZM16.9009 9.33333C16.2566 9.33333 15.7343 9.85567 15.7343 10.5C15.7343 11.1443 16.2566 11.6667 16.9009 11.6667H19.2343C19.8786 11.6667 20.4009 11.1443 20.4009 10.5C20.4009 9.85567 19.8786 9.33333 19.2343 9.33333H16.9009ZM13.7295 16.7456C14.1161 16.2301 14.0116 15.4989 13.4962 15.1123C12.9807 14.7257 12.2494 14.8301 11.8628 15.3456L10.3415 17.3741L9.94726 17.1113C9.41115 16.7539 8.6868 16.8988 8.32939 17.4349C7.97198 17.971 8.11685 18.6953 8.65296 19.0528L9.96546 19.9278C10.4807 20.2712 11.1744 20.1524 11.5459 19.657L13.7295 16.7456ZM16.8333 16.3333C16.189 16.3333 15.6667 16.8557 15.6667 17.5C15.6667 18.1443 16.189 18.6667 16.8333 18.6667H19.1667C19.811 18.6667 20.3333 18.1443 20.3333 17.5C20.3333 16.8557 19.811 16.3333 19.1667 16.3333H16.8333Z" fill="white"/>
</svg>
