<svg width="28" height="28" viewBox="0 0 28 28" fill="none" xmlns="http://www.w3.org/2000/svg">
<path d="M4.66663 10.5001C4.66663 5.34542 8.8453 1.16675 14 1.16675C19.1546 1.16675 23.3333 5.34542 23.3333 10.5001C23.3333 12.7079 22.5664 14.7361 21.286 16.3334H6.71393C5.43352 14.7361 4.66663 12.7079 4.66663 10.5001Z" fill="white"/>
<path d="M9.33329 18.6667V21.0001C9.33329 21.6444 9.85563 22.1667 10.5 22.1667H17.5C18.1443 22.1667 18.6666 21.6444 18.6666 21.0001V18.6667H9.33329Z" fill="white"/>
<path d="M9.33329 24.5001C9.33329 23.8558 9.85563 23.3334 10.5 23.3334H17.5C18.1443 23.3334 18.6666 23.8558 18.6666 24.5001C18.6666 25.1444 18.1443 25.6667 17.5 25.6667H10.5C9.85563 25.6667 9.33329 25.1444 9.33329 24.5001Z" fill="white"/>
</svg>
