<svg width="28" height="28" viewBox="0 0 28 28" fill="none" xmlns="http://www.w3.org/2000/svg">
<path fill-rule="evenodd" clip-rule="evenodd" d="M11.6563 5.8447C11.3166 5.80316 10.944 5.86907 10.5266 6.15299C9.84321 6.61789 9.52485 7.15035 9.39987 7.70617C9.26761 8.29438 9.33186 9.00795 9.60067 9.81934C10.0287 11.1112 10.9114 12.4565 11.8725 13.5457C12.9001 12.6024 13.9596 11.9336 15.0368 11.6746C14.9697 10.848 14.8604 10.1128 14.7256 9.52621C14.4491 8.32254 13.7197 7.10703 12.8524 6.40968C12.4277 6.0681 12.0187 5.88902 11.6563 5.8447ZM17.3864 11.8075C17.3159 10.7636 17.1825 9.79949 16.9997 9.00375C16.6201 7.35135 15.6374 5.65503 14.3146 4.59132C13.6444 4.05237 12.8389 3.63862 11.9395 3.52862C11.0174 3.41584 10.0809 3.63412 9.21422 4.22373C8.06603 5.00481 7.38467 6.03222 7.12337 7.1943C6.86937 8.32399 7.03231 9.48637 7.38572 10.5531C7.95892 12.2833 9.09844 13.9619 10.27 15.2536C10.197 15.3417 10.1239 15.4314 10.0506 15.5226C9.5463 16.15 9.08005 17.0102 8.73021 17.9085C8.63481 18.1535 8.54568 18.4074 8.46557 18.6667H2.33335C1.68902 18.6667 1.16669 19.189 1.16669 19.8334C1.16669 20.4777 1.68902 21 2.33335 21H8.0633C8.05261 21.8812 8.23755 22.8848 8.9468 23.6213C9.76731 24.4734 10.9662 24.6502 12.2798 24.3857C14.1342 24.0121 15.3283 22.6177 16.0841 21H25.6667C26.311 21 26.8334 20.4777 26.8334 19.8334C26.8334 19.189 26.311 18.6667 25.6667 18.6667H16.881C17.1943 17.3751 17.3611 15.9862 17.4193 14.6425C17.804 15.0748 18.2041 15.7289 18.5948 16.692C18.7319 17.0301 18.9877 17.5431 19.5094 17.8116C20.2045 18.1694 20.8328 17.8705 21.1542 17.6176C21.449 17.3856 21.6709 17.0705 21.8244 16.828C21.9864 16.5723 22.141 16.2842 22.2813 16.0125C22.3016 16.1177 22.3284 16.2228 22.3636 16.3246C22.4575 16.5959 22.6338 16.9184 22.9655 17.1643C23.3021 17.414 23.6841 17.5 24.0338 17.5H25.6667C26.311 17.5 26.8334 16.9777 26.8334 16.3334C26.8334 15.689 26.311 15.1667 25.6667 15.1667H24.5562C24.5567 15.1364 24.5574 15.1045 24.5582 15.0708C24.559 15.0392 24.5599 15.0051 24.561 14.9687C24.5692 14.6784 24.5816 14.2445 24.5178 13.8527C24.4426 13.391 24.2173 12.6994 23.4946 12.3129C22.8442 11.9649 22.2244 12.182 21.8556 12.4433C21.5347 12.6707 21.297 12.9899 21.1348 13.2346C20.87 13.6344 20.6023 14.1642 20.3776 14.6088C20.3468 14.6697 20.3169 14.729 20.2879 14.7861C19.5654 13.3792 18.6195 12.2801 17.3864 11.8075ZM20.8148 15.9348C20.8146 15.9352 20.8114 15.9307 20.8055 15.9202C20.812 15.9291 20.8149 15.9344 20.8148 15.9348ZM15.1028 14.1105C14.6713 14.3005 14.1657 14.6271 13.5838 15.1435C13.6517 15.1927 13.7175 15.2383 13.7811 15.2804C14.3185 15.6358 14.4661 16.3596 14.1107 16.897C13.7552 17.4345 13.0314 17.582 12.494 17.2266C12.3241 17.1142 12.1506 16.9893 11.9753 16.8535C11.9401 16.8966 11.9047 16.9402 11.8693 16.9844C11.5656 17.3622 11.2223 17.9625 10.9395 18.6667H14.4673C14.8674 17.2892 15.0639 15.6777 15.1028 14.1105ZM13.3951 21H10.3969C10.3841 21.6072 10.5242 21.8955 10.6276 22.0028C10.6814 22.0587 10.9267 22.278 11.819 22.0983C12.4006 21.9811 12.9325 21.6201 13.3951 21ZM1.5084 12.0084C1.96401 11.5528 2.7027 11.5528 3.15831 12.0084L4.08335 12.9334L5.0084 12.0084C5.46401 11.5528 6.2027 11.5528 6.65831 12.0084C7.11392 12.464 7.11392 13.2027 6.65831 13.6583L5.73327 14.5834L6.65831 15.5084C7.11392 15.964 7.11392 16.7027 6.65831 17.1583C6.2027 17.6139 5.46401 17.6139 5.0084 17.1583L4.08335 16.2333L3.15831 17.1583C2.7027 17.6139 1.96401 17.6139 1.5084 17.1583C1.05278 16.7027 1.05278 15.964 1.5084 15.5084L2.43344 14.5834L1.5084 13.6583C1.05278 13.2027 1.05278 12.464 1.5084 12.0084Z" fill="white"/>
</svg>
