<svg width="20" height="20" viewBox="0 0 20 20" fill="none" xmlns="http://www.w3.org/2000/svg">
<path d="M15.0001 15.8333H18.4547C18.1873 12.039 15.6 10.4042 13.3335 10.9289M9.16675 5.83325C9.16675 7.21396 8.04746 8.33325 6.66675 8.33325C5.28604 8.33325 4.16675 7.21396 4.16675 5.83325C4.16675 4.45254 5.28604 3.33325 6.66675 3.33325C8.04746 3.33325 9.16675 4.45254 9.16675 5.83325ZM16.2501 6.24992C16.2501 7.40051 15.3173 8.33325 14.1667 8.33325C13.0162 8.33325 12.0834 7.40051 12.0834 6.24992C12.0834 5.09933 13.0162 4.16659 14.1667 4.16659C15.3173 4.16659 16.2501 5.09933 16.2501 6.24992ZM1.66675 16.6666H11.6667C11.1185 8.88881 2.21501 8.88881 1.66675 16.6666Z" stroke="#8A5AFE" stroke-width="1.66667" stroke-linecap="round" stroke-linejoin="round"/>
</svg>
