<svg width="29" height="28" viewBox="0 0 29 28" fill="none" xmlns="http://www.w3.org/2000/svg">
<path d="M5.16663 8.16667C5.16663 5.58934 7.25596 3.5 9.83329 3.5C12.4106 3.5 14.5 5.58934 14.5 8.16667C14.5 10.744 12.4106 12.8333 9.83329 12.8333C7.25596 12.8333 5.16663 10.744 5.16663 8.16667Z" fill="white"/>
<path d="M16.25 8.75C16.25 6.49484 18.0781 4.66667 20.3333 4.66667C22.5885 4.66667 24.4166 6.49484 24.4166 8.75C24.4166 11.0052 22.5885 12.8333 20.3333 12.8333C18.0781 12.8333 16.25 11.0052 16.25 8.75Z" fill="white"/>
<path d="M20.3333 23.3333C20.3333 23.2515 20.3305 23.1694 20.3247 23.0872C20.0867 19.7119 18.883 16.8921 17.0612 14.8988C18.0595 14.308 19.1796 14 20.3365 14C23.913 14 27.1379 16.9441 27.5003 22.0846C27.523 22.4075 27.4106 22.7253 27.19 22.9621C26.9693 23.1989 26.6602 23.3333 26.3365 23.3333H20.3333Z" fill="white"/>
<path d="M17.9971 23.2513C17.5799 17.333 13.8824 14 9.8333 14C5.78418 14 2.08671 17.333 1.66952 23.2513C1.64676 23.5742 1.75915 23.892 1.97983 24.1288C2.2005 24.3655 2.50963 24.5 2.8333 24.5H16.8333C17.157 24.5 17.4661 24.3655 17.6868 24.1288C17.9074 23.892 18.0198 23.5742 17.9971 23.2513Z" fill="white"/>
</svg>
