<svg width="20" height="20" viewBox="0 0 20 20" fill="none" xmlns="http://www.w3.org/2000/svg">
<path d="M3.33337 7.5C2.87314 7.5 2.50004 7.8731 2.50004 8.33333C2.50004 8.79357 2.87314 9.16667 3.33337 9.16667V7.5ZM16.6667 9.16667H17.5V7.5H16.6667V9.16667ZM5.83337 4.16667V5H7.50004V4.16667H5.83337ZM7.50004 2.5C7.50004 2.03976 7.12694 1.66667 6.66671 1.66667C6.20647 1.66667 5.83337 2.03976 5.83337 2.5H7.50004ZM12.5 4.16667V5H14.1667V4.16667H12.5ZM14.1667 2.5C14.1667 2.03976 13.7936 1.66667 13.3334 1.66667C12.8731 1.66667 12.5 2.03976 12.5 2.5H14.1667ZM5.00004 5H15V3.33333H5.00004V5ZM15.8334 5.83333V15H17.5V5.83333H15.8334ZM15 15.8333H5.00004V17.5H15V15.8333ZM4.16671 15V5.83333H2.50004V15H4.16671ZM3.33337 9.16667H16.6667V7.5H3.33337V9.16667ZM5.00004 15.8333C4.5398 15.8333 4.16671 15.4602 4.16671 15H2.50004C2.50004 16.3807 3.61933 17.5 5.00004 17.5V15.8333ZM15.8334 15C15.8334 15.4602 15.4603 15.8333 15 15.8333V17.5C16.3808 17.5 17.5 16.3807 17.5 15H15.8334ZM15 5C15.4603 5 15.8334 5.3731 15.8334 5.83333H17.5C17.5 4.45262 16.3808 3.33333 15 3.33333V5ZM5.00004 3.33333C3.61933 3.33333 2.50004 4.45262 2.50004 5.83333H4.16671C4.16671 5.3731 4.5398 5 5.00004 5V3.33333ZM7.50004 4.16667V2.5H5.83337V4.16667H7.50004ZM14.1667 4.16667V2.5H12.5V4.16667H14.1667Z" fill="#8E8E93"/>
</svg>
