<svg width="28" height="28" viewBox="0 0 28 28" fill="none" xmlns="http://www.w3.org/2000/svg">
<path fill-rule="evenodd" clip-rule="evenodd" d="M19.1232 2.87217C20.6281 2.39325 22.1641 3.51636 22.1641 5.09562V8.3137C24.1769 8.83175 25.6641 10.6589 25.6641 12.8333C25.6641 15.0078 24.1769 16.8349 22.1641 17.353V20.5711C22.1641 22.1503 20.6281 23.2735 19.1232 22.7945L15.91 21.7719C15.1745 23.3803 13.5514 24.5 11.6641 24.5C9.08681 24.5 6.99748 22.4107 6.99748 19.8333V18.9246L3.95492 17.9539C2.98753 17.6453 2.33081 16.7464 2.33081 15.731V9.93573C2.33081 8.92029 2.98753 8.02144 3.95492 7.71279L7.66926 6.52774C7.72348 6.50214 7.78 6.4806 7.83841 6.46351L19.1232 2.87217ZM9.33081 19.6781V19.8333C9.33081 21.122 10.3755 22.1667 11.6641 22.1667C12.5042 22.1667 13.2425 21.7223 13.6536 21.0538L9.33081 19.6781ZM23.3308 12.8333C23.3308 13.697 22.8616 14.4511 22.1641 14.8545V10.8122C22.8616 11.2156 23.3308 11.9697 23.3308 12.8333ZM7.00004 9.19047V16.4762L4.66414 15.731V9.93573L7.00004 9.19047Z" fill="white"/>
</svg>
