<svg xmlns="http://www.w3.org/2000/svg" width="28" height="28" viewBox="0 0 28 28" fill="none">
  <path fill-rule="evenodd" clip-rule="evenodd" d="M3.5 5.83333C3.5 4.54467 4.54467 3.5 5.83333 3.5H22.1667C23.4553 3.5 24.5 4.54467 24.5 5.83333V22.1667C24.5 23.4553 23.4553 24.5 22.1667 24.5H5.83333C4.54467 24.5 3.5 23.4553 3.5 22.1667V5.83333ZM13.2295 9.74428C13.6161 9.22882 13.5116 8.49755 12.9962 8.11095C12.4807 7.72435 11.7494 7.82882 11.3628 8.34428L9.84147 10.3728L9.44726 10.11C8.91115 9.75258 8.1868 9.89744 7.82939 10.4336C7.47198 10.9697 7.61685 11.694 8.15296 12.0514L9.46546 12.9264C9.98066 13.2699 10.6744 13.1511 11.0459 12.6557L13.2295 9.74428ZM16.4009 9.33333C15.7566 9.33333 15.2343 9.85567 15.2343 10.5C15.2343 11.1443 15.7566 11.6667 16.4009 11.6667H18.7343C19.3786 11.6667 19.9009 11.1443 19.9009 10.5C19.9009 9.85567 19.3786 9.33333 18.7343 9.33333H16.4009ZM13.2295 16.7456C13.6161 16.2301 13.5116 15.4989 12.9962 15.1123C12.4807 14.7257 11.7494 14.8301 11.3628 15.3456L9.84147 17.3741L9.44726 17.1113C8.91115 16.7539 8.1868 16.8988 7.82939 17.4349C7.47198 17.971 7.61685 18.6953 8.15296 19.0528L9.46546 19.9278C9.98066 20.2712 10.6744 20.1524 11.0459 19.657L13.2295 16.7456ZM16.3333 16.3333C15.689 16.3333 15.1667 16.8557 15.1667 17.5C15.1667 18.1443 15.689 18.6667 16.3333 18.6667H18.6667C19.311 18.6667 19.8333 18.1443 19.8333 17.5C19.8333 16.8557 19.311 16.3333 18.6667 16.3333H16.3333Z" fill="white"/>
</svg>