<svg width="48" height="48" viewBox="0 0 48 48" fill="none" xmlns="http://www.w3.org/2000/svg">
<rect width="48" height="48" rx="24" fill="#FF3500"/>
<rect width="48" height="48" rx="24" fill="url(#paint0_linear_55_5893)" style="mix-blend-mode:screen"/>
<rect width="48" height="48" rx="24" fill="url(#paint1_radial_55_5893)" fill-opacity="0.5"/>
<rect width="48" height="48" rx="24" fill="white" fill-opacity="0.1"/>
<path d="M13.75 15.8333C13.75 14.6827 14.6827 13.75 15.8333 13.75H32.1667C33.3173 13.75 34.25 14.6827 34.25 15.8333V32.1667C34.25 33.3173 33.3173 34.25 32.1667 34.25H15.8333C14.6827 34.25 13.75 33.3173 13.75 32.1667V15.8333ZM23.4295 19.8943C23.899 19.2684 23.7721 18.3804 23.1462 17.911C22.5203 17.4415 21.6323 17.5684 21.1628 18.1943L19.7834 20.0336L19.5859 19.902C18.9349 19.468 18.0554 19.6439 17.6214 20.2949C17.1874 20.9459 17.3633 21.8255 18.0143 22.2594L19.3268 23.1344C19.9524 23.5515 20.7948 23.4072 21.2459 22.8057L23.4295 19.8943ZM26.4009 19.0833C25.6185 19.0833 24.9843 19.7176 24.9843 20.5C24.9843 21.2824 25.6185 21.9167 26.4009 21.9167H28.7343C29.5167 21.9167 30.1509 21.2824 30.1509 20.5C30.1509 19.7176 29.5167 19.0833 28.7343 19.0833H26.4009ZM23.4295 26.8956C23.899 26.2697 23.7721 25.3817 23.1462 24.9123C22.5203 24.4428 21.6323 24.5697 21.1628 25.1956L19.7834 27.0349L19.5859 26.9033C18.9349 26.4693 18.0554 26.6452 17.6214 27.2962C17.1874 27.9472 17.3633 28.8268 18.0143 29.2608L19.3268 30.1358C19.9524 30.5528 20.7948 30.4085 21.2459 29.807L23.4295 26.8956ZM26.3333 26.0833C25.5509 26.0833 24.9167 26.7176 24.9167 27.5C24.9167 28.2824 25.5509 28.9167 26.3333 28.9167H28.6667C29.4491 28.9167 30.0833 28.2824 30.0833 27.5C30.0833 26.7176 29.4491 26.0833 28.6667 26.0833H26.3333Z" fill="url(#paint2_linear_55_5893)" fill-opacity="0.92" stroke="url(#paint3_linear_55_5893)" stroke-width="0.5"/>
<defs>
<linearGradient id="paint0_linear_55_5893" x1="24" y1="48" x2="24" y2="14.25" gradientUnits="userSpaceOnUse">
<stop stop-color="#3A3A3A"/>
<stop offset="0.711773"/>
</linearGradient>
<radialGradient id="paint1_radial_55_5893" cx="0" cy="0" r="1" gradientUnits="userSpaceOnUse" gradientTransform="translate(24 48) rotate(-90) scale(24.75 28.8847)">
<stop stop-color="white"/>
<stop offset="1" stop-color="white" stop-opacity="0.05"/>
</radialGradient>
<linearGradient id="paint2_linear_55_5893" x1="24" y1="13.5" x2="24" y2="45.3435" gradientUnits="userSpaceOnUse">
<stop offset="0.313079" stop-color="white"/>
<stop offset="1" stop-color="white" stop-opacity="0"/>
</linearGradient>
<linearGradient id="paint3_linear_55_5893" x1="61.0669" y1="-37.4695" x2="-0.720273" y2="12.655" gradientUnits="userSpaceOnUse">
<stop stop-color="white"/>
<stop offset="1" stop-color="white" stop-opacity="0.5"/>
</linearGradient>
</defs>
</svg>
