<svg width="98" height="40" viewBox="0 0 98 40" fill="none" xmlns="http://www.w3.org/2000/svg">
<path d="M91.1856 18.1868H82.0552C82.0229 18.4366 81.9971 18.6429 81.9595 18.9372C81.6574 18.6223 81.4165 18.3704 81.2166 18.1608H76.3955C75.8805 19.4378 75.3816 20.6726 74.8784 21.9171C73.571 20.6237 72.3173 19.3846 71.0873 18.1684H66.1394C66.3125 18.6147 66.4587 18.9926 66.606 19.3705C66.5845 19.3879 66.563 19.4064 66.5415 19.4237C66.0491 18.998 65.5567 18.5724 65.1309 18.2053H60.8496C60.8184 18.4605 60.7947 18.6647 60.7786 18.8004C60.3109 18.5952 59.8625 18.2401 59.4045 18.227C56.88 18.1532 54.3534 18.1619 51.8278 18.1434C51.2816 18.1391 50.7343 18.1423 50.2096 18.1423V11.3389H52.9406V7.00708C50.8107 4.86669 48.6807 2.72521 46.5777 0.613058H35.8808V3.28122C34.9336 2.35274 34.0175 1.45358 33.1434 0.596769H28.0224V2.39292C27.3386 1.7685 26.7268 1.20924 26.0677 0.607628H21.309V3.82419C20.1693 2.7263 19.0759 1.67185 17.977 0.611972H13.1344C13.1 1.2049 13.0689 1.74787 13.0312 2.38749C12.7818 2.14858 12.6194 1.9846 12.4474 1.8304C11.998 1.42534 11.6077 0.844363 11.0809 0.653238C8.4725 -0.290445 5.89208 -0.328453 3.49552 1.31892C1.76987 2.50477 0.502241 4.02074 0.234523 6.21217C-0.153615 9.39289 0.668892 12.1338 3.0633 14.3263C4.17288 15.3428 5.26311 16.3798 6.36086 17.4104C6.45332 17.4973 6.52858 17.6037 6.60815 17.6971C5.97702 17.8611 5.37062 17.9588 4.81261 18.1792C4.23632 18.4062 3.65787 18.6864 3.16437 19.0567C1.06886 20.6291 0.150659 22.8358 0.0162626 25.3997C-0.0568492 26.7875 0.0947502 28.1916 0.921558 29.3395C1.74514 30.484 2.68162 31.5646 3.68475 32.5549C4.55779 33.4161 5.60824 34.0915 6.55224 34.8832C7.96287 36.068 9.34554 37.2875 10.7476 38.4831C12.7055 40.1522 15.9912 40.4997 18.2791 39.2465V37.5915C18.3286 37.5644 18.3791 37.5372 18.4297 37.509C19.0705 38.2225 19.7113 38.9348 20.3166 39.6081H24.384V36.624C25.4032 37.6925 26.3451 38.6796 27.1665 39.5408H41.6093V38.4472C41.6491 38.4255 41.6889 38.4038 41.7287 38.3832C42.1061 38.8317 42.4834 39.2802 42.7608 39.6092H47.1121C47.3497 38.8338 47.5798 38.0813 47.8099 37.3287H49.8215C50.5032 38.0683 51.244 38.8719 51.9213 39.6059H57.3208C56.8349 38.3484 56.3682 37.1409 55.9016 35.9333C55.9306 35.9159 55.9607 35.8975 55.9908 35.879C57.2122 37.1409 58.4336 38.4027 59.5679 39.5745H63.8074V35.2339C65.3126 36.776 66.7318 38.2301 68.0736 39.6038H72.2184V32.8014C74.5376 35.1547 76.7309 37.3809 78.9254 39.607H82.324C83.0207 37.9705 83.711 36.3481 84.4582 34.5954C86.1451 36.3297 87.745 37.9749 89.3158 39.5897H98V25.0902C95.697 22.7576 93.4198 20.4499 91.1856 18.1868V18.1868ZM3.15039 12.8972C0.876401 10.3127 0.673193 6.64112 2.67301 3.87414C4.51694 1.32109 8.08436 0.0950641 11.5389 1.70117V5.77779C10.4304 4.59412 9.15523 4.15648 7.65967 4.4953C6.90597 4.66579 6.27377 5.06976 5.78779 5.66703C4.62445 7.0983 4.67499 9.32339 5.91466 10.6993C6.65115 11.5148 7.60268 11.884 8.69613 11.8569C9.78743 11.8297 10.668 11.3096 11.5185 10.5342V14.5435C8.76172 15.8434 5.38138 15.4318 3.15039 12.8972V12.8972ZM11.5432 23.3309C10.6637 22.4698 9.7025 21.9399 8.494 21.9855C7.27045 22.0311 6.28022 22.5056 5.58888 23.5286C4.5836 25.0142 4.79648 27.1752 6.04046 28.4186C7.44248 29.8184 9.21867 29.751 11.5109 28.1786V32.1238C8.87354 33.4074 5.42223 33.0197 3.1848 30.5264C0.841995 27.9158 0.7162 24.1237 2.69452 21.4077C4.66854 18.6983 8.43917 17.8057 11.5432 19.2956V23.3309V23.3309ZM21.0251 32.4376C19.9994 30.8391 18.9124 29.1472 17.8265 27.4543C17.7899 27.4608 17.7545 27.4684 17.7179 27.4749V32.4474H14.2999V19.0187C14.3279 18.997 14.3569 18.9589 14.3849 18.9589C16.3718 18.9557 18.363 18.8753 20.3435 18.9807C21.9552 19.0665 23.2271 19.9167 23.783 21.4881C24.3173 22.9965 24.298 24.5505 23.1325 25.8015C22.6444 26.3249 21.9283 26.6322 21.2638 27.0731C22.5519 28.7759 23.912 30.5731 25.3237 32.4376H21.0251V32.4376ZM25.8957 9.59813C25.886 10.6472 25.7226 11.6821 25.2624 12.6442C24.5367 14.1634 23.2529 14.904 21.6745 15.1364C20.1231 15.3645 18.5705 15.3591 17.0793 14.7368C15.7665 14.1895 14.9257 13.2089 14.5806 11.8395C14.3956 11.1109 14.2774 10.3463 14.2666 9.59705C14.23 6.99188 14.2537 4.38562 14.2569 1.77936C14.2569 1.65665 14.2752 1.53394 14.2903 1.36127H17.6986C17.6986 1.59149 17.6975 1.80108 17.6986 2.01175C17.7007 4.48987 17.6792 6.97016 17.7254 9.44828C17.7373 10.039 17.9168 10.6504 18.134 11.2064C18.3576 11.7776 18.8726 12.086 19.4866 12.111C20.0016 12.1316 20.551 12.1816 21.0284 12.0328C21.8294 11.7841 22.2616 11.1261 22.3379 10.2844C22.4035 9.56556 22.4229 8.84015 22.4272 8.118C22.4379 6.07317 22.4304 4.02834 22.4325 1.98352C22.4325 1.79022 22.4487 1.59692 22.4594 1.37322H25.8774C25.886 1.5448 25.9032 1.71637 25.9032 1.88904C25.9043 4.45838 25.9204 7.0288 25.8957 9.59813V9.59813ZM37.1291 1.37322H46.253V4.27811H43.4199V14.878H39.9858V4.302H37.1291V1.37322ZM29.1782 1.37539H32.5962V11.8764H36.7915V14.8639H29.1782V1.37539ZM34.8583 21.9496H30.7576V24.1465H34.6702V27.1024H30.7565V29.4687H34.8551V32.4398H27.3214V18.96H34.8583V21.9496V21.9496ZM46.8701 32.467C46.6121 31.7112 46.3584 30.9651 46.0917 30.1822H41.0782C40.8105 30.9347 40.5352 31.7057 40.2686 32.4561H36.5829C38.2881 27.9299 39.9697 23.4645 41.6631 18.9676H45.4735C47.154 23.4233 48.8442 27.906 50.5644 32.467H46.8701V32.467ZM59.8937 21.9431H57.0434V32.4539H53.5631V21.9583H50.7322V18.9633H59.8937V21.9431V21.9431ZM65.3373 32.455H61.9323V18.9557H65.3373V32.455ZM75.6386 32.4594H72.8657C70.9981 27.9733 69.1327 23.4906 67.2468 18.9579H71.0121C72.0711 21.651 73.1259 24.3354 74.1806 27.0199C74.2258 27.0221 74.2699 27.0242 74.315 27.0264C75.3741 24.3463 76.4342 21.6662 77.5029 18.9644H81.2671C79.3791 23.4895 77.5094 27.9723 75.6386 32.4594ZM90.6985 21.942H86.6193V24.1508H90.4867V27.1144H86.6107V29.4774H90.6899V32.4561H83.1884V18.9655H90.6985V21.942V21.942ZM95.3443 32.8394C94.1659 32.8405 93.2499 31.9121 93.2542 30.7186C93.2574 29.5816 94.2165 28.6358 95.354 28.6455C96.4937 28.6564 97.4065 29.5957 97.4022 30.7566C97.3979 31.9305 96.5012 32.8373 95.3443 32.8394V32.8394Z" fill="url(#paint0_linear_16656_24134)"/>
<path d="M20.2065 24.2939C19.5723 25.0855 18.6511 25.0117 17.7277 24.9628V21.6366C18.7392 21.6008 19.6992 21.5714 20.3001 22.5216C20.6752 23.1124 20.6226 23.7759 20.2065 24.2939Z" fill="url(#paint1_linear_16656_24134)"/>
<path d="M45.1256 27.3945H42.0351C42.5328 25.9372 43.0155 24.5233 43.4981 23.1083C43.539 23.0985 43.5788 23.0899 43.6185 23.0801C44.113 24.494 44.6064 25.909 45.1256 27.3945Z" fill="url(#paint2_linear_16656_24134)"/>
<defs>
<linearGradient id="paint0_linear_16656_24134" x1="0" y1="20" x2="98" y2="20" gradientUnits="userSpaceOnUse">
<stop stop-color="#8A5AFE"/>
</linearGradient>
<linearGradient id="paint1_linear_16656_24134" x1="17.7277" y1="23.307" x2="20.5525" y2="23.307" gradientUnits="userSpaceOnUse">
<stop stop-color="#8A5AFE"/>
</linearGradient>
<linearGradient id="paint2_linear_16656_24134" x1="42.0351" y1="25.2373" x2="45.1256" y2="25.2373" gradientUnits="userSpaceOnUse">
<stop stop-color="#8A5AFE"/>
</linearGradient>
</defs>
</svg>
