<svg width="405" height="144" viewBox="0 0 405 144" fill="none" xmlns="http://www.w3.org/2000/svg">
<path d="M376.838 65.4726H339.106C338.972 66.3718 338.866 67.1146 338.71 68.174C337.462 67.0403 336.466 66.1333 335.64 65.3788H315.716C313.588 69.9763 311.526 74.4212 309.446 78.9014C304.043 74.2453 298.862 69.7847 293.779 65.4062H273.331C274.047 67.0129 274.651 68.3734 275.26 69.7339C275.171 69.7964 275.082 69.8629 274.993 69.9254C272.958 68.393 270.923 66.8605 269.163 65.5391H251.47C251.341 66.4578 251.243 67.1928 251.177 67.6814C249.244 66.9426 247.391 65.6642 245.498 65.6173C235.065 65.3514 224.624 65.3827 214.186 65.3163C211.929 65.3006 209.667 65.3124 207.499 65.3124V40.82H218.785V25.2255C209.983 17.5201 201.181 9.81077 192.489 2.20701H148.283V11.8124C144.368 8.46985 140.583 5.23288 136.97 2.14837H115.807V8.6145C112.981 6.3666 110.453 4.35326 107.729 2.18746H88.0627V13.7671C83.3527 9.81468 78.8339 6.01866 74.2928 2.2031H54.2801C54.1379 4.33763 54.0091 6.29232 53.8536 8.59495C52.8227 7.73488 52.1518 7.14457 51.4408 6.58943C49.5835 5.13123 47.9706 3.03971 45.7934 2.35166C35.0139 -1.0456 24.3499 -1.18243 14.4458 4.74811C7.31426 9.01716 2.07559 14.4747 0.969201 22.3638C-0.634836 33.8144 2.7643 43.6817 12.6596 51.5748C17.2451 55.2339 21.7506 58.9674 26.2872 62.6774C26.6693 62.9902 26.9804 63.3733 27.3092 63.7095C24.701 64.2998 22.1949 64.6517 19.8888 65.4453C17.5072 66.2623 15.1167 67.271 13.0772 68.6041C4.41721 74.2649 0.622622 82.2087 0.0672077 91.4388C-0.234938 96.435 0.39157 101.49 3.80848 105.622C7.21206 109.743 11.0822 113.632 15.2278 117.198C18.8358 120.298 23.1769 122.73 27.0781 125.579C32.9078 129.845 38.6219 134.235 44.416 138.539C52.5072 144.548 66.086 145.799 75.5414 141.287V135.33C75.7458 135.232 75.9546 135.134 76.1635 135.032C78.8117 137.601 81.4599 140.165 83.9615 142.589H100.771V131.846C104.983 135.693 108.875 139.247 112.27 142.347H171.957V138.41C172.121 138.332 172.286 138.254 172.45 138.179C174.01 139.794 175.569 141.409 176.716 142.593H194.698C195.68 139.802 196.631 137.093 197.582 134.383H205.895C208.712 137.046 211.773 139.939 214.573 142.581H236.887C234.879 138.054 232.95 133.707 231.022 129.36C231.142 129.297 231.266 129.231 231.391 129.164C236.438 133.707 241.486 138.25 246.174 142.468H263.694V126.842C269.914 132.394 275.779 137.628 281.325 142.574H298.454V118.085C308.038 126.557 317.102 134.571 326.171 142.585H340.216C343.096 136.694 345.948 130.853 349.036 124.543C356.008 130.787 362.62 136.71 369.111 142.523H405V90.3246C395.482 81.9273 386.071 73.6198 376.838 65.4726ZM13.0195 46.43C3.62186 37.1257 2.78207 23.908 11.0466 13.9469C18.6669 4.75593 33.4099 0.342231 47.6862 6.12422V20.8001C43.1052 16.5388 37.8354 14.9633 31.6547 16.1831C28.54 16.7968 25.9273 18.2511 23.9189 20.4013C19.1113 25.5539 19.3201 33.5642 24.4432 38.5174C27.4869 41.4534 31.4193 42.7826 35.9381 42.6848C40.4481 42.5871 44.0871 40.7145 47.6018 37.9232V52.3566C36.2091 57.0362 22.2394 55.5545 13.0195 46.43ZM47.704 83.9914C44.0694 80.8913 40.097 78.9835 35.1028 79.1477C30.0463 79.3119 25.954 81.0203 23.0969 84.7029C18.9424 90.051 19.8222 97.8307 24.9631 102.307C30.7572 107.346 38.0976 107.104 47.5707 101.443V115.646C36.6712 120.267 22.4082 118.871 13.1617 109.895C3.47967 100.497 2.95981 86.8453 11.1355 77.0679C19.2934 67.314 34.8762 64.1004 47.704 69.4641V83.9914ZM86.8896 116.776C82.6507 111.021 78.1585 104.93 73.6707 98.8354C73.5197 98.8588 73.373 98.8862 73.222 98.9096V116.811H59.0967V68.4672C59.2122 68.389 59.3322 68.2522 59.4477 68.2522C67.6589 68.2405 75.888 67.9512 84.0726 68.3304C90.7331 68.6392 95.9895 71.7003 98.2867 77.3572C100.495 82.7873 100.415 88.3817 95.5985 92.8853C93.5812 94.7696 90.622 95.8759 87.876 97.4632C93.1991 103.593 98.8199 110.063 104.654 116.776H86.8896ZM107.018 34.5533C106.978 38.3298 106.302 42.0554 104.401 45.5191C101.401 50.9884 96.0962 53.6546 89.5734 54.4912C83.1617 55.3121 76.7455 55.2926 70.5826 53.0525C65.1574 51.0822 61.6827 47.552 60.2564 42.6223C59.4921 39.9991 59.0034 37.2469 58.9589 34.5494C58.8079 25.1708 58.9056 15.7882 58.9189 6.40569C58.9189 5.96393 58.9945 5.52217 59.0567 4.90058H73.142C73.142 5.72937 73.1376 6.48388 73.142 7.2423C73.1509 16.1635 73.062 25.0926 73.2531 34.0138C73.302 36.1405 74.044 38.3415 74.9415 40.3431C75.8657 42.3994 77.9941 43.5097 80.5312 43.5996C82.6596 43.6739 84.9301 43.8537 86.9029 43.3181C90.2132 42.4229 91.9994 40.0538 92.3149 37.024C92.5859 34.436 92.6659 31.8245 92.6837 29.2248C92.7281 21.8634 92.697 14.502 92.7059 7.14066C92.7059 6.44479 92.7726 5.74891 92.817 4.94358H106.942C106.978 5.56126 107.049 6.17895 107.049 6.80054C107.053 16.0502 107.12 25.3037 107.018 34.5533ZM153.442 4.94358H191.148V15.4012H179.439V53.5607H165.247V15.4872H153.442V4.94358ZM120.583 4.9514H134.709V42.7552H152.046V53.5099H120.583V4.9514ZM144.057 79.0187H127.111V86.9274H143.28V97.5687H127.106V106.087H144.044V116.783H112.91V68.2561H144.057V79.0187ZM193.698 116.881C192.632 114.16 191.583 111.474 190.481 108.656H169.762C168.656 111.365 167.518 114.141 166.416 116.842H151.184C158.232 100.548 165.181 84.4723 172.179 68.2835H187.926C194.871 84.3237 201.856 100.462 208.965 116.881H193.698ZM247.52 78.9952H235.741V116.834H221.358V79.0499H209.658V68.2679H247.52V78.9952ZM270.016 116.838H255.945V68.2405H270.016V116.838ZM312.588 116.854H301.129C293.411 100.704 285.701 84.5661 277.908 68.2483H293.468C297.845 77.9436 302.204 87.6076 306.563 97.2716C306.749 97.2794 306.932 97.2872 307.118 97.2951C311.495 87.6467 315.876 77.9983 320.293 68.2718H335.849C328.046 84.5622 320.319 100.7 312.588 116.854ZM374.825 78.9913H357.967V86.943H373.95V97.6117H357.932V106.119H374.79V116.842H343.789V68.2757H374.825V78.9913ZM394.025 118.222C389.155 118.226 385.369 114.883 385.387 110.587C385.401 106.494 389.364 103.089 394.065 103.124C398.775 103.163 402.547 106.545 402.53 110.724C402.512 114.95 398.806 118.214 394.025 118.222Z" fill="#1340FF"/>
<path d="M83.5066 87.457C80.8855 90.307 77.0783 90.0411 73.2622 89.8652V77.8908C77.4426 77.7618 81.4097 77.6562 83.8931 81.0769C85.4435 83.2036 85.2258 85.5923 83.5066 87.457Z" fill="#1340FF"/>
<path d="M186.488 98.6218H173.716C175.773 93.3754 177.768 88.2854 179.763 83.1915C179.931 83.1563 180.096 83.125 180.26 83.0898C182.304 88.1799 184.343 93.2738 186.488 98.6218Z" fill="#1340FF"/>
</svg>
