<svg width="21" height="24" viewBox="0 0 21 24" fill="none" xmlns="http://www.w3.org/2000/svg">
<g id="Group">
<path id="Vector" d="M20.4159 23.1476C17.8419 24.0328 15.2707 24.3719 12.6612 23.4632C12.1137 23.2722 11.6098 22.9566 11.0851 22.6993C9.16651 21.7591 7.24192 20.8303 5.33006 19.8767C3.9858 19.2066 2.92968 18.186 2.06322 16.9791C-2.48356 10.6471 0.867047 1.96836 8.37175 0.274291C11.2761 -0.381088 14.0035 0.148978 16.5198 1.74655C16.5975 1.79614 16.6833 1.8397 16.7469 1.9047C17.9592 3.13303 19.1688 4.36405 20.4152 5.63192V23.1476H20.4159ZM15.0086 2.41131C11.3203 0.561104 6.39354 1.38602 3.54486 5.14809C0.755807 8.83175 1.13778 14.0105 4.43009 17.2853C7.69894 20.5374 12.3576 20.4718 14.9966 18.9935V13.5916C13.0686 15.9552 9.82524 15.9913 7.88926 14.1338C6.05245 12.372 5.96065 9.42347 7.67348 7.50156C9.29919 5.67749 12.8321 5.12464 15.0086 7.82389V2.41131Z" fill="white"/>
</g>
</svg>
