<svg width="14" height="14" viewBox="0 0 14 14" fill="none" xmlns="http://www.w3.org/2000/svg">
<mask id="mask0_20410_116167" style="mask-type:alpha" maskUnits="userSpaceOnUse" x="0" y="0" width="14" height="14">
<rect width="14" height="14" fill="#D9D9D9"/>
</mask>
<g mask="url(#mask0_20410_116167)">
<path d="M3.8501 12.6016C3.52926 12.6016 3.25461 12.4873 3.02614 12.2589C2.79767 12.0304 2.68343 11.7557 2.68343 11.4349V3.85156H2.1001V2.6849H5.01676V2.10156H8.51676V2.6849H11.4334V3.85156H10.8501V11.4349C10.8501 11.7557 10.7359 12.0304 10.5074 12.2589C10.2789 12.4873 10.0043 12.6016 9.68343 12.6016H3.8501ZM9.68343 3.85156H3.8501V11.4349H9.68343V3.85156ZM5.01676 10.2682H6.18343V5.01823H5.01676V10.2682ZM7.3501 10.2682H8.51676V5.01823H7.3501V10.2682Z" fill="#919191"/>
</g>
</svg>
