<svg width="16" height="16" viewBox="0 0 16 16" fill="none" xmlns="http://www.w3.org/2000/svg">
<g clip-path="url(#clip0_890_124440)">
<path opacity="0.12" d="M11.9342 3.33299C12.0714 3.66501 12.3349 3.92892 12.6667 4.0667L13.8302 4.54864C14.1622 4.68617 14.426 4.94998 14.5636 5.28202C14.7011 5.61407 14.7011 5.98715 14.5636 6.31919L14.082 7.48185C13.9444 7.81404 13.9442 8.1875 14.0824 8.51953L14.5632 9.68185C14.6313 9.84631 14.6664 10.0226 14.6665 10.2006C14.6665 10.3786 14.6315 10.5549 14.5633 10.7194C14.4952 10.8839 14.3953 11.0333 14.2694 11.1592C14.1435 11.2851 13.9941 11.3849 13.8296 11.453L12.6669 11.9346C12.3349 12.0718 12.071 12.3354 11.9333 12.6672L11.4513 13.8307C11.3138 14.1627 11.05 14.4265 10.718 14.5641C10.3859 14.7016 10.0129 14.7016 9.68085 14.5641L8.51823 14.0825C8.18619 13.9453 7.81326 13.9455 7.48142 14.0832L6.31797 14.5645C5.98612 14.7017 5.61338 14.7016 5.28162 14.5642C4.94986 14.4267 4.68621 14.1632 4.54858 13.8316L4.06652 12.6677C3.92924 12.3357 3.66574 12.0718 3.33394 11.934L2.17048 11.4521C1.8386 11.3146 1.57488 11.0509 1.4373 10.7191C1.29971 10.3872 1.29953 10.0143 1.43678 9.68235L1.91835 8.51968C2.05554 8.18763 2.05526 7.81469 1.91757 7.48284L1.43669 6.31851C1.36851 6.15405 1.3334 5.97777 1.33337 5.79974C1.33335 5.62171 1.3684 5.44542 1.43652 5.28094C1.50465 5.11646 1.60452 4.96702 1.73042 4.84115C1.85632 4.71529 2.00579 4.61546 2.17028 4.54739L3.33291 4.0658C3.66462 3.92863 3.92836 3.66545 4.06624 3.33402L4.54816 2.17052C4.68569 1.83848 4.94949 1.57467 5.28152 1.43714C5.61355 1.2996 5.98662 1.2996 6.31865 1.43714L7.48127 1.91873C7.81331 2.05593 8.18624 2.05565 8.51808 1.91795L9.68202 1.43788C10.014 1.30042 10.387 1.30045 10.719 1.43796C11.0509 1.57547 11.3147 1.8392 11.4522 2.17116L11.9343 3.335L11.9342 3.33299Z" fill="#1340FF"/>
<path d="M11.9342 3.33299C12.0714 3.66501 12.3349 3.92892 12.6667 4.0667L13.8302 4.54864C14.1622 4.68617 14.426 4.94998 14.5636 5.28202C14.7011 5.61407 14.7011 5.98715 14.5636 6.31919L14.082 7.48185C13.9444 7.81404 13.9442 8.1875 14.0824 8.51953L14.5632 9.68185C14.6313 9.84631 14.6664 10.0226 14.6665 10.2006C14.6665 10.3786 14.6315 10.5549 14.5633 10.7194C14.4952 10.8839 14.3953 11.0333 14.2694 11.1592C14.1435 11.2851 13.9941 11.3849 13.8296 11.453L12.6669 11.9346C12.3349 12.0718 12.071 12.3354 11.9333 12.6672L11.4513 13.8307C11.3138 14.1627 11.05 14.4265 10.718 14.5641C10.3859 14.7016 10.0129 14.7016 9.68085 14.5641L8.51823 14.0825C8.18619 13.9453 7.81326 13.9455 7.48142 14.0832L6.31797 14.5645C5.98612 14.7017 5.61338 14.7016 5.28162 14.5642C4.94986 14.4267 4.68621 14.1632 4.54858 13.8316L4.06652 12.6677C3.92924 12.3357 3.66574 12.0718 3.33394 11.934L2.17048 11.4521C1.8386 11.3146 1.57488 11.0509 1.4373 10.7191C1.29971 10.3872 1.29953 10.0143 1.43678 9.68235L1.91835 8.51968C2.05554 8.18763 2.05526 7.81469 1.91757 7.48284L1.43669 6.31851C1.36851 6.15405 1.3334 5.97777 1.33337 5.79974C1.33335 5.62171 1.3684 5.44542 1.43652 5.28094C1.50465 5.11646 1.60452 4.96702 1.73042 4.84115C1.85632 4.71529 2.00579 4.61546 2.17028 4.54739L3.33291 4.0658C3.66462 3.92863 3.92836 3.66545 4.06624 3.33402L4.54816 2.17052C4.68569 1.83848 4.94949 1.57467 5.28152 1.43714C5.61355 1.2996 5.98662 1.2996 6.31865 1.43714L7.48127 1.91873C7.81331 2.05593 8.18624 2.05565 8.51808 1.91795L9.68202 1.43788C10.014 1.30042 10.387 1.30045 10.719 1.43796C11.0509 1.57547 11.3147 1.8392 11.4522 2.17116L11.9343 3.335L11.9342 3.33299Z" fill="#1340FF"/>
<path d="M6.00004 8.00065L7.33337 9.33398L10.3334 6.33398M11.9342 3.33299C12.0714 3.66501 12.3349 3.92892 12.6667 4.0667L13.8302 4.54864C14.1622 4.68617 14.426 4.94998 14.5636 5.28202C14.7011 5.61407 14.7011 5.98715 14.5636 6.31919L14.082 7.48185C13.9444 7.81404 13.9442 8.1875 14.0824 8.51953L14.5632 9.68185C14.6313 9.84631 14.6664 10.0226 14.6665 10.2006C14.6665 10.3786 14.6315 10.5549 14.5633 10.7194C14.4952 10.8839 14.3953 11.0333 14.2694 11.1592C14.1435 11.2851 13.9941 11.3849 13.8296 11.453L12.6669 11.9346C12.3349 12.0718 12.071 12.3354 11.9333 12.6672L11.4513 13.8307C11.3138 14.1627 11.05 14.4265 10.718 14.5641C10.3859 14.7016 10.0129 14.7016 9.68085 14.5641L8.51823 14.0825C8.18619 13.9453 7.81326 13.9455 7.48142 14.0832L6.31797 14.5645C5.98612 14.7017 5.61338 14.7016 5.28162 14.5642C4.94986 14.4267 4.68621 14.1632 4.54858 13.8316L4.06652 12.6677C3.92924 12.3357 3.66574 12.0718 3.33394 11.934L2.17048 11.4521C1.8386 11.3146 1.57488 11.0509 1.4373 10.7191C1.29971 10.3872 1.29953 10.0143 1.43678 9.68235L1.91835 8.51968C2.05554 8.18763 2.05526 7.81469 1.91757 7.48284L1.43669 6.31851C1.36851 6.15405 1.3334 5.97777 1.33337 5.79974C1.33335 5.62171 1.3684 5.44542 1.43652 5.28094C1.50465 5.11646 1.60452 4.96702 1.73042 4.84115C1.85632 4.71529 2.00579 4.61546 2.17028 4.54739L3.33291 4.0658C3.66462 3.92863 3.92836 3.66545 4.06624 3.33402L4.54816 2.17052C4.68569 1.83848 4.94949 1.57467 5.28152 1.43714C5.61355 1.2996 5.98662 1.2996 6.31865 1.43714L7.48127 1.91873C7.81331 2.05593 8.18624 2.05565 8.51808 1.91795L9.68202 1.43788C10.014 1.30042 10.387 1.30045 10.719 1.43796C11.0509 1.57547 11.3147 1.8392 11.4522 2.17116L11.9343 3.335L11.9342 3.33299Z" stroke="#1340FF" stroke-width="1.33333" stroke-linecap="round" stroke-linejoin="round"/>
<path fill-rule="evenodd" clip-rule="evenodd" d="M10.8048 5.86128C11.0651 6.12163 11.0651 6.54374 10.8048 6.80409L7.80478 9.80409C7.54443 10.0644 7.12232 10.0644 6.86197 9.80409L5.52864 8.47075C5.26829 8.2104 5.26829 7.78829 5.52864 7.52794C5.78899 7.26759 6.2111 7.26759 6.47145 7.52794L7.33337 8.38987L9.86197 5.86128C10.1223 5.60093 10.5444 5.60093 10.8048 5.86128Z" fill="white"/>
</g>
<defs>
<clipPath id="clip0_890_124440">
<rect width="16" height="16" fill="white"/>
</clipPath>
</defs>
</svg>
