<svg width="18" height="18" viewBox="0 0 18 18" fill="none" xmlns="http://www.w3.org/2000/svg">
<path d="M11.7803 7.28033C12.0732 6.98744 12.0732 6.51256 11.7803 6.21967C11.4874 5.92678 11.0126 5.92678 10.7197 6.21967L11.7803 7.28033ZM6.21967 10.7197C5.92678 11.0126 5.92678 11.4874 6.21967 11.7803C6.51256 12.0732 6.98744 12.0732 7.28033 11.7803L6.21967 10.7197ZM10.7197 11.7803C11.0126 12.0732 11.4874 12.0732 11.7803 11.7803C12.0732 11.4874 12.0732 11.0126 11.7803 10.7197L10.7197 11.7803ZM7.28033 6.21967C6.98744 5.92678 6.51256 5.92678 6.21967 6.21967C5.92678 6.51256 5.92678 6.98744 6.21967 7.28033L7.28033 6.21967ZM15 3H15.75C15.75 2.58579 15.4142 2.25 15 2.25V3ZM15 15V15.75C15.4142 15.75 15.75 15.4142 15.75 15H15ZM3 15H2.25C2.25 15.4142 2.58579 15.75 3 15.75V15ZM3 3V2.25C2.58579 2.25 2.25 2.58579 2.25 3H3ZM10.7197 6.21967L6.21967 10.7197L7.28033 11.7803L11.7803 7.28033L10.7197 6.21967ZM11.7803 10.7197L7.28033 6.21967L6.21967 7.28033L10.7197 11.7803L11.7803 10.7197ZM14.25 3V15H15.75V3H14.25ZM15 14.25H3V15.75H15V14.25ZM3.75 15V3H2.25V15H3.75ZM3 3.75H15V2.25H3V3.75Z" fill="#FF3500"/>
</svg>
