<svg width="18" height="18" viewBox="0 0 18 18" fill="none" xmlns="http://www.w3.org/2000/svg">
<path d="M15 3H15.75C15.75 2.58579 15.4142 2.25 15 2.25V3ZM15 15V15.75C15.4142 15.75 15.75 15.4142 15.75 15H15ZM3 15H2.25C2.25 15.4142 2.58579 15.75 3 15.75V15ZM3 3V2.25C2.58579 2.25 2.25 2.58579 2.25 3H3ZM8.24757 10.6875L7.71724 11.2178C7.85789 11.3585 8.04866 11.4375 8.24757 11.4375C8.44648 11.4375 8.63725 11.3585 8.7779 11.2178L8.24757 10.6875ZM12.1529 7.84284C12.4458 7.54994 12.4458 7.07507 12.1529 6.78218C11.86 6.48928 11.3851 6.48928 11.0922 6.78218L12.1529 7.84284ZM7.2779 8.65718C6.98501 8.36428 6.51013 8.36428 6.21724 8.65718C5.92435 8.95007 5.92435 9.42494 6.21724 9.71784L7.2779 8.65718ZM14.25 3V15H15.75V3H14.25ZM15 14.25H3V15.75H15V14.25ZM3.75 15V3H2.25V15H3.75ZM3 3.75H15V2.25H3V3.75ZM8.7779 11.2178L12.1529 7.84284L11.0922 6.78218L7.71724 10.1572L8.7779 11.2178ZM6.21724 9.71784L7.71724 11.2178L8.7779 10.1572L7.2779 8.65718L6.21724 9.71784Z" fill="#026D54"/>
</svg>
