<svg width="14" height="14" viewBox="0 0 14 14" fill="none" xmlns="http://www.w3.org/2000/svg">
<path d="M11.6666 4.95833V4.08333C11.6666 3.439 11.1443 2.91667 10.5 2.91667H3.49998C2.85565 2.91667 2.33331 3.439 2.33331 4.08333V10.5C2.33331 11.1443 2.85565 11.6667 3.49998 11.6667H4.95831M4.66665 2.91667V1.75M9.33331 2.91667V1.75M9.91665 8.75014V9.91658L10.7916 10.7918M8.80092 7.22273C10.2889 6.60637 11.9942 7.31315 12.6106 8.80108C13.227 10.289 12.5202 11.9942 11.0322 12.6106C9.54418 13.227 7.83891 12.5202 7.22252 11.0323C6.60662 9.5448 7.31293 7.8391 8.80092 7.22273Z" stroke="#8E8E93" stroke-width="1.3" stroke-linecap="round" stroke-linejoin="round"/>
</svg>
