<svg width="14" height="14" viewBox="0 0 14 14" fill="none" xmlns="http://www.w3.org/2000/svg">
<path d="M3.56763 10.9727L3.14246 11.4643L3.14246 11.4643L3.56763 10.9727ZM10.4324 10.9727L10.0072 10.481L10.4324 10.9727ZM3.31186 10.268C3.06968 10.533 3.08818 10.9442 3.35317 11.1864C3.61816 11.4285 4.0293 11.41 4.27148 11.145L3.31186 10.268ZM9.72852 11.145L10.167 11.6249L11.1266 10.7479L10.6881 10.268L9.72852 11.145ZM2.4 7C2.4 4.45949 4.45949 2.4 7 2.4V1.1C3.74152 1.1 1.1 3.74152 1.1 7H2.4ZM7 2.4C9.54051 2.4 11.6 4.45949 11.6 7H12.9C12.9 3.74152 10.2585 1.1 7 1.1V2.4ZM8.1 5.83333C8.1 6.44085 7.60751 6.93333 7 6.93333V8.23333C8.32548 8.23333 9.4 7.15882 9.4 5.83333H8.1ZM7 6.93333C6.39249 6.93333 5.9 6.44085 5.9 5.83333H4.6C4.6 7.15882 5.67452 8.23333 7 8.23333V6.93333ZM5.9 5.83333C5.9 5.22582 6.39249 4.73333 7 4.73333V3.43333C5.67452 3.43333 4.6 4.50785 4.6 5.83333H5.9ZM7 4.73333C7.60751 4.73333 8.1 5.22582 8.1 5.83333H9.4C9.4 4.50785 8.32548 3.43333 7 3.43333V4.73333ZM7 11.6C5.84975 11.6 4.79954 11.1787 3.9928 10.481L3.14246 11.4643C4.17642 12.3585 5.52579 12.9 7 12.9V11.6ZM3.9928 10.481C3.01625 9.63655 2.4 8.39061 2.4 7H1.1C1.1 8.78392 1.89253 10.3835 3.14246 11.4643L3.9928 10.481ZM11.6 7C11.6 8.39061 10.9837 9.63655 10.0072 10.481L10.8575 11.4643C12.1075 10.3835 12.9 8.78392 12.9 7H11.6ZM10.0072 10.481C9.20047 11.1787 8.15025 11.6 7 11.6V12.9C8.47422 12.9 9.82358 12.3585 10.8575 11.4643L10.0072 10.481ZM4.27148 11.145C4.92159 10.4337 5.85757 9.98333 7 9.98333V8.68333C5.49392 8.68333 4.20922 9.28614 3.31186 10.268L4.27148 11.145ZM7 9.98333C8.14243 9.98333 9.07841 10.4337 9.72852 11.145L10.6881 10.268C9.79078 9.28614 8.50608 8.68333 7 8.68333V9.98333Z" fill="#8E8E93"/>
</svg>
