<svg width="48" height="48" viewBox="0 0 48 48" fill="none" xmlns="http://www.w3.org/2000/svg">
<rect width="48" height="48" rx="24" fill="#1340FF"/>
<path fill-rule="evenodd" clip-rule="evenodd" d="M15 16C15 15.4477 15.4477 15 16 15H32C32.5523 15 33 15.4477 33 16V26H27C26.4477 26 26 26.4477 26 27V33H16C15.4477 33 15 32.5523 15 32V16ZM20 21C20 20.4477 20.4477 20 21 20H27C27.5523 20 28 20.4477 28 21C28 21.5523 27.5523 22 27 22H21C20.4477 22 20 21.5523 20 21ZM21 24C20.4477 24 20 24.4477 20 25C20 25.5523 20.4477 26 21 26H23C23.5523 26 24 25.5523 24 25C24 24.4477 23.5523 24 23 24H21Z" fill="white"/>
<path d="M28 33C28.2652 33 28.5196 32.8946 28.7071 32.7071L32.7071 28.7071C32.8946 28.5196 33 28.2652 33 28H28V33Z" fill="white"/>
</svg>
