<svg width="191" height="191" viewBox="0 0 191 191" fill="none" xmlns="http://www.w3.org/2000/svg">
<path d="M178.316 128.048L178.279 128.011C170.053 110.608 157.314 101.655 140.359 101.655C123.404 101.655 110.664 110.627 102.42 128.011V128.03C101.413 130.175 101.413 132.674 102.42 134.819C110.664 152.203 123.404 161.156 140.359 161.156C157.314 161.156 170.053 152.184 178.298 134.8C179.305 132.655 179.305 130.175 178.316 128.048ZM140.359 149.219C128.776 149.219 120.326 143.623 114.04 131.406C120.308 119.188 128.776 113.593 140.359 113.593C151.942 113.593 160.391 119.188 166.677 131.406C160.41 143.623 151.942 149.219 140.359 149.219Z" fill="#1340FF" fill-opacity="0.75"/>
<path d="M130.007 131.499C130.007 134.269 131.107 136.926 133.066 138.885C135.025 140.844 137.682 141.944 140.452 141.944C143.222 141.944 145.879 140.844 147.838 138.885C149.797 136.926 150.897 134.269 150.897 131.499C150.897 128.729 149.797 126.072 147.838 124.113C145.879 122.154 143.222 121.054 140.452 121.054C137.682 121.054 135.025 122.154 133.066 124.113C131.107 126.072 130.007 128.729 130.007 131.499Z" fill="#1340FF" fill-opacity="0.75"/>
<path d="M25.3672 43.2734H156.68V90.4639H170.109V35.8125C170.109 32.511 167.442 29.8438 164.141 29.8438H17.9062C14.6048 29.8438 11.9375 32.511 11.9375 35.8125V132.805C11.9375 136.106 14.6048 138.773 17.9062 138.773H83.5625V125.344H25.3672V43.2734Z" fill="#1340FF" fill-opacity="0.75"/>
<path d="M135.204 63.0567L128.34 56.1926C127.762 55.6144 126.81 55.6144 126.232 56.1926L91.9492 90.5129L75.8895 74.4346C75.3113 73.8564 74.3601 73.8564 73.7818 74.4346L46.8665 101.35C46.2883 101.928 46.2883 102.879 46.8665 103.458L53.7306 110.322C54.3088 110.9 55.2601 110.9 55.8383 110.322L74.8264 91.3337L90.886 107.412C91.4643 107.99 92.4155 107.99 92.9937 107.412L135.204 65.1644C135.801 64.5862 135.801 63.6349 135.204 63.0567Z" fill="#1340FF" fill-opacity="0.75"/>
</svg>
