<svg width="48" height="48" viewBox="0 0 48 48" fill="none" xmlns="http://www.w3.org/2000/svg">
<rect width="48" height="48" rx="24" fill="#1340FF"/>
<path fill-rule="evenodd" clip-rule="evenodd" d="M16 16C16 15.4477 16.4477 15 17 15H31C31.5523 15 32 15.4477 32 16C32 16.5523 31.5523 17 31 17H17C16.4477 17 16 16.5523 16 16ZM14 20C14 18.8954 14.8954 18 16 18H32C33.1046 18 34 18.8954 34 20V31C34 32.1046 33.1046 33 32 33H16C14.8954 33 14 32.1046 14 31V20ZM22.5668 22.5987C22.9133 22.4322 23.3245 22.479 23.6247 22.7191L26.1247 24.7191C26.3619 24.9089 26.5 25.1962 26.5 25.5C26.5 25.8038 26.3619 26.0911 26.1247 26.2809L23.6247 28.2809C23.3245 28.521 22.9133 28.5678 22.5668 28.4013C22.2203 28.2348 22 27.8844 22 27.5V23.5C22 23.1156 22.2203 22.7652 22.5668 22.5987Z" fill="white"/>
</svg>
