<svg width="14" height="14" viewBox="0 0 14 14" fill="none" xmlns="http://www.w3.org/2000/svg">
<path d="M0.904116 13.4813C0.641616 13.5438 0.413491 13.4781 0.219741 13.2844C0.0259909 13.0906 -0.0396341 12.8625 0.0228659 12.6L0.772866 9.01875L4.48537 12.7313L0.904116 13.4813ZM4.48537 12.7313L0.772866 9.01875L9.36037 0.43125C9.64787 0.14375 10.0041 0 10.4291 0C10.8541 0 11.2104 0.14375 11.4979 0.43125L13.0729 2.00625C13.3604 2.29375 13.5041 2.65 13.5041 3.075C13.5041 3.5 13.3604 3.85625 13.0729 4.14375L4.48537 12.7313ZM10.4291 1.48125L2.66662 9.24375L4.26037 10.8375L12.0229 3.075L10.4291 1.48125Z" fill="#3A3A3C"/>
</svg>
