<svg width="19" height="18" viewBox="0 0 19 18" fill="none" xmlns="http://www.w3.org/2000/svg">
<path d="M6.76042 17.1875C4.90799 17.1875 3.31814 16.5859 1.99089 15.3828C0.663629 14.1797 0 12.6806 0 10.8854C0 9.09028 0.663629 7.59115 1.99089 6.38802C3.31814 5.1849 4.90799 4.58333 6.76042 4.58333H13.9792L11 1.60417L12.6042 0L18.3333 5.72917L12.6042 11.4583L11 9.85417L13.9792 6.875H6.76042C5.55729 6.875 4.51172 7.25694 3.6237 8.02083C2.73568 8.78472 2.29167 9.73958 2.29167 10.8854C2.29167 12.0312 2.73568 12.9861 3.6237 13.75C4.51172 14.5139 5.55729 14.8958 6.76042 14.8958H14.8958V17.1875H6.76042Z" fill="#1C1B1F"/>
</svg>
