<svg width="13" height="13" viewBox="0 0 13 13" fill="none" xmlns="http://www.w3.org/2000/svg">
<path d="M5.33329 1.94755C5.70148 1.94755 5.99996 1.64908 5.99996 1.28089C5.99996 0.912696 5.70148 0.614219 5.33329 0.614219V1.28089V1.94755ZM12 7.28089C12 6.9127 11.7015 6.61422 11.3333 6.61422C10.9651 6.61422 10.6666 6.9127 10.6666 7.28089H11.3333H12ZM1.39464 11.8022L1.6973 11.2082H1.6973L1.39464 11.8022ZM0.811951 11.2195L1.40596 10.9169H1.40595L0.811951 11.2195ZM10.6053 11.8022L10.3026 11.2082V11.2082L10.6053 11.8022ZM11.188 11.2195L10.594 10.9169L11.188 11.2195ZM0.811951 2.0089L0.217946 1.70624H0.217946L0.811951 2.0089ZM1.39464 1.42621L1.09198 0.832206L1.09198 0.832206L1.39464 1.42621ZM3.99996 8.61422H3.33329C3.33329 8.98241 3.63177 9.28089 3.99996 9.28089V8.61422ZM4.19522 6.41896L4.66663 6.89036L4.66663 6.89036L4.19522 6.41896ZM9.55715 1.05703L9.08575 0.585624V0.585624L9.55715 1.05703ZM11.4428 1.05703L11.9142 0.585624L11.9142 0.585623L11.4428 1.05703ZM11.5571 1.17141L11.0857 1.64281V1.64281L11.5571 1.17141ZM11.5572 3.05703L12.0286 3.52843L12.0286 3.52843L11.5572 3.05703ZM6.19522 8.41896L6.66663 8.89036H6.66663L6.19522 8.41896ZM9.19996 11.9476V11.2809H2.79996V11.9476V12.6142H9.19996V11.9476ZM0.666626 9.81422H1.33329V3.41422H0.666626H-4.071e-05V9.81422H0.666626ZM2.79996 1.28089V1.94755H5.33329V1.28089V0.614219H2.79996V1.28089ZM11.3333 7.28089H10.6666V9.81422H11.3333H12V7.28089H11.3333ZM2.79996 11.9476V11.2809C2.41559 11.2809 2.16741 11.2804 1.97852 11.2649C1.79741 11.2501 1.73026 11.225 1.6973 11.2082L1.39464 11.8022L1.09198 12.3962C1.34423 12.5248 1.60638 12.5723 1.86994 12.5938C2.12572 12.6147 2.43759 12.6142 2.79996 12.6142V11.9476ZM0.666626 9.81422H-4.071e-05C-4.071e-05 10.1766 -0.000559151 10.4885 0.020339 10.7442C0.0418729 11.0078 0.0894169 11.2699 0.217946 11.5222L0.811951 11.2195L1.40595 10.9169C1.38916 10.8839 1.36404 10.8168 1.34924 10.6357C1.33381 10.4468 1.33329 10.1986 1.33329 9.81422H0.666626ZM1.39464 11.8022L1.6973 11.2082C1.57186 11.1443 1.46987 11.0423 1.40596 10.9169L0.811951 11.2195L0.217946 11.5222C0.409693 11.8985 0.715655 12.2045 1.09198 12.3962L1.39464 11.8022ZM9.19996 11.9476V12.6142C9.56233 12.6142 9.8742 12.6147 10.13 12.5938C10.3935 12.5723 10.6557 12.5248 10.9079 12.3962L10.6053 11.8022L10.3026 11.2082C10.2697 11.225 10.2025 11.2501 10.0214 11.2649C9.83251 11.2804 9.58433 11.2809 9.19996 11.2809V11.9476ZM11.3333 9.81422H10.6666C10.6666 10.1986 10.6661 10.4468 10.6507 10.6357C10.6359 10.8168 10.6108 10.8839 10.594 10.9169L11.188 11.2195L11.782 11.5222C11.9105 11.2699 11.958 11.0078 11.9796 10.7442C12.0005 10.4885 12 10.1766 12 9.81422H11.3333ZM10.6053 11.8022L10.9079 12.3962C11.2843 12.2045 11.5902 11.8985 11.782 11.5222L11.188 11.2195L10.594 10.9169C10.53 11.0423 10.4281 11.1443 10.3026 11.2082L10.6053 11.8022ZM0.666626 3.41422H1.33329C1.33329 3.02985 1.33381 2.78167 1.34924 2.59278C1.36404 2.41167 1.38916 2.34452 1.40596 2.31156L0.811951 2.0089L0.217946 1.70624C0.0894169 1.95849 0.0418729 2.22064 0.020339 2.4842C-0.000559151 2.73998 -4.071e-05 3.05185 -4.071e-05 3.41422H0.666626ZM2.79996 1.28089V0.614219C2.43759 0.614219 2.12572 0.613701 1.86994 0.634599C1.60638 0.656133 1.34423 0.703677 1.09198 0.832206L1.39464 1.42621L1.6973 2.02021C1.73026 2.00342 1.79741 1.9783 1.97852 1.9635C2.16741 1.94807 2.41559 1.94755 2.79996 1.94755V1.28089ZM0.811951 2.0089L1.40595 2.31156C1.46987 2.18612 1.57186 2.08413 1.6973 2.02021L1.39464 1.42621L1.09198 0.832206C0.715654 1.02395 0.409693 1.32991 0.217946 1.70624L0.811951 2.0089ZM3.99996 6.89036H3.33329V8.61422H3.99996H4.66663V6.89036H3.99996ZM3.99996 8.61422V9.28089H5.72382V8.61422V7.94755H3.99996V8.61422ZM4.19522 6.41896L4.66663 6.89036L10.0286 1.52843L9.55715 1.05703L9.08575 0.585624L3.72382 5.94755L4.19522 6.41896ZM11.4428 1.05703L10.9714 1.52843L11.0857 1.64281L11.5571 1.17141L12.0286 0.700006L11.9142 0.585624L11.4428 1.05703ZM11.5572 3.05703L11.0857 2.58562L5.72382 7.94755L6.19522 8.41896L6.66663 8.89036L12.0286 3.52843L11.5572 3.05703ZM11.5571 1.17141L11.0857 1.64281C11.3461 1.90316 11.3461 2.32527 11.0857 2.58562L11.5572 3.05703L12.0286 3.52843C12.8096 2.74738 12.8096 1.48105 12.0286 0.700005L11.5571 1.17141ZM9.55715 1.05703L10.0286 1.52843C10.2889 1.26808 10.711 1.26808 10.9714 1.52843L11.4428 1.05703L11.9142 0.585623C11.1331 -0.195426 9.86679 -0.195424 9.08575 0.585624L9.55715 1.05703ZM5.72382 8.61422V9.28089C6.07744 9.28089 6.41658 9.14041 6.66663 8.89036L6.19522 8.41896L5.72382 7.94755L5.72382 7.94755V8.61422ZM3.99996 6.89036H4.66663V6.89036L4.19522 6.41896L3.72382 5.94755C3.47377 6.1976 3.33329 6.53674 3.33329 6.89036H3.99996Z" fill="#1340FF"/>
</svg>
