<svg width="19" height="18" viewBox="0 0 19 18" fill="none" xmlns="http://www.w3.org/2000/svg">
<path d="M3.4375 17.1875V14.8958H11.5729C12.776 14.8958 13.8216 14.5139 14.7096 13.75C15.5977 12.9861 16.0417 12.0312 16.0417 10.8854C16.0417 9.73958 15.5977 8.78472 14.7096 8.02083C13.8216 7.25694 12.776 6.875 11.5729 6.875H4.35417L7.33333 9.85417L5.72917 11.4583L0 5.72917L5.72917 0L7.33333 1.60417L4.35417 4.58333H11.5729C13.4253 4.58333 15.0152 5.1849 16.3424 6.38802C17.6697 7.59115 18.3333 9.09028 18.3333 10.8854C18.3333 12.6806 17.6697 14.1797 16.3424 15.3828C15.0152 16.5859 13.4253 17.1875 11.5729 17.1875H3.4375Z" fill="#1C1B1F"/>
</svg>
