<svg width="18" height="19" viewBox="0 0 18 19" fill="none" xmlns="http://www.w3.org/2000/svg">
<path d="M7.01571 16.25C7.54456 16.7168 8.23924 17 9.00008 17C9.76091 17 10.4556 16.7168 10.9844 16.25M13.5001 6.5C13.5001 5.30653 13.026 4.16193 12.1821 3.31802C11.3381 2.47411 10.1935 2 9.00008 2C7.8066 2 6.66201 2.47411 5.81809 3.31802C4.97418 4.16193 4.50007 5.30653 4.50007 6.5C4.50007 8.81764 3.91543 10.4045 3.26232 11.4541C2.71142 12.3394 2.43597 12.7821 2.44607 12.9056C2.45725 13.0423 2.48622 13.0944 2.59641 13.1762C2.69592 13.25 3.14452 13.25 4.04172 13.25H13.9584C14.8556 13.25 15.3042 13.25 15.4037 13.1762C15.5139 13.0944 15.5429 13.0423 15.5541 12.9056C15.5642 12.7821 15.2887 12.3394 14.7378 11.4541C14.0847 10.4045 13.5001 8.81764 13.5001 6.5Z" stroke="#231F20" stroke-width="1.4" stroke-linecap="round" stroke-linejoin="round"/>
</svg>
