<svg width="30" height="30" viewBox="0 0 30 30" fill="none" xmlns="http://www.w3.org/2000/svg">
<path d="M14.1458 23.3333C11.8125 23.2118 9.84375 22.3125 8.23958 20.6354C6.63542 18.9583 5.83333 16.941 5.83333 14.5833C5.83333 12.1528 6.68403 10.0868 8.38542 8.38542C10.0868 6.68403 12.1528 5.83333 14.5833 5.83333C16.941 5.83333 18.9583 6.63542 20.6354 8.23958C22.3125 9.84375 23.2118 11.8125 23.3333 14.1458L20.2708 13.2344C19.9549 11.9219 19.2743 10.8464 18.2292 10.0078C17.184 9.16927 15.9688 8.75 14.5833 8.75C12.9792 8.75 11.6059 9.32118 10.4635 10.4635C9.32118 11.6059 8.75 12.9792 8.75 14.5833C8.75 15.9688 9.16927 17.184 10.0078 18.2292C10.8464 19.2743 11.9219 19.9549 13.2344 20.2708L14.1458 23.3333ZM15.8958 29.0938C15.6771 29.1424 15.4583 29.1667 15.2396 29.1667H14.5833C12.566 29.1667 10.6701 28.7839 8.89583 28.0182C7.12153 27.2526 5.57812 26.2135 4.26562 24.901C2.95312 23.5885 1.91406 22.0451 1.14844 20.2708C0.382812 18.4965 0 16.6007 0 14.5833C0 12.566 0.382812 10.6701 1.14844 8.89583C1.91406 7.12153 2.95312 5.57812 4.26562 4.26562C5.57812 2.95312 7.12153 1.91406 8.89583 1.14844C10.6701 0.382812 12.566 0 14.5833 0C16.6007 0 18.4965 0.382812 20.2708 1.14844C22.0451 1.91406 23.5885 2.95312 24.901 4.26562C26.2135 5.57812 27.2526 7.12153 28.0182 8.89583C28.7839 10.6701 29.1667 12.566 29.1667 14.5833V15.2396C29.1667 15.4583 29.1424 15.6771 29.0938 15.8958L26.25 15.0208V14.5833C26.25 11.3264 25.1198 8.56771 22.8594 6.30729C20.599 4.04688 17.8403 2.91667 14.5833 2.91667C11.3264 2.91667 8.56771 4.04688 6.30729 6.30729C4.04688 8.56771 2.91667 11.3264 2.91667 14.5833C2.91667 17.8403 4.04688 20.599 6.30729 22.8594C8.56771 25.1198 11.3264 26.25 14.5833 26.25H15.0208L15.8958 29.0938ZM27.0156 29.8958L20.7812 23.6615L18.9583 29.1667L14.5833 14.5833L29.1667 18.9583L23.6615 20.7812L29.8958 27.0156L27.0156 29.8958Z" fill="white"/>
</svg>
