<svg width="29" height="23" viewBox="0 0 29 23" fill="none" xmlns="http://www.w3.org/2000/svg">
<path d="M7.25 17.25C7.66083 17.25 8.00521 17.1122 8.28312 16.8367C8.56104 16.5612 8.7 16.2198 8.7 15.8125C8.7 15.4052 8.56104 15.0638 8.28312 14.7883C8.00521 14.5128 7.66083 14.375 7.25 14.375C6.83917 14.375 6.49479 14.5128 6.21688 14.7883C5.93896 15.0638 5.8 15.4052 5.8 15.8125C5.8 16.2198 5.93896 16.5612 6.21688 16.8367C6.49479 17.1122 6.83917 17.25 7.25 17.25ZM5.8 12.9375H8.7V5.75H5.8V12.9375ZM11.6 15.8125H23.2V12.9375H11.6V15.8125ZM11.6 10.0625H23.2V7.1875H11.6V10.0625ZM2.9 23C2.1025 23 1.41979 22.7185 0.851875 22.1555C0.283958 21.5924 0 20.9156 0 20.125V2.875C0 2.08438 0.283958 1.40755 0.851875 0.844531C1.41979 0.28151 2.1025 0 2.9 0H26.1C26.8975 0 27.5802 0.28151 28.1481 0.844531C28.716 1.40755 29 2.08438 29 2.875V20.125C29 20.9156 28.716 21.5924 28.1481 22.1555C27.5802 22.7185 26.8975 23 26.1 23H2.9ZM2.9 20.125H26.1V2.875H2.9V20.125Z" fill="white"/>
</svg>
