<svg width="27" height="27" viewBox="0 0 27 27" fill="none" xmlns="http://www.w3.org/2000/svg">
<path d="M13.125 11.6667C13.9271 11.6667 14.6137 11.3811 15.1849 10.8099C15.7561 10.2387 16.0417 9.55208 16.0417 8.75C16.0417 7.94792 15.7561 7.26128 15.1849 6.6901C14.6137 6.11892 13.9271 5.83333 13.125 5.83333C12.3229 5.83333 11.6363 6.11892 11.0651 6.6901C10.4939 7.26128 10.2083 7.94792 10.2083 8.75C10.2083 9.55208 10.4939 10.2387 11.0651 10.8099C11.6363 11.3811 12.3229 11.6667 13.125 11.6667ZM5.83333 26.25V23.3333H11.6667V18.8125C10.4757 18.5451 9.41233 18.0408 8.47656 17.2995C7.5408 16.5582 6.85417 15.6285 6.41667 14.5104C4.59375 14.2917 3.06858 13.4957 1.84115 12.1224C0.613715 10.7491 0 9.13889 0 7.29167V5.83333C0 5.03125 0.28559 4.34462 0.856771 3.77344C1.42795 3.20226 2.11458 2.91667 2.91667 2.91667H5.83333V0H20.4167V2.91667H23.3333C24.1354 2.91667 24.822 3.20226 25.3932 3.77344C25.9644 4.34462 26.25 5.03125 26.25 5.83333V7.29167C26.25 9.13889 25.6363 10.7491 24.4089 12.1224C23.1814 13.4957 21.6562 14.2917 19.8333 14.5104C19.3958 15.6285 18.7092 16.5582 17.7734 17.2995C16.8377 18.0408 15.7743 18.5451 14.5833 18.8125V23.3333H20.4167V26.25H5.83333ZM5.83333 11.375V5.83333H2.91667V7.29167C2.91667 8.21528 3.18403 9.04774 3.71875 9.78906C4.25347 10.5304 4.95833 11.059 5.83333 11.375ZM13.125 16.0417C14.3403 16.0417 15.3733 15.6163 16.224 14.7656C17.0747 13.9149 17.5 12.8819 17.5 11.6667V2.91667H8.75V11.6667C8.75 12.8819 9.17535 13.9149 10.026 14.7656C10.8767 15.6163 11.9097 16.0417 13.125 16.0417ZM20.4167 11.375C21.2917 11.059 21.9965 10.5304 22.5312 9.78906C23.066 9.04774 23.3333 8.21528 23.3333 7.29167V5.83333H20.4167V11.375Z" fill="white"/>
</svg>
